  0
SECTION
  2
HEADER
  9
$ACADVER
  1
AC1015
  9
$ACADMAINTVER
 70
     6
  9
$DWGCODEPAGE
  3
ANSI_1252
  9
$INSBASE
 10
0.0
 20
0.0
 30
0.0
  9
$EXTMIN
 10
0.0
 20
0.0
 30
0.0
  9
$EXTMAX
 10
24.0
 20
24.0
 30
0.0
  9
$LIMMIN
 10
0.0
 20
0.0
  9
$LIMMAX
 10
24.0
 20
24.0
  9
$ORTHOMODE
 70
     0
  9
$REGENMODE
 70
     1
  9
$FILLMODE
 70
     1
  9
$QTEXTMODE
 70
     0
  9
$MIRRTEXT
 70
     1
  9
$LTSCALE
 40
1.0
  9
$ATTMODE
 70
     1
  9
$TEXTSIZE
 40
0.125
  9
$TRACEWID
 40
0.05
  9
$TEXTSTYLE
  7
Standard
  9
$CLAYER
  8
0
  9
$CELTYPE
  6
ByLayer
  9
$CECOLOR
 62
   256
  9
$CELTSCALE
 40
1.0
  9
$DISPSILH
 70
     0
  9
$DIMSCALE
 40
1.0
  9
$DIMASZ
 40
0.13
  9
$DIMEXO
 40
0.05
  9
$DIMDLI
 40
0.38
  9
$DIMRND
 40
0.0
  9
$DIMDLE
 40
0.0
  9
$DIMEXE
 40
0.125
  9
$DIMTP
 40
0.0
  9
$DIMTM
 40
0.0
  9
$DIMTXT
 40
0.125
  9
$DIMCEN
 40
0.09
  9
$DIMTSZ
 40
0.0
  9
$DIMTOL
 70
     0
  9
$DIMLIM
 70
     0
  9
$DIMTIH
 70
     1
  9
$DIMTOH
 70
     1
  9
$DIMSE1
 70
     0
  9
$DIMSE2
 70
     0
  9
$DIMTAD
 70
     0
  9
$DIMZIN
 70
     0
  9
$DIMBLK
  1

  9
$DIMASO
 70
     1
  9
$DIMSHO
 70
     1
  9
$DIMPOST
  1

  9
$DIMAPOST
  1

  9
$DIMALT
 70
     0
  9
$DIMALTD
 70
     2
  9
$DIMALTF
 40
25.4
  9
$DIMLFAC
 40
1.0
  9
$DIMTOFL
 70
     0
  9
$DIMTVP
 40
0.0
  9
$DIMTIX
 70
     0
  9
$DIMSOXD
 70
     0
  9
$DIMSAH
 70
     0
  9
$DIMBLK1
  1

  9
$DIMBLK2
  1

  9
$DIMSTYLE
  2
Standard
  9
$DIMCLRD
 70
     0
  9
$DIMCLRE
 70
     0
  9
$DIMCLRT
 70
     0
  9
$DIMTFAC
 40
1.0
  9
$DIMGAP
 40
0.06
  9
$DIMJUST
 70
     0
  9
$DIMSD1
 70
     0
  9
$DIMSD2
 70
     0
  9
$DIMTOLJ
 70
     1
  9
$DIMTZIN
 70
     0
  9
$DIMALTZ
 70
     0
  9
$DIMALTTZ
 70
     0
  9
$DIMUPT
 70
     0
  9
$DIMDEC
 70
     2
  9
$DIMTDEC
 70
     2
  9
$DIMALTU
 70
     2
  9
$DIMALTTD
 70
     2
  9
$DIMTXSTY
  7
Standard
  9
$DIMAUNIT
 70
     0
  9
$DIMADEC
 70
     2
  9
$DIMALTRND
 40
0.0
  9
$DIMAZIN
 70
     0
  9
$DIMDSEP
 70
    46
  9
$DIMATFIT
 70
     3
  9
$DIMFRAC
 70
     0
  9
$DIMLDRBLK
  1

  9
$DIMLUNIT
 70
     2
  9
$DIMLWD
 70
    -2
  9
$DIMLWE
 70
    -2
  9
$DIMTMOVE
 70
     0
  9
$LUNITS
 70
     2
  9
$LUPREC
 70
     2
  9
$SKETCHINC
 40
0.1
  9
$FILLETRAD
 40
0.5
  9
$AUNITS
 70
     0
  9
$AUPREC
 70
     2
  9
$MENU
  1
.
  9
$ELEVATION
 40
0.0
  9
$PELEVATION
 40
0.0
  9
$THICKNESS
 40
0.0
  9
$LIMCHECK
 70
     0
  9
$CHAMFERA
 40
0.0
  9
$CHAMFERB
 40
0.0
  9
$CHAMFERC
 40
0.0
  9
$CHAMFERD
 40
0.0
  9
$SKPOLY
 70
     0
  9
$TDCREATE
 40
2457231.585389109
  9
$TDUCREATE
 40
2457231.752055775
  9
$TDUPDATE
 40
2457231.585389456
  9
$TDUUPDATE
 40
2457231.752056123
  9
$TDINDWG
 40
0.0000000116
  9
$TDUSRTIMER
 40
0.0000000116
  9
$USRTIMER
 70
     1
  9
$ANGBASE
 50
0.0
  9
$ANGDIR
 70
     0
  9
$PDMODE
 70
     0
  9
$PDSIZE
 40
-1.0
  9
$PLINEWID
 40
0.0
  9
$SPLFRAME
 70
     0
  9
$SPLINETYPE
 70
     6
  9
$SPLINESEGS
 70
     8
  9
$HANDSEED
  5
2E1
  9
$SURFTAB1
 70
     6
  9
$SURFTAB2
 70
     6
  9
$SURFTYPE
 70
     6
  9
$SURFU
 70
     6
  9
$SURFV
 70
     6
  9
$UCSBASE
  2

  9
$UCSNAME
  2

  9
$UCSORG
 10
0.0
 20
0.0
 30
0.0
  9
$UCSXDIR
 10
1.0
 20
0.0
 30
0.0
  9
$UCSYDIR
 10
0.0
 20
1.0
 30
0.0
  9
$UCSORTHOREF
  2

  9
$UCSORTHOVIEW
 70
     0
  9
$UCSORGTOP
 10
0.0
 20
0.0
 30
0.0
  9
$UCSORGBOTTOM
 10
0.0
 20
0.0
 30
0.0
  9
$UCSORGLEFT
 10
0.0
 20
0.0
 30
0.0
  9
$UCSORGRIGHT
 10
0.0
 20
0.0
 30
0.0
  9
$UCSORGFRONT
 10
0.0
 20
0.0
 30
0.0
  9
$UCSORGBACK
 10
0.0
 20
0.0
 30
0.0
  9
$PUCSBASE
  2

  9
$PUCSNAME
  2

  9
$PUCSORG
 10
0.0
 20
0.0
 30
0.0
  9
$PUCSXDIR
 10
1.0
 20
0.0
 30
0.0
  9
$PUCSYDIR
 10
0.0
 20
1.0
 30
0.0
  9
$PUCSORTHOREF
  2

  9
$PUCSORTHOVIEW
 70
     0
  9
$PUCSORGTOP
 10
0.0
 20
0.0
 30
0.0
  9
$PUCSORGBOTTOM
 10
0.0
 20
0.0
 30
0.0
  9
$PUCSORGLEFT
 10
0.0
 20
0.0
 30
0.0
  9
$PUCSORGRIGHT
 10
0.0
 20
0.0
 30
0.0
  9
$PUCSORGFRONT
 10
0.0
 20
0.0
 30
0.0
  9
$PUCSORGBACK
 10
0.0
 20
0.0
 30
0.0
  9
$USERI1
 70
     0
  9
$USERI2
 70
     0
  9
$USERI3
 70
     0
  9
$USERI4
 70
     0
  9
$USERI5
 70
     0
  9
$USERR1
 40
0.0
  9
$USERR2
 40
0.0
  9
$USERR3
 40
0.0
  9
$USERR4
 40
0.0
  9
$USERR5
 40
0.0
  9
$WORLDVIEW
 70
     1
  9
$SHADEDGE
 70
     3
  9
$SHADEDIF
 70
    70
  9
$TILEMODE
 70
     1
  9
$MAXACTVP
 70
    64
  9
$PINSBASE
 10
0.0
 20
0.0
 30
0.0
  9
$PLIMCHECK
 70
     0
  9
$PEXTMIN
 10
1.0000000000E+20
 20
1.0000000000E+20
 30
1.0000000000E+20
  9
$PEXTMAX
 10
-1.0000000000E+20
 20
-1.0000000000E+20
 30
-1.0000000000E+20
  9
$PLIMMIN
 10
0.0
 20
0.0
  9
$PLIMMAX
 10
12.0
 20
9.0
  9
$UNITMODE
 70
     0
  9
$VISRETAIN
 70
     1
  9
$PLINEGEN
 70
     0
  9
$PSLTSCALE
 70
     1
  9
$TREEDEPTH
 70
  3020
  9
$CMLSTYLE
  2
Standard
  9
$CMLJUST
 70
     0
  9
$CMLSCALE
 40
1.0
  9
$PROXYGRAPHICS
 70
     1
  9
$MEASUREMENT
 70
     0
  9
$CELWEIGHT
370
    -1
  9
$ENDCAPS
280
     0
  9
$JOINSTYLE
280
     0
  9
$LWDISPLAY
290
     1
  9
$INSUNITS
 70
     1
  9
$HYPERLINKBASE
  1

  9
$STYLESHEET
  1

  9
$XEDIT
290
     1
  9
$CEPSNTYPE
380
     0
  9
$PSTYLEMODE
290
     1
  9
$FINGERPRINTGUID
  2
{7204EF8C-536C-4409-9BCF-D6B3D3A584A3}
  9
$VERSIONGUID
  2
{FAEB1C32-E019-11D5-929B-00C0DF256EC4}
  9
$EXTNAMES
290
     1
  9
$PSVPSCALE
 40
0.0
  9
$OLESTARTUP
290
     0
  0
ENDSEC
  0
SECTION
  2
CLASSES
  0
CLASS
  1
ACDBDICTIONARYWDFLT
  2
AcDbDictionaryWithDefault
  3
ObjectDBX Classes
 90
        0
280
     0
281
     0
  0
CLASS
  1
VISUALSTYLE
  2
AcDbVisualStyle
  3
ObjectDBX Classes
 90
     4095
280
     0
281
     0
  0
CLASS
  1
MATERIAL
  2
AcDbMaterial
  3
ObjectDBX Classes
 90
     1153
280
     0
281
     0
  0
CLASS
  1
SCALE
  2
AcDbScale
  3
ObjectDBX Classes
 90
     1153
280
     0
281
     0
  0
CLASS
  1
SUN
  2
AcDbSun
  3
SCENEOE
 90
     1153
280
     0
281
     0
  0
CLASS
  1
ACDBPLACEHOLDER
  2
AcDbPlaceHolder
  3
ObjectDBX Classes
 90
        0
280
     0
281
     0
  0
CLASS
  1
LAYOUT
  2
AcDbLayout
  3
ObjectDBX Classes
 90
        0
280
     0
281
     0
  0
ENDSEC
  0
SECTION
  2
TABLES
  0
TABLE
  2
VPORT
  5
8
330
0
100
AcDbSymbolTable
 70
     1
  0
VPORT
  5
29
330
8
100
AcDbSymbolTableRecord
100
AcDbViewportTableRecord
  2
*Active
 70
     0
 10
0.0
 20
0.0
 11
1.0
 21
1.0
 12
12.0
 22
12.0
 13
0.0
 23
0.0
 14
0.5
 24
0.5
 15
0.5
 25
0.5
 16
0.0
 26
0.0
 36
1.0
 17
0.0
 27
0.0
 37
0.0
 40
24.0
 41
1.0
 42
50.0
 43
0.0
 44
0.0
 50
0.0
 51
0.0
 71
     0
 72
  2000
 73
     1
 74
     3
 75
     0
 76
     0
 77
     0
 78
     0
281
     0
 65
     1
110
0.0
120
0.0
130
0.0
111
1.0
121
0.0
131
0.0
112
0.0
122
1.0
132
0.0
 79
     0
146
0.0
  0
ENDTAB
  0
TABLE
  2
LTYPE
  5
5
330
0
100
AcDbSymbolTable
 70
     6
  0
LTYPE
  5
14
330
5
100
AcDbSymbolTableRecord
100
AcDbLinetypeTableRecord
  2
ByBlock
 70
     0
  3

 72
    65
 73
     0
 40
0.0
  0
LTYPE
  5
15
330
5
100
AcDbSymbolTableRecord
100
AcDbLinetypeTableRecord
  2
ByLayer
 70
     0
  3

 72
    65
 73
     0
 40
0.0
  0
LTYPE
  5
16
330
5
100
AcDbSymbolTableRecord
100
AcDbLinetypeTableRecord
  2
Continuous
 70
     0
  3
Solid line
 72
    65
 73
     0
 40
0.0
  0
LTYPE
  5
6A
330
5
100
AcDbSymbolTableRecord
100
AcDbLinetypeTableRecord
  2
HIDDEN
 70
     0
  3
Hidden __ __ __ __ __ __ __ __ __ __ __ __ __ __
 72
    65
 73
     2
 40
0.075
 49
0.05
 74
     0
 49
-0.025
 74
     0
  0
LTYPE
  5
6B
330
5
100
AcDbSymbolTableRecord
100
AcDbLinetypeTableRecord
  2
PHANTOM
 70
     0
  3
Phantom ______  __  __  ______  __  __  ______
 72
    65
 73
     6
 40
0.5
 49
0.25
 74
     0
 49
-0.05
 74
     0
 49
0.05
 74
     0
 49
-0.05
 74
     0
 49
0.05
 74
     0
 49
-0.05
 74
     0
  0
LTYPE
  5
6C
330
5
100
AcDbSymbolTableRecord
100
AcDbLinetypeTableRecord
  2
CENTER
 70
     0
  3
Center ____ _ ____ _ ____ _ ____ _ ____ _ ____
 72
    65
 73
     4
 40
0.4
 49
0.25
 74
     0
 49
-0.05
 74
     0
 49
0.05
 74
     0
 49
-0.05
 74
     0
  0
LTYPE
  5
6D
330
5
100
AcDbSymbolTableRecord
100
AcDbLinetypeTableRecord
  2
CENTERX2
 70
     0
  3
Center (2x) ________  __  ________  __  _____
 72
    65
 73
     4
 40
0.8
 49
0.5
 74
     0
 49
-0.1
 74
     0
 49
0.1
 74
     0
 49
-0.1
 74
     0
  0
LTYPE
  5
6E
330
5
100
AcDbSymbolTableRecord
100
AcDbLinetypeTableRecord
  2
DOT2
 70
     0
  3
Dot (.5x) ........................................
 72
    65
 73
     2
 40
0.025
 49
0.0
 74
     0
 49
-0.025
 74
     0
  0
ENDTAB
  0
TABLE
  2
LAYER
  5
2
330
0
100
AcDbSymbolTable
 70
     1
  0
LAYER
  5
10
330
2
100
AcDbSymbolTableRecord
100
AcDbLayerTableRecord
  2
0
 70
     0
 62
     7
  6
Continuous
370
    -3
390
F
  0
ENDTAB
  0
TABLE
  2
STYLE
  5
3
330
0
100
AcDbSymbolTable
 70
     2
  0
STYLE
  5
11
330
3
100
AcDbSymbolTableRecord
100
AcDbTextStyleTableRecord
  2
Standard
 70
     0
 40
0.0
 41
1.0
 50
0.0
 71
     0
 42
0.125
  3
txt
  4

  0
STYLE
  5
2DE
330
3
100
AcDbSymbolTableRecord
100
AcDbTextStyleTableRecord
  2
SLDTEXTSTYLE0
 70
     0
 40
0.0
 41
0.7
 50
0.0
 71
     0
 42
0.125
  3
TXT
  4

  0
ENDTAB
  0
TABLE
  2
VIEW
  5
6
330
0
100
AcDbSymbolTable
 70
     0
  0
ENDTAB
  0
TABLE
  2
UCS
  5
7
330
0
100
AcDbSymbolTable
 70
     0
  0
ENDTAB
  0
TABLE
  2
APPID
  5
9
330
0
100
AcDbSymbolTable
 70
     1
  0
APPID
  5
12
330
9
100
AcDbSymbolTableRecord
100
AcDbRegAppTableRecord
  2
ACAD
 70
     0
  0
ENDTAB
  0
TABLE
  2
DIMSTYLE
  5
A
330
0
100
AcDbSymbolTable
 70
     1
100
AcDbDimStyleTable
  0
DIMSTYLE
105
27
330
A
100
AcDbSymbolTableRecord
100
AcDbDimStyleTableRecord
  2
Standard
 70
     0
178
     0
340
11
  0
ENDTAB
  0
TABLE
  2
BLOCK_RECORD
  5
1
330
0
100
AcDbSymbolTable
 70
     1
  0
BLOCK_RECORD
  5
1F
330
1
100
AcDbSymbolTableRecord
100
AcDbBlockTableRecord
  2
*Model_Space
340
22
  0
BLOCK_RECORD
  5
1B
330
1
100
AcDbSymbolTableRecord
100
AcDbBlockTableRecord
  2
*Paper_Space
340
1E
  0
BLOCK_RECORD
  5
23
330
1
100
AcDbSymbolTableRecord
100
AcDbBlockTableRecord
  2
*Paper_Space0
340
26
  0
ENDTAB
  0
ENDSEC
  0
SECTION
  2
BLOCKS
  0
BLOCK
  5
20
330
1F
100
AcDbEntity
  8
0
100
AcDbBlockBegin
  2
*Model_Space
 70
     0
 10
0.0
 20
0.0
 30
0.0
  3
*Model_Space
  1
*Model_Space
  0
ENDBLK
  5
21
330
1F
100
AcDbEntity
  8
0
100
AcDbBlockEnd
  0
BLOCK
  5
1C
330
1B
100
AcDbEntity
 67
     1
  8
0
100
AcDbBlockBegin
  2
*Paper_Space
 70
     0
 10
0.0
 20
0.0
 30
0.0
  3
*Paper_Space
  1
*Paper_Space
  0
ENDBLK
  5
1D
330
1B
100
AcDbEntity
 67
     1
  8
0
100
AcDbBlockEnd
  0
BLOCK
  5
24
330
23
100
AcDbEntity
  8
0
100
AcDbBlockBegin
  2
*Paper_Space0
 70
     0
 10
0.0
 20
0.0
 30
0.0
  3
*Paper_Space0
  1
*Paper_Space0
  0
ENDBLK
  5
25
330
23
100
AcDbEntity
  8
0
100
AcDbBlockEnd
  0
ENDSEC
  0
SECTION
  2
ENTITIES
  0
LINE
  5
6F
330
1F
100
AcDbEntity
  8
0
  6
Continuous
 62
     7
100
AcDbLine
 10
0.01472996
 20
0.0177268507
 30
0.0
 11
24.01472996
 21
0.0177268507
 31
0.0
  0
LINE
  5
70
330
1F
100
AcDbEntity
  8
0
  6
Continuous
 62
     7
100
AcDbLine
 10
0.01472996
 20
0.0177268507
 30
0.0
 11
0.01472996
 21
12.0177268507
 31
0.0
  0
LINE
  5
71
330
1F
100
AcDbEntity
  8
0
  6
Continuous
 62
     7
100
AcDbLine
 10
0.01472996
 20
12.0177268507
 30
0.0
 11
24.01472996
 21
12.0177268507
 31
0.0
  0
LINE
  5
72
330
1F
100
AcDbEntity
  8
0
  6
Continuous
 62
     7
100
AcDbLine
 10
24.01472996
 20
0.0177268507
 30
0.0
 11
24.01472996
 21
12.0177268507
 31
0.0
  0
ARC
  5
73
330
1F
100
AcDbEntity
  8
0
  6
Continuous
 62
     7
370
    15
100
AcDbCircle
 10
5.5515727901
 20
1.2077268507
 30
0.0
 40
0.3749999999999999
100
AcDbArc
 50
27.3954440138
 51
140.0
  0
CIRCLE
  5
74
330
1F
100
AcDbEntity
  8
0
  6
Continuous
 62
     7
370
    15
100
AcDbCircle
 10
5.5515727901
 20
1.2077268507
 30
0.0
 40
0.125
  0
LINE
  5
75
330
1F
100
AcDbEntity
  8
0
  6
Continuous
 62
     7
370
    15
100
AcDbLine
 10
6.4610956591
 20
0.2677268507
 30
0.0
 11
4.2732913328
 21
0.2677268507
 31
0.0
  0
LINE
  5
76
330
1F
100
AcDbEntity
  8
0
  6
Continuous
 62
     7
370
    15
100
AcDbLine
 10
6.4610956591
 20
0.2677268507
 30
0.0
 11
5.8845175198
 21
1.3802752651
 31
0.0
  0
LINE
  5
77
330
1F
100
AcDbEntity
  8
0
  6
Continuous
 62
     7
370
    15
100
AcDbLine
 10
5.2643059645
 20
1.4487722071
 30
0.0
 11
4.2732913328
 21
0.2677268507
 31
0.0
  0
ARC
  5
78
330
1F
100
AcDbEntity
  8
0
  6
Continuous
 62
     7
370
    15
100
AcDbCircle
 10
5.5515727901
 20
2.7762307877
 30
0.0
 40
0.3749999999999999
100
AcDbArc
 50
27.3954440138
 51
140.0
  0
LINE
  5
79
330
1F
100
AcDbEntity
  8
0
  6
Continuous
 62
     7
370
    15
100
AcDbLine
 10
6.4610956591
 20
1.8362308512
 30
0.0
 11
4.2732913328
 21
1.8362308512
 31
0.0
  0
CIRCLE
  5
7A
330
1F
100
AcDbEntity
  8
0
  6
Continuous
 62
     7
370
    15
100
AcDbCircle
 10
5.5515727901
 20
2.7762307877
 30
0.0
 40
0.125
  0
LINE
  5
7B
330
1F
100
AcDbEntity
  8
0
  6
Continuous
 62
     7
370
    15
100
AcDbLine
 10
6.4610956591
 20
1.8362308512
 30
0.0
 11
5.8845175198
 21
2.9487792656
 31
0.0
  0
LINE
  5
7C
330
1F
100
AcDbEntity
  8
0
  6
Continuous
 62
     7
370
    15
100
AcDbLine
 10
5.2643059645
 20
3.0172762077
 30
0.0
 11
4.2732913328
 21
1.8362308512
 31
0.0
  0
ARC
  5
7D
330
1F
100
AcDbEntity
  8
0
  6
Continuous
 62
     7
370
    15
100
AcDbCircle
 10
5.5515727901
 20
5.9132386617
 30
0.0
 40
0.3749999999999999
100
AcDbArc
 50
27.3954440138
 51
140.0
  0
LINE
  5
7E
330
1F
100
AcDbEntity
  8
0
  6
Continuous
 62
     7
370
    15
100
AcDbLine
 10
5.2643059645
 20
6.1542839153
 30
0.0
 11
4.2732913328
 21
4.9732387055
 31
0.0
  0
CIRCLE
  5
7F
330
1F
100
AcDbEntity
  8
0
  6
Continuous
 62
     7
370
    15
100
AcDbCircle
 10
5.5515727901
 20
5.9132386617
 30
0.0
 40
0.125
  0
LINE
  5
80
330
1F
100
AcDbEntity
  8
0
  6
Continuous
 62
     7
370
    15
100
AcDbLine
 10
6.4610956591
 20
4.9732387055
 30
0.0
 11
4.2732913328
 21
4.9732387055
 31
0.0
  0
LINE
  5
81
330
1F
100
AcDbEntity
  8
0
  6
Continuous
 62
     7
370
    15
100
AcDbLine
 10
6.4610956591
 20
4.9732387055
 30
0.0
 11
5.8845175198
 21
6.0857872666
 31
0.0
  0
ARC
  5
82
330
1F
100
AcDbEntity
  8
0
  6
Continuous
 62
     7
370
    15
100
AcDbCircle
 10
5.5515727901
 20
4.3447347247
 30
0.0
 40
0.3749999999999999
100
AcDbArc
 50
27.3954440138
 51
140.0
  0
LINE
  5
83
330
1F
100
AcDbEntity
  8
0
  6
Continuous
 62
     7
370
    15
100
AcDbLine
 10
6.4610956591
 20
3.4047348517
 30
0.0
 11
5.8845175198
 21
4.5172831194
 31
0.0
  0
LINE
  5
84
330
1F
100
AcDbEntity
  8
0
  6
Continuous
 62
     7
370
    15
100
AcDbLine
 10
5.2643059645
 20
4.5857800615
 30
0.0
 11
4.2732913328
 21
3.4047348517
 31
0.0
  0
CIRCLE
  5
85
330
1F
100
AcDbEntity
  8
0
  6
Continuous
 62
     7
370
    15
100
AcDbCircle
 10
5.5515727901
 20
4.3447347247
 30
0.0
 40
0.125
  0
LINE
  5
86
330
1F
100
AcDbEntity
  8
0
  6
Continuous
 62
     7
370
    15
100
AcDbLine
 10
6.4610956591
 20
3.4047348517
 30
0.0
 11
4.2732913328
 21
3.4047348517
 31
0.0
  0
ARC
  5
87
330
1F
100
AcDbEntity
  8
0
  6
Continuous
 62
     7
370
    15
100
AcDbCircle
 10
6.5144811633
 20
6.9858936499
 30
0.0
 40
0.3750000000000037
100
AcDbArc
 50
40.5550435356
 51
140.5550435356
  0
LINE
  5
88
330
1F
100
AcDbEntity
  8
0
  6
Continuous
 62
     7
370
    15
100
AcDbLine
 10
6.7993995376
 20
7.2297106919
 30
0.0
 11
7.3010477159
 21
6.6434972506
 31
0.0
  0
LINE
  5
89
330
1F
100
AcDbEntity
  8
0
  6
Continuous
 62
     7
370
    15
100
AcDbLine
 10
7.3010477159
 20
6.6434972506
 30
0.0
 11
5.7346957305
 21
6.6283227059
 31
0.0
  0
LINE
  5
8A
330
1F
100
AcDbEntity
  8
0
  6
Continuous
 62
     7
370
    15
100
AcDbLine
 10
5.7346957305
 20
6.6283227059
 30
0.0
 11
6.2248928944
 21
7.2241450495
 31
0.0
  0
CIRCLE
  5
8B
330
1F
100
AcDbEntity
  8
0
  6
Continuous
 62
     7
370
    15
100
AcDbCircle
 10
6.5144811633
 20
6.9858936499
 30
0.0
 40
0.0480900059046687
  0
ARC
  5
8C
330
1F
100
AcDbEntity
  8
0
  6
Continuous
 62
     7
370
    15
100
AcDbCircle
 10
19.9769212959
 20
10.4838579456
 30
0.0
 40
0.3750000000000073
100
AcDbArc
 50
219.3730239289
 51
319.3730239289
  0
LINE
  5
8D
330
1F
100
AcDbEntity
  8
0
  6
Continuous
 62
     7
370
    15
100
AcDbLine
 10
19.6870336986
 20
10.2459703012
 30
0.0
 11
19.1975856994
 21
10.8424074644
 31
0.0
  0
LINE
  5
8E
330
1F
100
AcDbEntity
  8
0
  6
Continuous
 62
     7
370
    15
100
AcDbLine
 10
19.1975856994
 20
10.8424074644
 30
0.0
 11
20.7639171517
 21
10.8252664357
 31
0.0
  0
LINE
  5
8F
330
1F
100
AcDbEntity
  8
0
  6
Continuous
 62
     7
370
    15
100
AcDbLine
 10
20.7639171517
 20
10.8252664357
 30
0.0
 11
20.2615321286
 21
10.2396836538
 31
0.0
  0
CIRCLE
  5
90
330
1F
100
AcDbEntity
  8
0
  6
Continuous
 62
     7
370
    15
100
AcDbCircle
 10
19.9769212959
 20
10.4838579456
 30
0.0
 40
0.0480900059046646
  0
ARC
  5
91
330
1F
100
AcDbEntity
  8
0
  6
Continuous
 62
     7
370
    15
100
AcDbCircle
 10
17.1357468537
 20
1.2454651596
 30
0.0
 40
0.3750000000000053
100
AcDbArc
 50
92.3406435577
 51
192.3406435577
  0
LINE
  5
92
330
1F
100
AcDbEntity
  8
0
  6
Continuous
 62
     7
370
    15
100
AcDbLine
 10
17.1204318815
 20
1.6201522807
 30
0.0
 11
17.8913428692
 21
1.6516631033
 31
0.0
  0
LINE
  5
93
330
1F
100
AcDbEntity
  8
0
  6
Continuous
 62
     7
370
    15
100
AcDbLine
 10
17.8913428692
 20
1.6516631033
 30
0.0
 11
16.9343105116
 21
0.4115913471
 31
0.0
  0
LINE
  5
94
330
1F
100
AcDbEntity
  8
0
  6
Continuous
 62
     7
370
    15
100
AcDbLine
 10
16.9343105116
 20
0.4115913471
 30
0.0
 11
16.7694109765
 21
1.1653189016
 31
0.0
  0
CIRCLE
  5
95
330
1F
100
AcDbEntity
  8
0
  6
Continuous
 62
     7
370
    15
100
AcDbCircle
 10
17.1357468537
 20
1.2454651596
 30
0.0
 40
0.0480900059046678
  0
ARC
  5
96
330
1F
100
AcDbEntity
  8
0
  6
Continuous
 62
     7
370
    15
100
AcDbCircle
 10
17.1044975129
 20
2.9168111289
 30
0.0
 40
0.3750000000000055
100
AcDbArc
 50
90.7204856461
 51
190.7204856461
  0
LINE
  5
97
330
1F
100
AcDbEntity
  8
0
  6
Continuous
 62
     7
370
    15
100
AcDbLine
 10
17.0997826267
 20
3.2917814099
 30
0.0
 11
17.871275581
 21
3.3014832978
 31
0.0
  0
LINE
  5
98
330
1F
100
AcDbEntity
  8
0
  6
Continuous
 62
     7
370
    15
100
AcDbLine
 10
17.871275581
 20
3.3014832978
 30
0.0
 11
16.8795657574
 21
2.0889659849
 31
0.0
  0
LINE
  5
99
330
1F
100
AcDbEntity
  8
0
  6
Continuous
 62
     7
370
    15
100
AcDbLine
 10
16.8795657574
 20
2.0889659849
 30
0.0
 11
16.7360429354
 21
2.8470544941
 31
0.0
  0
CIRCLE
  5
9A
330
1F
100
AcDbEntity
  8
0
  6
Continuous
 62
     7
370
    15
100
AcDbCircle
 10
17.1044975129
 20
2.9168111289
 30
0.0
 40
0.0480900059046662
  0
ARC
  5
9B
330
1F
100
AcDbEntity
  8
0
  6
Continuous
 62
     7
370
    15
100
AcDbCircle
 10
20.2415693199
 20
2.9593638695
 30
0.0
 40
0.3750000000000009
100
AcDbArc
 50
198.4630498501
 51
298.4630498501
  0
LINE
  5
9C
330
1F
100
AcDbEntity
  8
0
  6
Continuous
 62
     7
370
    15
100
AcDbLine
 10
19.8858715083
 20
2.8406038753
 30
0.0
 11
19.6415253176
 21
3.5724453676
 31
0.0
  0
LINE
  5
9D
330
1F
100
AcDbEntity
  8
0
  6
Continuous
 62
     7
370
    15
100
AcDbLine
 10
21.0985831522
 20
2.9974089705
 30
0.0
 11
20.4202916813
 21
2.6296921651
 31
0.0
  0
CIRCLE
  5
9E
330
1F
100
AcDbEntity
  8
0
  6
Continuous
 62
     7
370
    15
100
AcDbCircle
 10
20.2415693199
 20
2.9593638695
 30
0.0
 40
0.0480900059046685
  0
LINE
  5
9F
330
1F
100
AcDbEntity
  8
0
  6
Continuous
 62
     7
370
    15
100
AcDbLine
 10
19.6415253176
 20
3.5724453676
 30
0.0
 11
21.0985831522
 21
2.9974089705
 31
0.0
  0
ARC
  5
A0
330
1F
100
AcDbEntity
  8
0
  6
Continuous
 62
     7
370
    15
100
AcDbCircle
 10
20.6498071533
 20
1.9546761457
 30
0.0
 40
0.3750000000000024
100
AcDbArc
 50
252.0457465719
 51
352.0457465719
  0
LINE
  5
A1
330
1F
100
AcDbEntity
  8
0
  6
Continuous
 62
     7
370
    15
100
AcDbLine
 10
20.5342116453
 20
1.597937524
 30
0.0
 11
19.800228551
 21
1.8357751631
 31
0.0
  0
LINE
  5
A2
330
1F
100
AcDbEntity
  8
0
  6
Continuous
 62
     7
370
    15
100
AcDbLine
 10
19.800228551
 20
1.8357751631
 30
0.0
 11
21.1279677728
 21
2.6669144151
 31
0.0
  0
LINE
  5
A3
330
1F
100
AcDbEntity
  8
0
  6
Continuous
 62
     7
370
    15
100
AcDbLine
 10
21.1279677728
 20
2.6669144151
 30
0.0
 11
21.0212003662
 21
1.9027827224
 31
0.0
  0
CIRCLE
  5
A4
330
1F
100
AcDbEntity
  8
0
  6
Continuous
 62
     7
370
    15
100
AcDbCircle
 10
20.6498071533
 20
1.9546761457
 30
0.0
 40
0.0480900059046703
  0
ARC
  5
A5
330
1F
100
AcDbEntity
  8
0
  6
Continuous
 62
     7
370
    15
100
AcDbCircle
 10
18.725428841
 20
11.4640966291
 30
0.0
 40
0.3750000000000041
100
AcDbArc
 50
39.3730239289
 51
139.3730239289
  0
LINE
  5
A6
330
1F
100
AcDbEntity
  8
0
  6
Continuous
 62
     7
370
    15
100
AcDbLine
 10
19.0153163383
 20
11.7019838812
 30
0.0
 11
19.5047643375
 21
11.1055467179
 31
0.0
  0
LINE
  5
A7
330
1F
100
AcDbEntity
  8
0
  6
Continuous
 62
     7
370
    15
100
AcDbLine
 10
19.5047643375
 20
11.1055467179
 30
0.0
 11
17.9384328852
 21
11.1226877466
 31
0.0
  0
CIRCLE
  5
A8
330
1F
100
AcDbEntity
  8
0
  6
Continuous
 62
     7
370
    15
100
AcDbCircle
 10
18.725428841
 20
11.4640966291
 30
0.0
 40
0.0480900059046682
  0
LINE
  5
A9
330
1F
100
AcDbEntity
  8
0
  6
Continuous
 62
     7
370
    15
100
AcDbLine
 10
17.9384328852
 20
11.1226877466
 30
0.0
 11
18.440816735
 21
11.7082705285
 31
0.0
  0
ARC
  5
AA
330
1F
100
AcDbEntity
  8
0
  6
Continuous
 62
     7
370
    15
100
AcDbCircle
 10
21.4744365366
 20
7.8841711226
 30
0.0
 40
0.3750000000000063
100
AcDbArc
 50
212.1630744838
 51
312.1630744838
  0
LINE
  5
AB
330
1F
100
AcDbEntity
  8
0
  6
Continuous
 62
     7
370
    15
100
AcDbLine
 10
21.1569863176
 20
7.6845469309
 30
0.0
 11
20.7462633823
 21
8.3376965057
 31
0.0
  0
LINE
  5
AC
330
1F
100
AcDbEntity
  8
0
  6
Continuous
 62
     7
370
    15
100
AcDbLine
 10
20.7462633823
 20
8.3376965057
 30
0.0
 11
22.2980585758
 21
8.1241077198
 31
0.0
  0
LINE
  5
AD
330
1F
100
AcDbEntity
  8
0
  6
Continuous
 62
     7
370
    15
100
AcDbLine
 10
22.2980585758
 20
8.1241077198
 30
0.0
 11
21.7261520092
 21
7.6062073026
 31
0.0
  0
CIRCLE
  5
AE
330
1F
100
AcDbEntity
  8
0
  6
Continuous
 62
     7
370
    15
100
AcDbCircle
 10
21.4744365366
 20
7.8841711226
 30
0.0
 40
0.0480900059046686
  0
ARC
  5
AF
330
1F
100
AcDbEntity
  8
0
  6
Continuous
 62
     7
370
    15
100
AcDbCircle
 10
21.483403918
 20
8.8552680035
 30
0.0
 40
0.3750000000000054
100
AcDbArc
 50
30.5420830671
 51
130.5420830671
  0
LINE
  5
B0
330
1F
100
AcDbEntity
  8
0
  6
Continuous
 62
     7
370
    15
100
AcDbLine
 10
21.8063742291
 20
9.0458319519
 30
0.0
 11
22.1984578064
 21
8.381325815
 31
0.0
  0
CIRCLE
  5
B1
330
1F
100
AcDbEntity
  8
0
  6
Continuous
 62
     7
370
    15
100
AcDbCircle
 10
21.483403918
 20
8.8552680035
 30
0.0
 40
0.0480900059046678
  0
LINE
  5
B2
330
1F
100
AcDbEntity
  8
0
  6
Continuous
 62
     7
370
    15
100
AcDbLine
 10
20.6533247226
 20
8.6387257749
 30
0.0
 11
21.2396513893
 21
9.140241368
 31
0.0
  0
LINE
  5
B3
330
1F
100
AcDbEntity
  8
0
  6
Continuous
 62
     7
370
    15
100
AcDbLine
 10
22.1984578064
 20
8.381325815
 30
0.0
 11
20.6533247226
 21
8.6387257749
 31
0.0
  0
ARC
  5
B4
330
1F
100
AcDbEntity
  8
0
  6
Continuous
 62
     7
370
    15
100
AcDbCircle
 10
22.4048137036
 20
9.3597429947
 30
0.0
 40
0.3750000000000057
100
AcDbArc
 50
233.5352358914
 51
333.5352358914
  0
LINE
  5
B5
330
1F
100
AcDbEntity
  8
0
  6
Continuous
 62
     7
370
    15
100
AcDbLine
 10
22.1819398106
 20
9.0581594362
 30
0.0
 11
21.561439032
 21
9.5167162722
 31
0.0
  0
LINE
  5
B6
330
1F
100
AcDbEntity
  8
0
  6
Continuous
 62
     7
370
    15
100
AcDbLine
 10
21.561439032
 20
9.5167162722
 30
0.0
 11
23.0843588257
 21
9.8833276638
 31
0.0
  0
LINE
  5
B7
330
1F
100
AcDbEntity
  8
0
  6
Continuous
 62
     7
370
    15
100
AcDbLine
 10
23.0843588257
 20
9.8833276638
 30
0.0
 11
22.7405174645
 21
9.1926254028
 31
0.0
  0
CIRCLE
  5
B8
330
1F
100
AcDbEntity
  8
0
  6
Continuous
 62
     7
370
    15
100
AcDbCircle
 10
22.4048137036
 20
9.3597429947
 30
0.0
 40
0.0480900059046717
  0
ARC
  5
B9
330
1F
100
AcDbEntity
  8
0
  6
Continuous
 62
     7
370
    15
100
AcDbCircle
 10
19.9769212959
 20
11.4523618826
 30
0.0
 40
0.3750000000000073
100
AcDbArc
 50
219.3730239289
 51
319.3730239289
  0
LINE
  5
BA
330
1F
100
AcDbEntity
  8
0
  6
Continuous
 62
     7
370
    15
100
AcDbLine
 10
19.6870336986
 20
11.2144742063
 30
0.0
 11
19.1975856994
 21
11.8109113695
 31
0.0
  0
LINE
  5
BB
330
1F
100
AcDbEntity
  8
0
  6
Continuous
 62
     7
370
    15
100
AcDbLine
 10
19.1975856994
 20
11.8109113695
 30
0.0
 11
20.7639171517
 21
11.7937703408
 31
0.0
  0
LINE
  5
BC
330
1F
100
AcDbEntity
  8
0
  6
Continuous
 62
     7
370
    15
100
AcDbLine
 10
20.7639171517
 20
11.7937703408
 30
0.0
 11
20.2615321286
 21
11.2081875589
 31
0.0
  0
CIRCLE
  5
BD
330
1F
100
AcDbEntity
  8
0
  6
Continuous
 62
     7
370
    15
100
AcDbCircle
 10
19.9769212959
 20
11.4523618826
 30
0.0
 40
0.0480900059046646
  0
ARC
  5
BE
330
1F
100
AcDbEntity
  8
0
  6
Continuous
 62
     7
370
    15
100
AcDbCircle
 10
20.2271401575
 20
7.872886611
 30
0.0
 40
0.3750000000000059
100
AcDbArc
 50
29.5312206019
 51
129.5312206019
  0
LINE
  5
BF
330
1F
100
AcDbEntity
  8
0
  6
Continuous
 62
     7
370
    15
100
AcDbLine
 10
20.5534235833
 20
8.0577230466
 30
0.0
 11
20.9337199901
 21
7.3864034418
 31
0.0
  0
LINE
  5
C0
330
1F
100
AcDbEntity
  8
0
  6
Continuous
 62
     7
370
    15
100
AcDbLine
 10
20.9337199901
 20
7.3864034418
 30
0.0
 11
19.393370531
 21
7.6710220738
 31
0.0
  0
LINE
  5
C1
330
1F
100
AcDbEntity
  8
0
  6
Continuous
 62
     7
370
    15
100
AcDbLine
 10
19.393370531
 20
7.6710220738
 30
0.0
 11
19.9884536832
 21
8.162115654
 31
0.0
  0
CIRCLE
  5
C2
330
1F
100
AcDbEntity
  8
0
  6
Continuous
 62
     7
370
    15
100
AcDbCircle
 10
20.2271401575
 20
7.872886611
 30
0.0
 40
0.048090005904668
  0
ARC
  5
C3
330
1F
100
AcDbEntity
  8
0
  6
Continuous
 62
     7
370
    15
100
AcDbCircle
 10
20.6936934256
 20
9.4968353915
 30
0.0
 40
0.3750000000000033
100
AcDbArc
 50
216.2415397645
 51
316.2415397645
  0
LINE
  5
C4
330
1F
100
AcDbEntity
  8
0
  6
Continuous
 62
     7
370
    15
100
AcDbLine
 10
20.3912449768
 20
9.2751391163
 30
0.0
 11
19.9351075262
 21
9.8974227543
 31
0.0
  0
LINE
  5
C5
330
1F
100
AcDbEntity
  8
0
  6
Continuous
 62
     7
370
    15
100
AcDbLine
 10
19.9351075262
 20
9.8974227543
 30
0.0
 11
21.4981642429
 21
9.7947426071
 31
0.0
  0
LINE
  5
C6
330
1F
100
AcDbEntity
  8
0
  6
Continuous
 62
     7
370
    15
100
AcDbLine
 10
21.4981642429
 20
9.7947426071
 30
0.0
 11
20.9645407541
 21
9.237477898
 31
0.0
  0
CIRCLE
  5
C7
330
1F
100
AcDbEntity
  8
0
  6
Continuous
 62
     7
370
    15
100
AcDbCircle
 10
20.6936934256
 20
9.4968353915
 30
0.0
 40
0.0480900059046631
  0
ARC
  5
C8
330
1F
100
AcDbEntity
  8
0
  6
Continuous
 62
     7
370
    15
100
AcDbCircle
 10
2.6288855123
 20
10.250867177
 30
0.0
 40
0.3750000000000049
100
AcDbArc
 50
73.1565939592
 51
173.1565939592
  0
LINE
  5
C9
330
1F
100
AcDbEntity
  8
0
  6
Continuous
 62
     7
370
    15
100
AcDbLine
 10
2.7375445139
 20
10.6097792184
 30
0.0
 11
3.4759997165
 21
10.386216041
 31
0.0
  0
LINE
  5
CA
330
1F
100
AcDbEntity
  8
0
  6
Continuous
 62
     7
370
    15
100
AcDbLine
 10
3.4759997165
 20
10.386216041
 30
0.0
 11
2.1646217057
 21
9.5294925513
 31
0.0
  0
LINE
  5
CB
330
1F
100
AcDbEntity
  8
0
  6
Continuous
 62
     7
370
    15
100
AcDbLine
 10
2.1646217057
 20
9.5294925513
 30
0.0
 11
2.2565571769
 21
10.2955512751
 31
0.0
  0
CIRCLE
  5
CC
330
1F
100
AcDbEntity
  8
0
  6
Continuous
 62
     7
370
    15
100
AcDbCircle
 10
2.6288855123
 20
10.250867177
 30
0.0
 40
0.0480900059046692
  0
ARC
  5
CD
330
1F
100
AcDbEntity
  8
0
  6
Continuous
 62
     7
370
    15
100
AcDbCircle
 10
12.6793622628
 20
10.2308031296
 30
0.0
 40
0.3750000000000057
100
AcDbArc
 50
74.3655362751
 51
174.3655362751
  0
LINE
  5
CE
330
1F
100
AcDbEntity
  8
0
  6
Continuous
 62
     7
370
    15
100
AcDbLine
 10
12.7804240977
 20
10.5919283313
 30
0.0
 11
13.5234323677
 21
10.3839949467
 31
0.0
  0
LINE
  5
CF
330
1F
100
AcDbEntity
  8
0
  6
Continuous
 62
     7
370
    15
100
AcDbLine
 10
13.5234323677
 20
10.3839949467
 30
0.0
 11
12.2304210647
 21
9.4997940677
 31
0.0
  0
CIRCLE
  5
D0
330
1F
100
AcDbEntity
  8
0
  6
Continuous
 62
     7
370
    15
100
AcDbCircle
 10
12.6793622628
 20
10.2308031296
 30
0.0
 40
0.0480900059046695
  0
LINE
  5
D1
330
1F
100
AcDbEntity
  8
0
  6
Continuous
 62
     7
370
    15
100
AcDbLine
 10
12.2304210647
 20
9.4997940677
 30
0.0
 11
12.3061741096
 21
10.267621571
 31
0.0
  0
ARC
  5
D2
330
1F
100
AcDbEntity
  8
0
  6
Continuous
 62
     7
370
    15
100
AcDbCircle
 10
21.8668831579
 20
6.2681975595
 30
0.0
 40
0.3750000000000034
100
AcDbArc
 50
305.3286187738
 51
45.3286187738
  0
LINE
  5
D3
330
1F
100
AcDbEntity
  8
0
  6
Continuous
 62
     7
370
    15
100
AcDbLine
 10
22.083732945
 20
5.9622542937
 30
0.0
 11
21.4542609634
 21
5.5160906478
 31
0.0
  0
LINE
  5
D4
330
1F
100
AcDbEntity
  8
0
  6
Continuous
 62
     7
370
    15
100
AcDbLine
 10
21.4542609634
 20
5.5160906478
 30
0.0
 11
21.5818313297
 21
7.0773128791
 31
0.0
  0
LINE
  5
D5
330
1F
100
AcDbEntity
  8
0
  6
Continuous
 62
     7
370
    15
100
AcDbLine
 10
21.5818313297
 20
7.0773128791
 30
0.0
 11
22.1305225912
 21
6.534878932
 31
0.0
  0
CIRCLE
  5
D6
330
1F
100
AcDbEntity
  8
0
  6
Continuous
 62
     7
370
    15
100
AcDbCircle
 10
21.8668831579
 20
6.2681975595
 30
0.0
 40
0.0480900059046688
  0
ARC
  5
D7
330
1F
100
AcDbEntity
  8
0
  6
Continuous
 62
     7
370
    15
100
AcDbCircle
 10
21.8483296119
 20
4.9485084295
 30
0.0
 40
0.3750000000000015
100
AcDbArc
 50
112.4543324226
 51
212.4543324226
  0
LINE
  5
D8
330
1F
100
AcDbEntity
  8
0
  6
Continuous
 62
     7
370
    15
100
AcDbLine
 10
21.7051003057
 20
5.295077681
 30
0.0
 11
22.4181595884
 21
5.5897704366
 31
0.0
  0
LINE
  5
D9
330
1F
100
AcDbEntity
  8
0
  6
Continuous
 62
     7
370
    15
100
AcDbLine
 10
21.9459335769
 20
4.0962203036
 30
0.0
 11
21.5318971866
 21
4.7472731559
 31
0.0
  0
CIRCLE
  5
DA
330
1F
100
AcDbEntity
  8
0
  6
Continuous
 62
     7
370
    15
100
AcDbCircle
 10
21.8483296119
 20
4.9485084295
 30
0.0
 40
0.0480900059046695
  0
LINE
  5
DB
330
1F
100
AcDbEntity
  8
0
  6
Continuous
 62
     7
370
    15
100
AcDbLine
 10
22.4181595884
 20
5.5897704366
 30
0.0
 11
21.9459335769
 21
4.0962203036
 31
0.0
  0
ARC
  5
DC
330
1F
100
AcDbEntity
  8
0
  6
Continuous
 62
     7
370
    15
100
AcDbCircle
 10
22.5454252329
 20
11.4523618826
 30
0.0
 40
0.3750000000000073
100
AcDbArc
 50
219.3730239289
 51
319.3730239289
  0
LINE
  5
DD
330
1F
100
AcDbEntity
  8
0
  6
Continuous
 62
     7
370
    15
100
AcDbLine
 10
22.255537467
 20
11.2144742063
 30
0.0
 11
21.7660894678
 21
11.8109113695
 31
0.0
  0
LINE
  5
DE
330
1F
100
AcDbEntity
  8
0
  6
Continuous
 62
     7
370
    15
100
AcDbLine
 10
21.7660894678
 20
11.8109113695
 30
0.0
 11
23.3324197468
 21
11.7937703408
 31
0.0
  0
LINE
  5
DF
330
1F
100
AcDbEntity
  8
0
  6
Continuous
 62
     7
370
    15
100
AcDbLine
 10
23.3324197468
 20
11.7937703408
 30
0.0
 11
22.8300370703
 21
11.2081875589
 31
0.0
  0
CIRCLE
  5
E0
330
1F
100
AcDbEntity
  8
0
  6
Continuous
 62
     7
370
    15
100
AcDbCircle
 10
22.5454252329
 20
11.4523618826
 30
0.0
 40
0.0480900059046646
  0
ARC
  5
E1
330
1F
100
AcDbEntity
  8
0
  6
Continuous
 62
     7
370
    15
100
AcDbCircle
 10
22.5454252329
 20
10.4838579456
 30
0.0
 40
0.3750000000000073
100
AcDbArc
 50
219.3730239289
 51
319.3730239289
  0
LINE
  5
E2
330
1F
100
AcDbEntity
  8
0
  6
Continuous
 62
     7
370
    15
100
AcDbLine
 10
22.255537467
 20
10.2459703012
 30
0.0
 11
21.7660894678
 21
10.8424074644
 31
0.0
  0
LINE
  5
E3
330
1F
100
AcDbEntity
  8
0
  6
Continuous
 62
     7
370
    15
100
AcDbLine
 10
21.7660894678
 20
10.8424074644
 30
0.0
 11
23.3324197468
 21
10.8252664357
 31
0.0
  0
LINE
  5
E4
330
1F
100
AcDbEntity
  8
0
  6
Continuous
 62
     7
370
    15
100
AcDbLine
 10
23.3324197468
 20
10.8252664357
 30
0.0
 11
22.8300370703
 21
10.2396836538
 31
0.0
  0
CIRCLE
  5
E5
330
1F
100
AcDbEntity
  8
0
  6
Continuous
 62
     7
370
    15
100
AcDbCircle
 10
22.5454252329
 20
10.4838579456
 30
0.0
 40
0.0480900059046646
  0
ARC
  5
E6
330
1F
100
AcDbEntity
  8
0
  6
Continuous
 62
     7
370
    15
100
AcDbCircle
 10
21.293932778
 20
11.4640966291
 30
0.0
 40
0.3750000000000062
100
AcDbArc
 50
39.3730239289
 51
139.3730239289
  0
LINE
  5
E7
330
1F
100
AcDbEntity
  8
0
  6
Continuous
 62
     7
370
    15
100
AcDbLine
 10
21.5838189334
 20
11.7019838812
 30
0.0
 11
22.0732692793
 21
11.1055467179
 31
0.0
  0
LINE
  5
E8
330
1F
100
AcDbEntity
  8
0
  6
Continuous
 62
     7
370
    15
100
AcDbLine
 10
22.0732692793
 20
11.1055467179
 30
0.0
 11
20.5069366537
 21
11.1226877466
 31
0.0
  0
LINE
  5
E9
330
1F
100
AcDbEntity
  8
0
  6
Continuous
 62
     7
370
    15
100
AcDbLine
 10
20.5069366537
 20
11.1226877466
 30
0.0
 11
21.0093216767
 21
11.7082705285
 31
0.0
  0
CIRCLE
  5
EA
330
1F
100
AcDbEntity
  8
0
  6
Continuous
 62
     7
370
    15
100
AcDbCircle
 10
21.293932778
 20
11.4640966291
 30
0.0
 40
0.0480900059046682
  0
ARC
  5
EB
330
1F
100
AcDbEntity
  8
0
  6
Continuous
 62
     7
370
    15
100
AcDbCircle
 10
21.293932778
 20
10.4955926921
 30
0.0
 40
0.3750000000000073
100
AcDbArc
 50
39.3730239289
 51
139.3730239289
  0
LINE
  5
EC
330
1F
100
AcDbEntity
  8
0
  6
Continuous
 62
     7
370
    15
100
AcDbLine
 10
21.5838189334
 20
10.7334799761
 30
0.0
 11
22.0732692793
 21
10.1370428128
 31
0.0
  0
LINE
  5
ED
330
1F
100
AcDbEntity
  8
0
  6
Continuous
 62
     7
370
    15
100
AcDbLine
 10
22.0732692793
 20
10.1370428128
 30
0.0
 11
20.5069366537
 21
10.1541838415
 31
0.0
  0
CIRCLE
  5
EE
330
1F
100
AcDbEntity
  8
0
  6
Continuous
 62
     7
370
    15
100
AcDbCircle
 10
21.293932778
 20
10.4955926921
 30
0.0
 40
0.0480900059046681
  0
LINE
  5
EF
330
1F
100
AcDbEntity
  8
0
  6
Continuous
 62
     7
370
    15
100
AcDbLine
 10
20.5069366537
 20
10.1541838415
 30
0.0
 11
21.0093216767
 21
10.7397666235
 31
0.0
  0
LINE
  5
F0
330
1F
100
AcDbEntity
  8
0
  6
Continuous
 62
     7
370
    15
100
AcDbLine
 10
8.809167254
 20
11.8307252206
 30
0.0
 11
0.3091674713
 21
11.8307252206
 31
0.0
  0
LINE
  5
F1
330
1F
100
AcDbEntity
  8
0
  6
Continuous
 62
     7
370
    15
100
AcDbLine
 10
8.809167254
 20
11.8307252206
 30
0.0
 11
8.809167254
 21
10.8307247194
 31
0.0
  0
LINE
  5
F2
330
1F
100
AcDbEntity
  8
0
  6
Continuous
 62
     7
370
    15
100
AcDbLine
 10
8.809167254
 20
10.8307247194
 30
0.0
 11
0.3091674713
 21
10.8307247194
 31
0.0
  0
LINE
  5
F3
330
1F
100
AcDbEntity
  8
0
  6
Continuous
 62
     7
370
    15
100
AcDbLine
 10
0.3091674713
 20
10.8307247194
 30
0.0
 11
0.3091674713
 21
11.8307252206
 31
0.0
  0
CIRCLE
  5
F4
330
1F
100
AcDbEntity
  8
0
  6
Continuous
 62
     7
370
    15
100
AcDbCircle
 10
8.3241674721
 20
11.255725139
 30
0.0
 40
0.1329999999999991
  0
CIRCLE
  5
F5
330
1F
100
AcDbEntity
  8
0
  6
Continuous
 62
     7
370
    15
100
AcDbCircle
 10
7.5741674721
 20
11.255725139
 30
0.0
 40
0.1329999999999991
  0
CIRCLE
  5
F6
330
1F
100
AcDbEntity
  8
0
  6
Continuous
 62
     7
370
    15
100
AcDbCircle
 10
6.8241674721
 20
11.255725139
 30
0.0
 40
0.1329999999999991
  0
CIRCLE
  5
F7
330
1F
100
AcDbEntity
  8
0
  6
Continuous
 62
     7
370
    15
100
AcDbCircle
 10
6.0741674721
 20
11.255725139
 30
0.0
 40
0.1329999999999991
  0
CIRCLE
  5
F8
330
1F
100
AcDbEntity
  8
0
  6
Continuous
 62
     7
370
    15
100
AcDbCircle
 10
5.3241674721
 20
11.255725139
 30
0.0
 40
0.1329999999999991
  0
CIRCLE
  5
F9
330
1F
100
AcDbEntity
  8
0
  6
Continuous
 62
     7
370
    15
100
AcDbCircle
 10
3.8441674721
 20
11.255725139
 30
0.0
 40
0.1329999999999991
  0
CIRCLE
  5
FA
330
1F
100
AcDbEntity
  8
0
  6
Continuous
 62
     7
370
    15
100
AcDbCircle
 10
3.0941674721
 20
11.255725139
 30
0.0
 40
0.1329999999999991
  0
CIRCLE
  5
FB
330
1F
100
AcDbEntity
  8
0
  6
Continuous
 62
     7
370
    15
100
AcDbCircle
 10
2.3441674721
 20
11.255725139
 30
0.0
 40
0.1329999999999991
  0
CIRCLE
  5
FC
330
1F
100
AcDbEntity
  8
0
  6
Continuous
 62
     7
370
    15
100
AcDbCircle
 10
1.5941674721
 20
11.255725139
 30
0.0
 40
0.1329999999999991
  0
CIRCLE
  5
FD
330
1F
100
AcDbEntity
  8
0
  6
Continuous
 62
     7
370
    15
100
AcDbCircle
 10
0.8441674721
 20
11.255725139
 30
0.0
 40
0.1329999999999991
  0
CIRCLE
  5
FE
330
1F
100
AcDbEntity
  8
0
  6
Continuous
 62
     7
370
    15
100
AcDbCircle
 10
4.5741674721
 20
11.255725139
 30
0.0
 40
0.1329999999999991
  0
LINE
  5
FF
330
1F
100
AcDbEntity
  8
0
  6
Continuous
 62
     7
370
    15
100
AcDbLine
 10
17.6349572444
 20
10.8086932939
 30
0.0
 11
17.6349572444
 21
11.8086926218
 31
0.0
  0
LINE
  5
100
330
1F
100
AcDbEntity
  8
0
  6
Continuous
 62
     7
370
    15
100
AcDbLine
 10
17.6349572444
 20
10.8086932939
 30
0.0
 11
9.1349565038
 21
10.8086932939
 31
0.0
  0
LINE
  5
101
330
1F
100
AcDbEntity
  8
0
  6
Continuous
 62
     7
370
    15
100
AcDbLine
 10
17.6349572444
 20
11.8086926218
 30
0.0
 11
9.1349565038
 21
11.8086926218
 31
0.0
  0
CIRCLE
  5
102
330
1F
100
AcDbEntity
  8
0
  6
Continuous
 62
     7
370
    15
100
AcDbCircle
 10
17.1499567181
 20
11.3836930741
 30
0.0
 40
0.1329999999999991
  0
CIRCLE
  5
103
330
1F
100
AcDbEntity
  8
0
  6
Continuous
 62
     7
370
    15
100
AcDbCircle
 10
16.3999567181
 20
11.3836930741
 30
0.0
 40
0.1329999999999991
  0
CIRCLE
  5
104
330
1F
100
AcDbEntity
  8
0
  6
Continuous
 62
     7
370
    15
100
AcDbCircle
 10
15.6499567181
 20
11.3836930741
 30
0.0
 40
0.1329999999999991
  0
CIRCLE
  5
105
330
1F
100
AcDbEntity
  8
0
  6
Continuous
 62
     7
370
    15
100
AcDbCircle
 10
14.8999567181
 20
11.3836930741
 30
0.0
 40
0.1329999999999991
  0
CIRCLE
  5
106
330
1F
100
AcDbEntity
  8
0
  6
Continuous
 62
     7
370
    15
100
AcDbCircle
 10
14.1499567181
 20
11.3836930741
 30
0.0
 40
0.1329999999999991
  0
CIRCLE
  5
107
330
1F
100
AcDbEntity
  8
0
  6
Continuous
 62
     7
370
    15
100
AcDbCircle
 10
12.6699567181
 20
11.3836930741
 30
0.0
 40
0.1329999999999991
  0
CIRCLE
  5
108
330
1F
100
AcDbEntity
  8
0
  6
Continuous
 62
     7
370
    15
100
AcDbCircle
 10
11.9199567181
 20
11.3836930741
 30
0.0
 40
0.1329999999999991
  0
CIRCLE
  5
109
330
1F
100
AcDbEntity
  8
0
  6
Continuous
 62
     7
370
    15
100
AcDbCircle
 10
11.1699567181
 20
11.3836930741
 30
0.0
 40
0.1329999999999991
  0
CIRCLE
  5
10A
330
1F
100
AcDbEntity
  8
0
  6
Continuous
 62
     7
370
    15
100
AcDbCircle
 10
10.4199567181
 20
11.3836930741
 30
0.0
 40
0.1329999999999991
  0
CIRCLE
  5
10B
330
1F
100
AcDbEntity
  8
0
  6
Continuous
 62
     7
370
    15
100
AcDbCircle
 10
9.6699567181
 20
11.3836930741
 30
0.0
 40
0.1329999999999991
  0
CIRCLE
  5
10C
330
1F
100
AcDbEntity
  8
0
  6
Continuous
 62
     7
370
    15
100
AcDbCircle
 10
13.3999567181
 20
11.3836930741
 30
0.0
 40
0.1329999999999991
  0
LINE
  5
10D
330
1F
100
AcDbEntity
  8
0
  6
Continuous
 62
     7
370
    15
100
AcDbLine
 10
9.1349565038
 20
11.8086926218
 30
0.0
 11
9.1349565038
 21
10.8086932939
 31
0.0
  0
CIRCLE
  5
10E
330
1F
100
AcDbEntity
  8
0
  6
Continuous
 62
     7
370
    15
100
AcDbCircle
 10
18.9043197945
 20
3.4984424788
 30
0.0
 40
0.1249999999999906
  0
LINE
  5
10F
330
1F
100
AcDbEntity
  8
0
  6
Continuous
 62
     7
370
    15
100
AcDbLine
 10
19.6867567951
 20
2.2302539261
 30
0.0
 11
19.2627460133
 21
3.6086947889
 31
0.0
  0
LINE
  5
110
330
1F
100
AcDbEntity
  8
0
  6
Continuous
 62
     7
370
    15
100
AcDbLine
 10
19.6867567951
 20
2.2302539261
 30
0.0
 11
19.5533315631
 21
2.224632551
 31
0.0
  0
ARC
  5
111
330
1F
100
AcDbEntity
  8
0
  6
Continuous
 62
     7
370
    15
100
AcDbCircle
 10
19.0541739682
 20
2.25364707
 30
0.0
 40
0.4999999999999975
100
AcDbArc
 50
356.6733202761
 51
188.1516612306
  0
LINE
  5
112
330
1F
100
AcDbEntity
  8
0
  6
Continuous
 62
     7
370
    15
100
AcDbLine
 10
18.5592258205
 20
2.1827501682
 30
0.0
 11
17.380085202
 21
2.1330719554
 31
0.0
  0
LINE
  5
113
330
1F
100
AcDbEntity
  8
0
  6
Continuous
 62
     7
370
    15
100
AcDbLine
 10
17.380085202
 20
2.1330719554
 30
0.0
 11
18.6071618
 21
3.7271821934
 31
0.0
  0
ARC
  5
114
330
1F
100
AcDbEntity
  8
0
  6
Continuous
 62
     7
370
    15
100
AcDbCircle
 10
18.9043197945
 20
3.4984424788
 30
0.0
 40
0.3749999999999845
100
AcDbArc
 50
17.0979709668
 51
142.4124907533
  0
CIRCLE
  5
115
330
1F
100
AcDbEntity
  8
0
  6
Continuous
 62
     7
370
    15
100
AcDbCircle
 10
18.9043197945
 20
1.6299385418
 30
0.0
 40
0.1249999999999906
  0
LINE
  5
116
330
1F
100
AcDbEntity
  8
0
  6
Continuous
 62
     7
370
    15
100
AcDbLine
 10
17.380085202
 20
0.2645680467
 30
0.0
 11
18.6071618
 21
1.8586782185
 31
0.0
  0
ARC
  5
117
330
1F
100
AcDbEntity
  8
0
  6
Continuous
 62
     7
370
    15
100
AcDbCircle
 10
18.9043197945
 20
1.6299385418
 30
0.0
 40
0.3749999999999846
100
AcDbArc
 50
17.0979709668
 51
142.4124907533
  0
LINE
  5
118
330
1F
100
AcDbEntity
  8
0
  6
Continuous
 62
     7
370
    15
100
AcDbLine
 10
19.6867567951
 20
0.3617499879
 30
0.0
 11
19.2627460133
 21
1.7401909606
 31
0.0
  0
LINE
  5
119
330
1F
100
AcDbEntity
  8
0
  6
Continuous
 62
     7
370
    15
100
AcDbLine
 10
19.6867567951
 20
0.3617499879
 30
0.0
 11
19.5533315631
 21
0.3561286861
 31
0.0
  0
ARC
  5
11A
330
1F
100
AcDbEntity
  8
0
  6
Continuous
 62
     7
370
    15
100
AcDbCircle
 10
19.0541739682
 20
0.3851431329
 30
0.0
 40
0.4999999999999975
100
AcDbArc
 50
356.6733202761
 51
188.1516612306
  0
LINE
  5
11B
330
1F
100
AcDbEntity
  8
0
  6
Continuous
 62
     7
370
    15
100
AcDbLine
 10
18.5592258205
 20
0.3142462162
 30
0.0
 11
17.380085202
 21
0.2645680467
 31
0.0
  0
CIRCLE
  5
11C
330
1F
100
AcDbEntity
  8
0
  6
Continuous
 62
     7
370
    15
100
AcDbCircle
 10
16.2408028273
 20
7.7724579426
 30
0.0
 40
0.5000000000000071
  0
CIRCLE
  5
11D
330
1F
100
AcDbEntity
  8
0
  6
Continuous
 62
     7
370
    15
100
AcDbCircle
 10
20.777361985
 20
0.7751532976
 30
0.0
 40
0.5000000000000036
  0
CIRCLE
  5
11E
330
1F
100
AcDbEntity
  8
0
  6
Continuous
 62
     7
370
    15
100
AcDbCircle
 10
22.1938900709
 20
0.7545305849
 30
0.0
 40
0.5000000000000071
  0
CIRCLE
  5
11F
330
1F
100
AcDbEntity
  8
0
  6
Continuous
 62
     7
370
    15
100
AcDbCircle
 10
21.8650858207
 20
2.1810304353
 30
0.0
 40
0.5000000000000071
  0
LINE
  5
120
330
1F
100
AcDbEntity
  8
0
  6
Continuous
 62
     7
370
    15
100
AcDbLine
 10
16.2174766592
 20
2.3690152698
 30
0.0
 11
16.4278106561
 21
2.4518699793
 31
0.0
  0
ARC
  5
121
330
1F
100
AcDbEntity
  8
0
  6
Continuous
 62
     7
370
    15
100
AcDbCircle
 10
15.8286732116
 20
2.0546395801
 30
0.0
 40
0.4999999999999984
100
AcDbArc
 50
38.958057882
 51
184.0428516346
  0
LINE
  5
122
330
1F
100
AcDbEntity
  8
0
  6
Continuous
 62
     7
370
    15
100
AcDbLine
 10
15.2924759316
 20
2.004639639
 30
0.0
 11
15.329917739
 21
2.0193882687
 31
0.0
  0
ARC
  5
123
330
1F
100
AcDbEntity
  8
0
  6
Continuous
 62
     7
370
    15
100
AcDbCircle
 10
15.6948532603
 20
3.3046395801
 30
0.0
 40
0.3750000000000142
100
AcDbArc
 50
21.1984287333
 51
140.0
  0
LINE
  5
124
330
1F
100
AcDbEntity
  8
0
  6
Continuous
 62
     7
370
    15
100
AcDbLine
 10
16.044478871
 20
3.4402392149
 30
0.0
 11
16.4278106561
 21
2.4518699793
 31
0.0
  0
CIRCLE
  5
125
330
1F
100
AcDbEntity
  8
0
  6
Continuous
 62
     7
370
    15
100
AcDbCircle
 10
15.6948532603
 20
3.3046395801
 30
0.0
 40
0.1249999999999964
  0
LINE
  5
126
330
1F
100
AcDbEntity
  8
0
  6
Continuous
 62
     7
370
    15
100
AcDbLine
 10
14.1144957264
 20
2.004639639
 30
0.0
 11
15.2924759316
 21
2.004639639
 31
0.0
  0
LINE
  5
127
330
1F
100
AcDbEntity
  8
0
  6
Continuous
 62
     7
370
    15
100
AcDbLine
 10
14.1144957264
 20
2.004639639
 30
0.0
 11
15.4075868151
 21
3.5456848768
 31
0.0
  0
LINE
  5
128
330
1F
100
AcDbEntity
  8
0
  6
Continuous
 62
     7
370
    15
100
AcDbLine
 10
16.2174766592
 20
0.600511323
 30
0.0
 11
16.4278106561
 21
0.6833659958
 31
0.0
  0
ARC
  5
129
330
1F
100
AcDbEntity
  8
0
  6
Continuous
 62
     7
370
    15
100
AcDbCircle
 10
15.8286732116
 20
0.2861356431
 30
0.0
 40
0.4999999999999984
100
AcDbArc
 50
38.958057882
 51
184.0428516346
  0
LINE
  5
12A
330
1F
100
AcDbEntity
  8
0
  6
Continuous
 62
     7
370
    15
100
AcDbLine
 10
15.2924759316
 20
0.2361356442
 30
0.0
 11
15.329917739
 21
0.2508843758
 31
0.0
  0
LINE
  5
12B
330
1F
100
AcDbEntity
  8
0
  6
Continuous
 62
     7
370
    15
100
AcDbLine
 10
14.1144957264
 20
0.2361356442
 30
0.0
 11
15.2924759316
 21
0.2361356442
 31
0.0
  0
LINE
  5
12C
330
1F
100
AcDbEntity
  8
0
  6
Continuous
 62
     7
370
    15
100
AcDbLine
 10
14.1144957264
 20
0.2361356442
 30
0.0
 11
15.4075868151
 21
1.77718104
 31
0.0
  0
ARC
  5
12D
330
1F
100
AcDbEntity
  8
0
  6
Continuous
 62
     7
370
    15
100
AcDbCircle
 10
15.6948532603
 20
1.5361356431
 30
0.0
 40
0.3750000000000143
100
AcDbArc
 50
21.1984287333
 51
140.0
  0
LINE
  5
12E
330
1F
100
AcDbEntity
  8
0
  6
Continuous
 62
     7
370
    15
100
AcDbLine
 10
16.044478871
 20
1.6717352315
 30
0.0
 11
16.4278106561
 21
0.6833659958
 31
0.0
  0
CIRCLE
  5
12F
330
1F
100
AcDbEntity
  8
0
  6
Continuous
 62
     7
370
    15
100
AcDbCircle
 10
15.6948532603
 20
1.5361356431
 30
0.0
 40
0.1249999999999964
  0
CIRCLE
  5
130
330
1F
100
AcDbEntity
  8
0
  6
Continuous
 62
     7
370
    15
100
AcDbCircle
 10
0.7831373799
 20
9.5765002427
 30
0.0
 40
0.1565000000000015
  0
LINE
  5
131
330
1F
100
AcDbEntity
  8
0
  6
Continuous
 62
     7
370
    15
100
AcDbLine
 10
1.4716756906
 20
9.4436917825
 30
0.0
 11
1.8247511519
 21
9.3981534819
 31
0.0
  0
ARC
  5
132
330
1F
100
AcDbEntity
  8
0
  6
Continuous
 62
     7
370
    15
100
AcDbCircle
 10
1.4333006376
 20
9.1461563028
 30
0.0
 40
0.3000000000000009
100
AcDbArc
 50
82.6507682682
 51
140.2153902012
  0
LINE
  5
133
330
1F
100
AcDbEntity
  8
0
  6
Continuous
 62
     7
370
    15
100
AcDbLine
 10
1.1481537346
 20
9.2725460796
 30
0.0
 11
1.2027639971
 21
9.3381270286
 31
0.0
  0
ARC
  5
134
330
1F
100
AcDbEntity
  8
0
  6
Continuous
 62
     7
370
    15
100
AcDbCircle
 10
1.5870592878
 20
8.9406271687
 30
0.0
 40
1.500000000000001
100
AcDbArc
 50
72.4432517613
 51
141.6572813021
  0
ARC
  5
135
330
1F
100
AcDbEntity
  8
0
  6
Continuous
 62
     7
370
    15
100
AcDbCircle
 10
1.8887095425
 20
9.8940458196
 30
0.0
 40
0.4999999999999998
100
AcDbArc
 50
72.4432517613
 51
262.6507682682
  0
ARC
  5
136
330
1F
100
AcDbEntity
  8
0
  6
Continuous
 62
     7
370
    15
100
AcDbCircle
 10
0.7831373799
 20
9.5765002427
 30
0.0
 40
0.4749999999999989
100
AcDbArc
 50
141.6572813021
 51
320.2153902012
  0
LINE
  5
137
330
1F
100
AcDbEntity
  8
0
  6
Continuous
 62
     7
370
    15
100
AcDbLine
 10
18.6165647847
 20
9.5539034693
 30
0.0
 11
18.8216305758
 21
9.2628984577
 31
0.0
  0
ARC
  5
138
330
1F
100
AcDbEntity
  8
0
  6
Continuous
 62
     7
370
    15
100
AcDbCircle
 10
18.371335774
 20
9.381094757
 30
0.0
 40
0.300000000000001
100
AcDbArc
 50
35.1716956748
 51
92.7363176077
  0
LINE
  5
139
330
1F
100
AcDbEntity
  8
0
  6
Continuous
 62
     7
370
    15
100
AcDbLine
 10
18.2717695145
 20
9.6766784777
 30
0.0
 11
18.3570135431
 21
9.6807528306
 31
0.0
  0
CIRCLE
  5
13A
330
1F
100
AcDbEntity
  8
0
  6
Continuous
 62
     7
370
    15
100
AcDbCircle
 10
18.2490934099
 20
10.1511369458
 30
0.0
 40
0.1565000000000001
  0
ARC
  5
13B
330
1F
100
AcDbEntity
  8
0
  6
Continuous
 62
     7
370
    15
100
AcDbCircle
 10
18.2490934099
 20
10.1511369458
 30
0.0
 40
0.4749999999999998
100
AcDbArc
 50
94.1782087087
 51
272.7363176077
  0
ARC
  5
13C
330
1F
100
AcDbEntity
  8
0
  6
Continuous
 62
     7
370
    15
100
AcDbCircle
 10
18.3237737655
 20
9.1288611295
 30
0.0
 40
1.500000000000002
100
AcDbArc
 50
24.9641791679
 51
94.1782087087
  0
ARC
  5
13D
330
1F
100
AcDbEntity
  8
0
  6
Continuous
 62
     7
370
    15
100
AcDbCircle
 10
19.2303455927
 20
9.5509126928
 30
0.0
 40
0.5000000000000011
100
AcDbArc
 50
24.9641791679
 51
215.1716956748
  0
ARC
  5
13E
330
1F
100
AcDbEntity
  8
0
  6
Continuous
 62
     7
370
    15
100
AcDbCircle
 10
11.3829212677
 20
9.1309826149
 30
0.0
 40
0.3000000000000023
100
AcDbArc
 50
80.0887382975
 51
137.6533602305
  0
ARC
  5
13F
330
1F
100
AcDbEntity
  8
0
  6
Continuous
 62
     7
370
    15
100
AcDbCircle
 10
10.7526446916
 20
9.5899593091
 30
0.0
 40
0.474999999999999
100
AcDbArc
 50
139.0952513314
 51
317.6533602305
  0
ARC
  5
140
330
1F
100
AcDbEntity
  8
0
  6
Continuous
 62
     7
370
    15
100
AcDbCircle
 10
11.8713063297
 20
9.8577673363
 30
0.0
 40
0.4999999999999987
100
AcDbArc
 50
69.8812217906
 51
260.0887382975
  0
LINE
  5
141
330
1F
100
AcDbEntity
  8
0
  6
Continuous
 62
     7
370
    15
100
AcDbLine
 10
11.1037090672
 20
9.2699923491
 30
0.0
 11
11.1611958698
 21
9.3330670871
 31
0.0
  0
LINE
  5
142
330
1F
100
AcDbEntity
  8
0
  6
Continuous
 62
     7
370
    15
100
AcDbLine
 10
11.4345582586
 20
9.4265049944
 30
0.0
 11
11.7852447674
 21
9.3652295422
 31
0.0
  0
CIRCLE
  5
143
330
1F
100
AcDbEntity
  8
0
  6
Continuous
 62
     7
370
    15
100
AcDbCircle
 10
10.7526446916
 20
9.5899593091
 30
0.0
 40
0.1565000000000011
  0
ARC
  5
144
330
1F
100
AcDbEntity
  8
0
  6
Continuous
 62
     7
370
    15
100
AcDbCircle
 10
11.5273388734
 20
8.9187857662
 30
0.0
 40
1.499999999999999
100
AcDbArc
 50
69.8812217906
 51
139.0952513314
  0
CIRCLE
  5
145
330
1F
100
AcDbEntity
  8
0
  6
Continuous
 62
     7
370
    15
100
AcDbCircle
 10
8.5032043953
 20
9.9886521344
 30
0.0
 40
0.1565000000000005
  0
LINE
  5
146
330
1F
100
AcDbEntity
  8
0
  6
Continuous
 62
     7
370
    15
100
AcDbLine
 10
8.9408143198
 20
9.4407285634
 30
0.0
 11
9.1798617983
 21
9.1769246242
 31
0.0
  0
ARC
  5
147
330
1F
100
AcDbEntity
  8
0
  6
Continuous
 62
     7
370
    15
100
AcDbCircle
 10
8.7185080115
 20
9.2392840533
 30
0.0
 40
0.3000000000000007
100
AcDbArc
 50
42.1814739211
 51
99.746095854
  0
LINE
  5
148
330
1F
100
AcDbEntity
  8
0
  6
Continuous
 62
     7
370
    15
100
AcDbLine
 10
8.5836135396
 20
9.5205072684
 30
0.0
 11
8.6677235546
 21
9.5349543549
 31
0.0
  0
ARC
  5
149
330
1F
100
AcDbEntity
  8
0
  6
Continuous
 62
     7
370
    15
100
AcDbCircle
 10
8.5032043953
 20
9.9886521344
 30
0.0
 40
0.4749999999999996
100
AcDbArc
 50
101.1879869549
 51
279.746095854
  0
ARC
  5
14A
330
1F
100
AcDbEntity
  8
0
  6
Continuous
 62
     7
370
    15
100
AcDbCircle
 10
8.702083785
 20
8.9831313796
 30
0.0
 40
1.5
100
AcDbArc
 50
31.9739574142
 51
101.1879869549
  0
ARC
  5
14B
330
1F
100
AcDbEntity
  8
0
  6
Continuous
 62
     7
370
    15
100
AcDbCircle
 10
9.5503726571
 20
9.5126651268
 30
0.0
 40
0.4999999999999992
100
AcDbArc
 50
31.9739574142
 51
222.1814739211
  0
LINE
  5
14C
330
1F
100
AcDbEntity
  8
0
  6
Continuous
 62
     7
370
    15
100
AcDbLine
 10
5.221556645
 20
10.4566727204
 30
0.0
 11
4.2471224884
 21
10.6433619771
 31
0.0
  0
ARC
  5
14D
330
1F
100
AcDbEntity
  8
0
  6
Continuous
 62
     7
370
    15
100
AcDbCircle
 10
5.1274745695
 20
9.9656041761
 30
0.0
 40
0.500000000000006
100
AcDbArc
 50
79.1543056002
 51
244.7927940373
  0
LINE
  5
14E
330
1F
100
AcDbEntity
  8
0
  6
Continuous
 62
     7
370
    15
100
AcDbLine
 10
4.9145278985
 20
9.5132174327
 30
0.0
 11
4.0168508552
 21
9.9357703646
 31
0.0
  0
CIRCLE
  5
14F
330
1F
100
AcDbEntity
  8
0
  6
Continuous
 62
     7
370
    15
100
AcDbCircle
 10
4.17656081
 20
10.2750601859
 30
0.0
 40
0.1249999999999939
  0
ARC
  5
150
330
1F
100
AcDbEntity
  8
0
  6
Continuous
 62
     7
370
    15
100
AcDbCircle
 10
4.17656081
 20
10.2750601859
 30
0.0
 40
0.3750000000000077
100
AcDbArc
 50
79.1543056002
 51
244.7927940373
  0
LINE
  5
151
330
1F
100
AcDbEntity
  8
0
  6
Continuous
 62
     7
370
    15
100
AcDbLine
 10
16.7806185271
 20
7.2371876722
 30
0.0
 11
17.7647369718
 21
7.3632292028
 31
0.0
  0
ARC
  5
152
330
1F
100
AcDbEntity
  8
0
  6
Continuous
 62
     7
370
    15
100
AcDbCircle
 10
16.7170999916
 20
7.733136704
 30
0.0
 40
0.5000000000000098
100
AcDbArc
 50
277.298466869
 51
82.936955306
  0
LINE
  5
153
330
1F
100
AcDbEntity
  8
0
  6
Continuous
 62
     7
370
    15
100
AcDbLine
 10
16.7785804706
 20
8.2293421841
 30
0.0
 11
17.7632081361
 21
8.1073456734
 31
0.0
  0
ARC
  5
154
330
1F
100
AcDbEntity
  8
0
  6
Continuous
 62
     7
370
    15
100
AcDbCircle
 10
17.7170978812
 20
7.7351911486
 30
0.0
 40
0.3750000000000121
100
AcDbArc
 50
277.298466869
 51
82.936955306
  0
CIRCLE
  5
155
330
1F
100
AcDbEntity
  8
0
  6
Continuous
 62
     7
370
    15
100
AcDbCircle
 10
17.7170978812
 20
7.7351911486
 30
0.0
 40
0.124999999999998
  0
LINE
  5
156
330
1F
100
AcDbEntity
  8
0
  6
Continuous
 62
     7
370
    15
100
AcDbLine
 10
15.7265127309
 20
9.4687873326
 30
0.0
 11
16.6286806556
 21
9.881666243
 31
0.0
  0
ARC
  5
157
330
1F
100
AcDbEntity
  8
0
  6
Continuous
 62
     7
370
    15
100
AcDbCircle
 10
15.5184417376
 20
9.9234372814
 30
0.0
 40
0.5000000000000056
100
AcDbArc
 50
294.5912863387
 51
100.2297747758
  0
LINE
  5
158
330
1F
100
AcDbEntity
  8
0
  6
Continuous
 62
     7
370
    15
100
AcDbLine
 10
15.4296440537
 20
10.4154891962
 30
0.0
 11
16.4060279744
 21
10.591692494
 31
0.0
  0
ARC
  5
159
330
1F
100
AcDbEntity
  8
0
  6
Continuous
 62
     7
370
    15
100
AcDbCircle
 10
16.4726270885
 20
10.2226534512
 30
0.0
 40
0.3750000000000051
100
AcDbArc
 50
294.5912863387
 51
100.2297747758
  0
CIRCLE
  5
15A
330
1F
100
AcDbEntity
  8
0
  6
Continuous
 62
     7
370
    15
100
AcDbCircle
 10
16.4726270885
 20
10.2226534512
 30
0.0
 40
0.1249999999999942
  0
LINE
  5
15B
330
1F
100
AcDbEntity
  8
0
  6
Continuous
 62
     7
370
    15
100
AcDbLine
 10
20.2589508251
 20
5.9731779008
 30
0.0
 11
20.3931222885
 21
4.990135097
 31
0.0
  0
ARC
  5
15C
330
1F
100
AcDbEntity
  8
0
  6
Continuous
 62
     7
370
    15
100
AcDbCircle
 10
20.7543573228
 20
6.0407942382
 30
0.0
 40
0.5000000000000121
100
AcDbArc
 50
187.772104451
 51
353.4105928881
  0
ARC
  5
15D
330
1F
100
AcDbEntity
  8
0
  6
Continuous
 62
     7
370
    15
100
AcDbCircle
 10
20.7646781209
 20
5.040847499
 30
0.0
 40
0.3750000000000099
100
AcDbArc
 50
187.772104451
 51
353.4105928881
  0
CIRCLE
  5
15E
330
1F
100
AcDbEntity
  8
0
  6
Continuous
 62
     7
370
    15
100
AcDbCircle
 10
20.7646781209
 20
5.040847499
 30
0.0
 40
0.1249999999999976
  0
LINE
  5
15F
330
1F
100
AcDbEntity
  8
0
  6
Continuous
 62
     7
370
    15
100
AcDbLine
 10
21.2510537109
 20
5.9834174625
 30
0.0
 11
21.1372017995
 21
4.9978150616
 31
0.0
  0
LINE
  5
160
330
1F
100
AcDbEntity
  8
0
  6
Continuous
 62
     7
370
    15
100
AcDbLine
 10
20.2853692932
 20
7.2924310874
 30
0.0
 11
20.3859885042
 21
6.3053899031
 31
0.0
  0
ARC
  5
161
330
1F
100
AcDbEntity
  8
0
  6
Continuous
 62
     7
370
    15
100
AcDbCircle
 10
20.7590556195
 20
6.3434212299
 30
0.0
 40
0.3750000000000049
100
AcDbArc
 50
185.8207357799
 51
351.459224217
  0
CIRCLE
  5
162
330
1F
100
AcDbEntity
  8
0
  6
Continuous
 62
     7
370
    15
100
AcDbCircle
 10
20.7590556195
 20
6.3434212299
 30
0.0
 40
0.1249999999999957
  0
LINE
  5
163
330
1F
100
AcDbEntity
  8
0
  6
Continuous
 62
     7
370
    15
100
AcDbLine
 10
21.277244555
 20
7.2688831461
 30
0.0
 11
21.1298967105
 21
6.2877285071
 31
0.0
  0
ARC
  5
164
330
1F
100
AcDbEntity
  8
0
  6
Continuous
 62
     7
370
    15
100
AcDbCircle
 10
20.7827902175
 20
7.3431395246
 30
0.0
 40
0.5000000000000087
100
AcDbArc
 50
185.8207357799
 51
351.459224217
  0
LINE
  5
165
330
1F
100
AcDbEntity
  8
0
  6
Continuous
 62
     7
370
    15
100
AcDbLine
 10
5.5380320824
 20
9.6289460691
 30
0.0
 11
6.5000428358
 21
9.8716595852
 31
0.0
  0
ARC
  5
166
330
1F
100
AcDbEntity
  8
0
  6
Continuous
 62
     7
370
    15
100
AcDbCircle
 10
5.4157157074
 20
10.1137540092
 30
0.0
 40
0.5000000000000061
100
AcDbArc
 50
284.1601019568
 51
89.7985903939
  0
LINE
  5
167
330
1F
100
AcDbEntity
  8
0
  6
Continuous
 62
     7
370
    15
100
AcDbLine
 10
5.4174734751
 20
10.6137509059
 30
0.0
 11
6.4096238804
 21
10.6102637995
 31
0.0
  0
ARC
  5
168
330
1F
100
AcDbEntity
  8
0
  6
Continuous
 62
     7
370
    15
100
AcDbCircle
 10
6.4083057257
 20
10.2352655543
 30
0.0
 40
0.3750000000000127
100
AcDbArc
 50
284.1601019568
 51
89.7985903939
  0
CIRCLE
  5
169
330
1F
100
AcDbEntity
  8
0
  6
Continuous
 62
     7
370
    15
100
AcDbCircle
 10
6.4083057257
 20
10.2352655543
 30
0.0
 40
0.1249999999999939
  0
LINE
  5
16A
330
1F
100
AcDbEntity
  8
0
  6
Continuous
 62
     7
370
    15
100
AcDbLine
 10
20.2685978603
 20
4.7860167617
 30
0.0
 11
20.4027716703
 21
3.8029742512
 31
0.0
  0
ARC
  5
16B
330
1F
100
AcDbEntity
  8
0
  6
Continuous
 62
     7
370
    15
100
AcDbCircle
 10
20.7640049101
 20
4.8536334233
 30
0.0
 40
0.5000000000000121
100
AcDbArc
 50
187.772104451
 51
353.4105928881
  0
LINE
  5
16C
330
1F
100
AcDbEntity
  8
0
  6
Continuous
 62
     7
370
    15
100
AcDbLine
 10
21.2607007461
 20
4.7962566167
 30
0.0
 11
21.1468488347
 21
3.8106542158
 31
0.0
  0
ARC
  5
16D
330
1F
100
AcDbEntity
  8
0
  6
Continuous
 62
     7
370
    15
100
AcDbCircle
 10
20.7743257082
 20
3.8536866841
 30
0.0
 40
0.3750000000000065
100
AcDbArc
 50
187.772104451
 51
353.4105928881
  0
CIRCLE
  5
16E
330
1F
100
AcDbEntity
  8
0
  6
Continuous
 62
     7
370
    15
100
AcDbCircle
 10
20.7743257082
 20
3.8536866841
 30
0.0
 40
0.1249999999999996
  0
LINE
  5
16F
330
1F
100
AcDbEntity
  8
0
  6
Continuous
 62
     7
370
    15
100
AcDbLine
 10
15.2325333707
 20
10.5308992763
 30
0.0
 11
14.2428287505
 21
10.600612071
 31
0.0
  0
ARC
  5
170
330
1F
100
AcDbEntity
  8
0
  6
Continuous
 62
     7
370
    15
100
AcDbCircle
 10
15.1974011852
 20
10.0321352796
 30
0.0
 40
0.5000000000000083
100
AcDbArc
 50
85.9708431313
 51
251.6093315683
  0
LINE
  5
171
330
1F
100
AcDbEntity
  8
0
  6
Continuous
 62
     7
370
    15
100
AcDbLine
 10
15.0396536789
 20
9.5576715858
 30
0.0
 11
14.0981689816
 21
9.8706915964
 31
0.0
  0
CIRCLE
  5
172
330
1F
100
AcDbEntity
  8
0
  6
Continuous
 62
     7
370
    15
100
AcDbCircle
 10
14.2164796487
 20
10.2265393414
 30
0.0
 40
0.1249999999999974
  0
ARC
  5
173
330
1F
100
AcDbEntity
  8
0
  6
Continuous
 62
     7
370
    15
100
AcDbCircle
 10
14.2164796487
 20
10.2265393414
 30
0.0
 40
0.3750000000000084
100
AcDbArc
 50
85.9708431313
 51
251.6093315683
  0
LINE
  5
174
330
1F
100
AcDbEntity
  8
0
  6
Continuous
 62
     7
370
    15
100
AcDbLine
 10
19.8633038756
 20
5.8864736758
 30
0.0
 11
18.4056664211
 21
5.794180342
 31
0.0
  0
LINE
  5
175
330
1F
100
AcDbEntity
  8
0
  6
Continuous
 62
     7
370
    15
100
AcDbLine
 10
18.4056664211
 20
5.794180342
 30
0.0
 11
18.4136919283
 21
7.2581343636
 31
0.0
  0
LINE
  5
176
330
1F
100
AcDbEntity
  8
0
  6
Continuous
 62
     7
370
    15
100
AcDbLine
 10
18.4136919283
 20
7.2581343636
 30
0.0
 11
19.2613755758
 21
7.1954251147
 31
0.0
  0
ARC
  5
177
330
1F
100
AcDbEntity
  8
0
  6
Continuous
 62
     7
370
    15
100
AcDbCircle
 10
19.2171103806
 20
6.5970604664
 30
0.0
 40
0.6000000000000022
100
AcDbArc
 50
3.6229702165
 51
85.7691323844
  0
LINE
  5
178
330
1F
100
AcDbEntity
  8
0
  6
Continuous
 62
     7
370
    15
100
AcDbLine
 10
19.8633038756
 20
5.8864736758
 30
0.0
 11
19.8159111431
 21
6.6349748424
 31
0.0
  0
CIRCLE
  5
179
330
1F
100
AcDbEntity
  8
0
  6
Continuous
 62
     7
370
    15
100
AcDbCircle
 10
19.2171103806
 20
6.5970604664
 30
0.0
 40
0.0624999999999941
  0
LINE
  5
17A
330
1F
100
AcDbEntity
  8
0
  6
Continuous
 62
     7
370
    15
100
AcDbLine
 10
19.8633038756
 20
4.2179698305
 30
0.0
 11
18.4056664211
 21
4.1256762033
 31
0.0
  0
LINE
  5
17B
330
1F
100
AcDbEntity
  8
0
  6
Continuous
 62
     7
370
    15
100
AcDbLine
 10
18.4056664211
 20
4.1256762033
 30
0.0
 11
18.4136919283
 21
5.5896308116
 31
0.0
  0
LINE
  5
17C
330
1F
100
AcDbEntity
  8
0
  6
Continuous
 62
     7
370
    15
100
AcDbLine
 10
18.4136919283
 20
5.5896308116
 30
0.0
 11
19.2613755758
 21
5.5269215627
 31
0.0
  0
ARC
  5
17D
330
1F
100
AcDbEntity
  8
0
  6
Continuous
 62
     7
370
    15
100
AcDbCircle
 10
19.2171103806
 20
4.9285565294
 30
0.0
 40
0.6000000000000013
100
AcDbArc
 50
3.6229702165
 51
85.7691323844
  0
LINE
  5
17E
330
1F
100
AcDbEntity
  8
0
  6
Continuous
 62
     7
370
    15
100
AcDbLine
 10
19.8633038756
 20
4.2179698305
 30
0.0
 11
19.8159111431
 21
4.9664709971
 31
0.0
  0
CIRCLE
  5
17F
330
1F
100
AcDbEntity
  8
0
  6
Continuous
 62
     7
370
    15
100
AcDbCircle
 10
19.2171103806
 20
4.9285565294
 30
0.0
 40
0.0624999999999946
  0
CIRCLE
  5
180
330
1F
100
AcDbEntity
  8
0
  6
Continuous
 62
     7
370
    15
100
AcDbCircle
 10
17.4410865613
 20
4.5333678338
 30
0.0
 40
0.0624999999999941
  0
LINE
  5
181
330
1F
100
AcDbEntity
  8
0
  6
Continuous
 62
     7
370
    15
100
AcDbLine
 10
16.8787432602
 20
5.3557107405
 30
0.0
 11
16.2945813685
 21
3.6200965238
 31
0.0
  0
LINE
  5
182
330
1F
100
AcDbEntity
  8
0
  6
Continuous
 62
     7
370
    15
100
AcDbLine
 10
17.6324803663
 20
5.1020225778
 30
0.0
 11
16.8787432602
 21
5.3557107405
 31
0.0
  0
ARC
  5
183
330
1F
100
AcDbEntity
  8
0
  6
Continuous
 62
     7
370
    15
100
AcDbCircle
 10
17.4410865613
 20
4.5333678338
 30
0.0
 40
0.6000000000000031
100
AcDbArc
 50
359.6397802231
 51
71.3981253641
  0
LINE
  5
184
330
1F
100
AcDbEntity
  8
0
  6
Continuous
 62
     7
370
    15
100
AcDbLine
 10
18.0352880864
 20
3.6091523836
 30
0.0
 11
18.0410748995
 21
4.5295956439
 31
0.0
  0
LINE
  5
185
330
1F
100
AcDbEntity
  8
0
  6
Continuous
 62
     7
370
    15
100
AcDbLine
 10
16.2945813685
 20
3.6200965238
 30
0.0
 11
18.0352880864
 21
3.6091523836
 31
0.0
  0
LINE
  5
186
330
1F
100
AcDbEntity
  8
0
  6
Continuous
 62
     7
370
    15
100
AcDbLine
 10
16.6011006009
 20
6.5923980009
 30
0.0
 11
16.3487664492
 21
5.8382056467
 31
0.0
  0
LINE
  5
187
330
1F
100
AcDbEntity
  8
0
  6
Continuous
 62
     7
370
    15
100
AcDbLine
 10
16.3487664492
 20
5.8382056467
 30
0.0
 11
18.0854275605
 21
5.2571612656
 31
0.0
  0
LINE
  5
188
330
1F
100
AcDbEntity
  8
0
  6
Continuous
 62
     7
370
    15
100
AcDbLine
 10
18.0854275605
 20
5.2571612656
 30
0.0
 11
18.0932453902
 21
6.9978849967
 31
0.0
  0
ARC
  5
189
330
1F
100
AcDbEntity
  8
0
  6
Continuous
 62
     7
370
    15
100
AcDbCircle
 10
17.1700984981
 20
6.4020249862
 30
0.0
 40
0.6000000000000042
100
AcDbArc
 50
89.7426639614
 51
161.5010091023
  0
CIRCLE
  5
18A
330
1F
100
AcDbEntity
  8
0
  6
Continuous
 62
     7
370
    15
100
AcDbCircle
 10
17.1700984981
 20
6.4020249862
 30
0.0
 40
0.0624999999999935
  0
LINE
  5
18B
330
1F
100
AcDbEntity
  8
0
  6
Continuous
 62
     7
370
    15
100
AcDbLine
 10
18.0932453902
 20
6.9978849967
 30
0.0
 11
17.1727936233
 21
7.0020191889
 31
0.0
  0
ARC
  5
18C
330
1F
100
AcDbEntity
  8
0
  6
Continuous
 62
     7
370
    15
100
AcDbCircle
 10
15.1861086537
 20
4.7879286298
 30
0.0
 40
0.6000000000000242
100
AcDbArc
 50
99.3700418825
 51
184.1010292865
  0
LINE
  5
18D
330
1F
100
AcDbEntity
  8
0
  6
Continuous
 62
     7
370
    15
100
AcDbLine
 10
15.0884227155
 20
5.3799233675
 30
0.0
 11
15.8284155537
 21
5.5020307569
 31
0.0
  0
LINE
  5
18E
330
1F
100
AcDbEntity
  8
0
  6
Continuous
 62
     7
370
    15
100
AcDbLine
 10
16.0648934619
 20
4.0689341655
 30
0.0
 11
15.8284155537
 21
5.5020307569
 31
0.0
  0
LINE
  5
18F
330
1F
100
AcDbEntity
  8
0
  6
Continuous
 62
     7
370
    15
100
AcDbLine
 10
14.6434271094
 20
3.9670166762
 30
0.0
 11
14.5876451405
 21
4.7450195019
 31
0.0
  0
CIRCLE
  5
190
330
1F
100
AcDbEntity
  8
0
  6
Continuous
 62
     7
370
    15
100
AcDbCircle
 10
15.1861086537
 20
4.7879286298
 30
0.0
 40
0.0625000000000064
  0
LINE
  5
191
330
1F
100
AcDbEntity
  8
0
  6
Continuous
 62
     7
370
    15
100
AcDbLine
 10
16.0648934619
 20
4.0689341655
 30
0.0
 11
14.6434271094
 21
3.9670166762
 31
0.0
  0
ARC
  5
192
330
1F
100
AcDbEntity
  8
0
  6
Continuous
 62
     7
370
    15
100
AcDbCircle
 10
15.1861086537
 20
6.4564325668
 30
0.0
 40
0.6000000000000242
100
AcDbArc
 50
99.3700418825
 51
184.1010292865
  0
LINE
  5
193
330
1F
100
AcDbEntity
  8
0
  6
Continuous
 62
     7
370
    15
100
AcDbLine
 10
15.0884227155
 20
7.0484269195
 30
0.0
 11
15.8284155537
 21
7.1705343089
 31
0.0
  0
LINE
  5
194
330
1F
100
AcDbEntity
  8
0
  6
Continuous
 62
     7
370
    15
100
AcDbLine
 10
16.0648934619
 20
5.7374380108
 30
0.0
 11
15.8284155537
 21
7.1705343089
 31
0.0
  0
LINE
  5
195
330
1F
100
AcDbEntity
  8
0
  6
Continuous
 62
     7
370
    15
100
AcDbLine
 10
16.0648934619
 20
5.7374380108
 30
0.0
 11
14.6434271094
 21
5.6355205215
 31
0.0
  0
LINE
  5
196
330
1F
100
AcDbEntity
  8
0
  6
Continuous
 62
     7
370
    15
100
AcDbLine
 10
14.6434271094
 20
5.6355205215
 30
0.0
 11
14.5876451405
 21
6.4135236406
 31
0.0
  0
CIRCLE
  5
197
330
1F
100
AcDbEntity
  8
0
  6
Continuous
 62
     7
370
    15
100
AcDbCircle
 10
15.1861086537
 20
6.4564325668
 30
0.0
 40
0.0625000000000066
  0
ARC
  5
198
330
1F
100
AcDbEntity
  8
0
  6
Continuous
 62
     7
370
    15
100
AcDbCircle
 10
13.4665905752
 20
4.3876874657
 30
0.0
 40
0.6000000000000086
100
AcDbArc
 50
88.7346440905
 51
173.4656314945
  0
LINE
  5
199
330
1F
100
AcDbEntity
  8
0
  6
Continuous
 62
     7
370
    15
100
AcDbLine
 10
14.3296332944
 20
4.9687707038
 30
0.0
 11
13.479840018
 21
4.9875411803
 31
0.0
  0
LINE
  5
19A
330
1F
100
AcDbEntity
  8
0
  6
Continuous
 62
     7
370
    15
100
AcDbLine
 10
14.3296332944
 20
4.9687707038
 30
0.0
 11
14.297354094
 21
3.5074287854
 31
0.0
  0
LINE
  5
19B
330
1F
100
AcDbEntity
  8
0
  6
Continuous
 62
     7
370
    15
100
AcDbLine
 10
12.7817253093
 20
3.6810340599
 30
0.0
 11
14.297354094
 21
3.5074287854
 31
0.0
  0
LINE
  5
19C
330
1F
100
AcDbEntity
  8
0
  6
Continuous
 62
     7
370
    15
100
AcDbLine
 10
12.7817253093
 20
3.6810340599
 30
0.0
 11
12.8704881239
 21
4.4559668944
 31
0.0
  0
CIRCLE
  5
19D
330
1F
100
AcDbEntity
  8
0
  6
Continuous
 62
     7
370
    15
100
AcDbCircle
 10
13.4665905752
 20
4.3876874657
 30
0.0
 40
0.0625000000000016
  0
ARC
  5
19E
330
1F
100
AcDbEntity
  8
0
  6
Continuous
 62
     7
370
    15
100
AcDbCircle
 10
13.4665905752
 20
6.0561914027
 30
0.0
 40
0.6000000000000086
100
AcDbArc
 50
88.7346440905
 51
173.4656314945
  0
LINE
  5
19F
330
1F
100
AcDbEntity
  8
0
  6
Continuous
 62
     7
370
    15
100
AcDbLine
 10
14.3296332944
 20
6.6372745491
 30
0.0
 11
13.479840018
 21
6.6560453189
 31
0.0
  0
LINE
  5
1A0
330
1F
100
AcDbEntity
  8
0
  6
Continuous
 62
     7
370
    15
100
AcDbLine
 10
14.3296332944
 20
6.6372745491
 30
0.0
 11
14.297354094
 21
5.175932924
 31
0.0
  0
LINE
  5
1A1
330
1F
100
AcDbEntity
  8
0
  6
Continuous
 62
     7
370
    15
100
AcDbLine
 10
12.7817253093
 20
5.3495379052
 30
0.0
 11
14.297354094
 21
5.175932924
 31
0.0
  0
LINE
  5
1A2
330
1F
100
AcDbEntity
  8
0
  6
Continuous
 62
     7
370
    15
100
AcDbLine
 10
12.7817253093
 20
5.3495379052
 30
0.0
 11
12.8704881239
 21
6.1244710331
 31
0.0
  0
CIRCLE
  5
1A3
330
1F
100
AcDbEntity
  8
0
  6
Continuous
 62
     7
370
    15
100
AcDbCircle
 10
13.4665905752
 20
6.0561914027
 30
0.0
 40
0.0625000000000016
  0
LINE
  5
1A4
330
1F
100
AcDbEntity
  8
0
  6
Continuous
 62
     7
370
    15
100
AcDbLine
 10
12.2894519561
 20
3.2068122314
 30
0.0
 11
13.0342683119
 21
2.0161277597
 31
0.0
  0
LINE
  5
1A5
330
1F
100
AcDbEntity
  8
0
  6
Continuous
 62
     7
370
    15
100
AcDbLine
 10
12.2894519561
 20
3.2068122314
 30
0.0
 11
14.5516770227
 21
2.8899821582
 31
0.0
  0
ARC
  5
1A6
330
1F
100
AcDbEntity
  8
0
  6
Continuous
 62
     7
370
    15
100
AcDbCircle
 10
13.2992034141
 20
2.1818544707
 30
0.0
 40
0.3125000000000155
100
AcDbArc
 50
212.0274428063
 51
312.0274428063
  0
LINE
  5
1A7
330
1F
100
AcDbEntity
  8
0
  6
Continuous
 62
     7
370
    15
100
AcDbLine
 10
14.5516770227
 20
2.8899821582
 30
0.0
 11
13.5084173945
 21
1.9497218201
 31
0.0
  0
LINE
  5
1A8
330
1F
100
AcDbEntity
  8
0
  6
Continuous
 62
     7
370
    15
100
AcDbLine
 10
12.2894519561
 20
1.6383083776
 30
0.0
 11
13.0342683119
 21
0.4476238508
 31
0.0
  0
LINE
  5
1A9
330
1F
100
AcDbEntity
  8
0
  6
Continuous
 62
     7
370
    15
100
AcDbLine
 10
12.2894519561
 20
1.6383083776
 30
0.0
 11
14.5516770227
 21
1.321478231
 31
0.0
  0
LINE
  5
1AA
330
1F
100
AcDbEntity
  8
0
  6
Continuous
 62
     7
370
    15
100
AcDbLine
 10
14.5516770227
 20
1.321478231
 30
0.0
 11
13.5084173945
 21
0.3812179571
 31
0.0
  0
ARC
  5
1AB
330
1F
100
AcDbEntity
  8
0
  6
Continuous
 62
     7
370
    15
100
AcDbCircle
 10
13.2992034141
 20
0.6133505337
 30
0.0
 40
0.3125000000000156
100
AcDbArc
 50
212.0274428063
 51
312.0274428063
  0
ARC
  5
1AC
330
1F
100
AcDbEntity
  8
0
  6
Continuous
 62
     7
370
    15
100
AcDbCircle
 10
2.0489061673
 20
7.1174343203
 30
0.0
 40
0.3125000000000062
100
AcDbArc
 50
180.0
 51
270.0
  0
LINE
  5
1AD
330
1F
100
AcDbEntity
  8
0
  6
Continuous
 62
     7
370
    15
100
AcDbLine
 10
1.7364061858
 20
7.9924342542
 30
0.0
 11
1.7364061858
 21
7.1174345489
 31
0.0
  0
LINE
  5
1AE
330
1F
100
AcDbEntity
  8
0
  6
Continuous
 62
     7
370
    15
100
AcDbLine
 10
1.7364061858
 20
7.9924342542
 30
0.0
 11
2.923906121
 21
7.9924342542
 31
0.0
  0
LINE
  5
1AF
330
1F
100
AcDbEntity
  8
0
  6
Continuous
 62
     7
370
    15
100
AcDbLine
 10
2.923906121
 20
7.9924342542
 30
0.0
 11
2.923906121
 21
6.804934319
 31
0.0
  0
LINE
  5
1B0
330
1F
100
AcDbEntity
  8
0
  6
Continuous
 62
     7
370
    15
100
AcDbLine
 10
2.923906121
 20
6.804934319
 30
0.0
 11
2.0489061224
 21
6.804934319
 31
0.0
  0
ARC
  5
1B1
330
1F
100
AcDbEntity
  8
0
  6
Continuous
 62
     7
370
    15
100
AcDbCircle
 10
2.6698489365
 20
6.2468692321
 30
0.0
 40
0.3125000000000069
100
AcDbArc
 50
358.4202427251
 51
88.4202427251
  0
LINE
  5
1B2
330
1F
100
AcDbEntity
  8
0
  6
Continuous
 62
     7
370
    15
100
AcDbLine
 10
2.9581078059
 20
5.3635866495
 30
0.0
 11
2.9822300872
 21
6.2382543053
 31
0.0
  0
LINE
  5
1B3
330
1F
100
AcDbEntity
  8
0
  6
Continuous
 62
     7
370
    15
100
AcDbLine
 10
2.9581078059
 20
5.3635866495
 30
0.0
 11
1.7710591588
 21
5.3963240314
 31
0.0
  0
LINE
  5
1B4
330
1F
100
AcDbEntity
  8
0
  6
Continuous
 62
     7
370
    15
100
AcDbLine
 10
1.7710591588
 20
5.3963240314
 30
0.0
 11
1.8037966873
 21
6.5833728251
 31
0.0
  0
LINE
  5
1B5
330
1F
100
AcDbEntity
  8
0
  6
Continuous
 62
     7
370
    15
100
AcDbLine
 10
1.8037966873
 20
6.5833728251
 30
0.0
 11
2.6784640497
 21
6.5592505438
 31
0.0
  0
LINE
  5
1B6
330
1F
100
AcDbEntity
  8
0
  6
Continuous
 62
     7
370
    15
100
AcDbLine
 10
0.2679022303
 20
7.9924342542
 30
0.0
 11
0.2679022303
 21
7.1174345489
 31
0.0
  0
LINE
  5
1B7
330
1F
100
AcDbEntity
  8
0
  6
Continuous
 62
     7
370
    15
100
AcDbLine
 10
0.2679022303
 20
7.9924342542
 30
0.0
 11
1.4554022586
 21
7.9924342542
 31
0.0
  0
LINE
  5
1B8
330
1F
100
AcDbEntity
  8
0
  6
Continuous
 62
     7
370
    15
100
AcDbLine
 10
1.4554022586
 20
7.9924342542
 30
0.0
 11
1.4554022586
 21
6.804934319
 31
0.0
  0
LINE
  5
1B9
330
1F
100
AcDbEntity
  8
0
  6
Continuous
 62
     7
370
    15
100
AcDbLine
 10
1.4554022586
 20
6.804934319
 30
0.0
 11
0.5804022234
 21
6.804934319
 31
0.0
  0
ARC
  5
1BA
330
1F
100
AcDbEntity
  8
0
  6
Continuous
 62
     7
370
    15
100
AcDbCircle
 10
0.5804022303
 20
7.1174343203
 30
0.0
 40
0.3125000000000061
100
AcDbArc
 50
180.0
 51
270.0
  0
LINE
  5
1BB
330
1F
100
AcDbEntity
  8
0
  6
Continuous
 62
     7
370
    15
100
AcDbLine
 10
0.2679022303
 20
6.5239300985
 30
0.0
 11
0.2679022303
 21
5.6489303932
 31
0.0
  0
LINE
  5
1BC
330
1F
100
AcDbEntity
  8
0
  6
Continuous
 62
     7
370
    15
100
AcDbLine
 10
0.2679022303
 20
6.5239300985
 30
0.0
 11
1.4554022586
 21
6.5239300985
 31
0.0
  0
ARC
  5
1BD
330
1F
100
AcDbEntity
  8
0
  6
Continuous
 62
     7
370
    15
100
AcDbCircle
 10
0.5804022303
 20
5.6489303833
 30
0.0
 40
0.3125000000000061
100
AcDbArc
 50
180.0
 51
270.0
  0
LINE
  5
1BE
330
1F
100
AcDbEntity
  8
0
  6
Continuous
 62
     7
370
    15
100
AcDbLine
 10
1.4554022586
 20
6.5239300985
 30
0.0
 11
1.4554022586
 21
5.3364301633
 31
0.0
  0
LINE
  5
1BF
330
1F
100
AcDbEntity
  8
0
  6
Continuous
 62
     7
370
    15
100
AcDbLine
 10
1.4554022586
 20
5.3364301633
 30
0.0
 11
0.5804022234
 21
5.3364301633
 31
0.0
  0
LINE
  5
1C0
330
1F
100
AcDbEntity
  8
0
  6
Continuous
 62
     7
370
    15
100
AcDbLine
 10
10.4796273167
 20
1.8970403487
 30
0.0
 11
11.4450770704
 21
3.0990744894
 31
0.0
  0
LINE
  5
1C1
330
1F
100
AcDbEntity
  8
0
  6
Continuous
 62
     7
370
    15
100
AcDbLine
 10
12.5961471864
 20
1.9424570641
 30
0.0
 11
10.4796273167
 21
1.8970403487
 31
0.0
  0
CIRCLE
  5
1C2
330
1F
100
AcDbEntity
  8
0
  6
Continuous
 62
     7
370
    15
100
AcDbCircle
 10
11.7374485057
 20
2.8642472951
 30
0.0
 40
0.1250000000000002
  0
LINE
  5
1C3
330
1F
100
AcDbEntity
  8
0
  6
Continuous
 62
     7
370
    15
100
AcDbLine
 10
12.0754865345
 20
3.0265914867
 30
0.0
 11
12.5961471864
 21
1.9424570641
 31
0.0
  0
ARC
  5
1C4
330
1F
100
AcDbEntity
  8
0
  6
Continuous
 62
     7
370
    15
100
AcDbCircle
 10
11.7374485057
 20
2.8642472951
 30
0.0
 40
0.3749999999999999
100
AcDbArc
 50
25.6528871126
 51
141.2292765949
  0
CIRCLE
  5
1C5
330
1F
100
AcDbEntity
  8
0
  6
Continuous
 62
     7
370
    15
100
AcDbCircle
 10
11.7374485057
 20
6.0012551691
 30
0.0
 40
0.1250000000000016
  0
LINE
  5
1C6
330
1F
100
AcDbEntity
  8
0
  6
Continuous
 62
     7
370
    15
100
AcDbLine
 10
10.4796273167
 20
5.0340480564
 30
0.0
 11
11.4450770704
 21
6.2360824904
 31
0.0
  0
ARC
  5
1C7
330
1F
100
AcDbEntity
  8
0
  6
Continuous
 62
     7
370
    15
100
AcDbCircle
 10
11.7374485057
 20
6.0012551691
 30
0.0
 40
0.3749999999999995
100
AcDbArc
 50
25.6528871126
 51
141.2292765949
  0
LINE
  5
1C8
330
1F
100
AcDbEntity
  8
0
  6
Continuous
 62
     7
370
    15
100
AcDbLine
 10
12.0754865345
 20
6.1635994877
 30
0.0
 11
12.5961471864
 21
5.0794649184
 31
0.0
  0
LINE
  5
1C9
330
1F
100
AcDbEntity
  8
0
  6
Continuous
 62
     7
370
    15
100
AcDbLine
 10
12.5961471864
 20
5.0794649184
 30
0.0
 11
10.4796273167
 21
5.0340480564
 31
0.0
  0
CIRCLE
  5
1CA
330
1F
100
AcDbEntity
  8
0
  6
Continuous
 62
     7
370
    15
100
AcDbCircle
 10
11.7374485057
 20
4.4327512321
 30
0.0
 40
0.1249999999999998
  0
LINE
  5
1CB
330
1F
100
AcDbEntity
  8
0
  6
Continuous
 62
     7
370
    15
100
AcDbLine
 10
10.4796273167
 20
3.4655442026
 30
0.0
 11
11.4450770704
 21
4.6675783432
 31
0.0
  0
ARC
  5
1CC
330
1F
100
AcDbEntity
  8
0
  6
Continuous
 62
     7
370
    15
100
AcDbCircle
 10
11.7374485057
 20
4.4327512321
 30
0.0
 40
0.3749999999999999
100
AcDbArc
 50
25.6528871126
 51
141.2292765949
  0
LINE
  5
1CD
330
1F
100
AcDbEntity
  8
0
  6
Continuous
 62
     7
370
    15
100
AcDbLine
 10
12.5961471864
 20
3.5109610646
 30
0.0
 11
10.4796273167
 21
3.4655442026
 31
0.0
  0
LINE
  5
1CE
330
1F
100
AcDbEntity
  8
0
  6
Continuous
 62
     7
370
    15
100
AcDbLine
 10
12.0754865345
 20
4.5950953406
 30
0.0
 11
12.5961471864
 21
3.5109610646
 31
0.0
  0
LINE
  5
1CF
330
1F
100
AcDbEntity
  8
0
  6
Continuous
 62
     7
370
    15
100
AcDbLine
 10
10.4796273167
 20
0.3285363711
 30
0.0
 11
11.4450770704
 21
1.5305704889
 31
0.0
  0
LINE
  5
1D0
330
1F
100
AcDbEntity
  8
0
  6
Continuous
 62
     7
370
    15
100
AcDbLine
 10
12.5961471864
 20
0.3739531094
 30
0.0
 11
10.4796273167
 21
0.3285363711
 31
0.0
  0
ARC
  5
1D1
330
1F
100
AcDbEntity
  8
0
  6
Continuous
 62
     7
370
    15
100
AcDbCircle
 10
11.7374485057
 20
1.2957433581
 30
0.0
 40
0.3749999999999999
100
AcDbArc
 50
25.6528871126
 51
141.2292765949
  0
CIRCLE
  5
1D2
330
1F
100
AcDbEntity
  8
0
  6
Continuous
 62
     7
370
    15
100
AcDbCircle
 10
11.7374485057
 20
1.2957433581
 30
0.0
 40
0.1250000000000002
  0
LINE
  5
1D3
330
1F
100
AcDbEntity
  8
0
  6
Continuous
 62
     7
370
    15
100
AcDbLine
 10
12.0754865345
 20
1.4580876329
 30
0.0
 11
12.5961471864
 21
0.3739531094
 31
0.0
  0
LINE
  5
1D4
330
1F
100
AcDbEntity
  8
0
  6
Continuous
 62
     7
370
    15
100
AcDbLine
 10
9.5779058401
 20
0.493633881
 30
0.0
 11
8.995736832
 21
1.6311807533
 31
0.0
  0
LINE
  5
1D5
330
1F
100
AcDbEntity
  8
0
  6
Continuous
 62
     7
370
    15
100
AcDbLine
 10
11.2164780045
 20
1.5673791437
 30
0.0
 11
10.1919551199
 21
0.4152808695
 31
0.0
  0
ARC
  5
1D6
330
1F
100
AcDbEntity
  8
0
  6
Continuous
 62
     7
370
    15
100
AcDbCircle
 10
9.9117290934
 20
0.6644765476
 30
0.0
 40
0.3750000000000037
100
AcDbArc
 50
207.1022869816
 51
318.3543495953
  0
CIRCLE
  5
1D7
330
1F
100
AcDbEntity
  8
0
  6
Continuous
 62
     7
370
    15
100
AcDbCircle
 10
9.9117290934
 20
0.6644765476
 30
0.0
 40
0.1250000000000012
  0
LINE
  5
1D8
330
1F
100
AcDbEntity
  8
0
  6
Continuous
 62
     7
370
    15
100
AcDbLine
 10
8.995736832
 20
1.6311807533
 30
0.0
 11
11.2164780045
 21
1.5673791437
 31
0.0
  0
LINE
  5
1D9
330
1F
100
AcDbEntity
  8
0
  6
Continuous
 62
     7
370
    15
100
AcDbLine
 10
11.2164780045
 20
6.2728907052
 30
0.0
 11
10.1919551199
 21
5.120792761
 31
0.0
  0
CIRCLE
  5
1DA
330
1F
100
AcDbEntity
  8
0
  6
Continuous
 62
     7
370
    15
100
AcDbCircle
 10
9.9117290934
 20
5.3699883586
 30
0.0
 40
0.1250000000000012
  0
ARC
  5
1DB
330
1F
100
AcDbEntity
  8
0
  6
Continuous
 62
     7
370
    15
100
AcDbCircle
 10
9.9117290934
 20
5.3699883586
 30
0.0
 40
0.3750000000000035
100
AcDbArc
 50
207.1022869816
 51
318.3543495953
  0
LINE
  5
1DC
330
1F
100
AcDbEntity
  8
0
  6
Continuous
 62
     7
370
    15
100
AcDbLine
 10
8.995736832
 20
6.3366929015
 30
0.0
 11
11.2164780045
 21
6.2728907052
 31
0.0
  0
LINE
  5
1DD
330
1F
100
AcDbEntity
  8
0
  6
Continuous
 62
     7
370
    15
100
AcDbLine
 10
9.5779058401
 20
5.1991458825
 30
0.0
 11
8.995736832
 21
6.3366929015
 31
0.0
  0
LINE
  5
1DE
330
1F
100
AcDbEntity
  8
0
  6
Continuous
 62
     7
370
    15
100
AcDbLine
 10
9.5779058401
 20
3.6306417353
 30
0.0
 11
8.995736832
 21
4.7681887543
 31
0.0
  0
LINE
  5
1DF
330
1F
100
AcDbEntity
  8
0
  6
Continuous
 62
     7
370
    15
100
AcDbLine
 10
8.995736832
 20
4.7681887543
 30
0.0
 11
11.2164780045
 21
4.7043868513
 31
0.0
  0
LINE
  5
1E0
330
1F
100
AcDbEntity
  8
0
  6
Continuous
 62
     7
370
    15
100
AcDbLine
 10
11.2164780045
 20
4.7043868513
 30
0.0
 11
10.1919551199
 21
3.5522886138
 31
0.0
  0
ARC
  5
1E1
330
1F
100
AcDbEntity
  8
0
  6
Continuous
 62
     7
370
    15
100
AcDbCircle
 10
9.9117290934
 20
3.8014844216
 30
0.0
 40
0.3750000000000035
100
AcDbArc
 50
207.1022869816
 51
318.3543495953
  0
CIRCLE
  5
1E2
330
1F
100
AcDbEntity
  8
0
  6
Continuous
 62
     7
370
    15
100
AcDbCircle
 10
9.9117290934
 20
3.8014844216
 30
0.0
 40
0.1250000000000012
  0
LINE
  5
1E3
330
1F
100
AcDbEntity
  8
0
  6
Continuous
 62
     7
370
    15
100
AcDbLine
 10
11.2164780045
 20
3.1358829975
 30
0.0
 11
10.1919551199
 21
1.98378476
 31
0.0
  0
CIRCLE
  5
1E4
330
1F
100
AcDbEntity
  8
0
  6
Continuous
 62
     7
370
    15
100
AcDbCircle
 10
9.9117290934
 20
2.2329804846
 30
0.0
 40
0.1250000000000012
  0
ARC
  5
1E5
330
1F
100
AcDbEntity
  8
0
  6
Continuous
 62
     7
370
    15
100
AcDbCircle
 10
9.9117290934
 20
2.2329804846
 30
0.0
 40
0.3750000000000038
100
AcDbArc
 50
207.1022869816
 51
318.3543495953
  0
LINE
  5
1E6
330
1F
100
AcDbEntity
  8
0
  6
Continuous
 62
     7
370
    15
100
AcDbLine
 10
8.995736832
 20
3.1996846071
 30
0.0
 11
11.2164780045
 21
3.1358829975
 31
0.0
  0
LINE
  5
1E7
330
1F
100
AcDbEntity
  8
0
  6
Continuous
 62
     7
370
    15
100
AcDbLine
 10
9.5779058401
 20
2.0621378815
 30
0.0
 11
8.995736832
 21
3.1996846071
 31
0.0
  0
LINE
  5
1E8
330
1F
100
AcDbEntity
  8
0
  6
Continuous
 62
     7
370
    15
100
AcDbLine
 10
8.621633207
 20
5.0373002055
 30
0.0
 11
9.1886787098
 21
5.2859809327
 31
0.0
  0
LINE
  5
1E9
330
1F
100
AcDbEntity
  8
0
  6
Continuous
 62
     7
370
    15
100
AcDbLine
 10
7.4133179923
 20
4.9913107634
 30
0.0
 11
8.621633207
 21
5.0373002055
 31
0.0
  0
LINE
  5
1EA
330
1F
100
AcDbEntity
  8
0
  6
Continuous
 62
     7
370
    15
100
AcDbLine
 10
7.4133179923
 20
4.9913107634
 30
0.0
 11
8.2466325791
 21
6.0648264954
 31
0.0
  0
ARC
  5
1EB
330
1F
100
AcDbEntity
  8
0
  6
Continuous
 62
     7
370
    15
100
AcDbCircle
 10
8.5428589144
 20
5.8348812862
 30
0.0
 40
0.3750000000000038
100
AcDbArc
 50
23.3781020605
 51
142.1796733272
  0
LINE
  5
1EC
330
1F
100
AcDbEntity
  8
0
  6
Continuous
 62
     7
370
    15
100
AcDbLine
 10
9.1886787098
 20
5.2859809327
 30
0.0
 11
8.8870739273
 21
5.9836802862
 31
0.0
  0
CIRCLE
  5
1ED
330
1F
100
AcDbEntity
  8
0
  6
Continuous
 62
     7
370
    15
100
AcDbCircle
 10
8.5428589144
 20
5.8348812862
 30
0.0
 40
0.124999999999995
  0
LINE
  5
1EE
330
1F
100
AcDbEntity
  8
0
  6
Continuous
 62
     7
370
    15
100
AcDbLine
 10
8.621633207
 20
3.4687963517
 30
0.0
 11
9.1886787098
 21
3.7174770789
 31
0.0
  0
LINE
  5
1EF
330
1F
100
AcDbEntity
  8
0
  6
Continuous
 62
     7
370
    15
100
AcDbLine
 10
7.4133179923
 20
3.4228069096
 30
0.0
 11
8.621633207
 21
3.4687963517
 31
0.0
  0
LINE
  5
1F0
330
1F
100
AcDbEntity
  8
0
  6
Continuous
 62
     7
370
    15
100
AcDbLine
 10
7.4133179923
 20
3.4228069096
 30
0.0
 11
8.2466325791
 21
4.4963226416
 31
0.0
  0
ARC
  5
1F1
330
1F
100
AcDbEntity
  8
0
  6
Continuous
 62
     7
370
    15
100
AcDbCircle
 10
8.5428589144
 20
4.2663773492
 30
0.0
 40
0.3750000000000033
100
AcDbArc
 50
23.3781020605
 51
142.1796733272
  0
LINE
  5
1F2
330
1F
100
AcDbEntity
  8
0
  6
Continuous
 62
     7
370
    15
100
AcDbLine
 10
9.1886787098
 20
3.7174770789
 30
0.0
 11
8.8870739273
 21
4.415176139
 31
0.0
  0
CIRCLE
  5
1F3
330
1F
100
AcDbEntity
  8
0
  6
Continuous
 62
     7
370
    15
100
AcDbCircle
 10
8.5428589144
 20
4.2663773492
 30
0.0
 40
0.124999999999995
  0
ARC
  5
1F4
330
1F
100
AcDbEntity
  8
0
  6
Continuous
 62
     7
370
    15
100
AcDbCircle
 10
8.6080867577
 20
1.1121332428
 30
0.0
 40
0.3750000000000016
100
AcDbArc
 50
16.5892569806
 51
141.9037767672
  0
LINE
  5
1F5
330
1F
100
AcDbEntity
  8
0
  6
Continuous
 62
     7
370
    15
100
AcDbLine
 10
9.2316574133
 20
0.3324185425
 30
0.0
 11
8.9674780118
 21
1.2191989925
 31
0.0
  0
LINE
  5
1F6
330
1F
100
AcDbEntity
  8
0
  6
Continuous
 62
     7
370
    15
100
AcDbLine
 10
7.4744966455
 20
0.2740115679
 30
0.0
 11
9.2316574133
 21
0.3324185425
 31
0.0
  0
LINE
  5
1F7
330
1F
100
AcDbEntity
  8
0
  6
Continuous
 62
     7
370
    15
100
AcDbLine
 10
7.4744966455
 20
0.2740115679
 30
0.0
 11
8.3129709061
 21
1.3435022499
 31
0.0
  0
CIRCLE
  5
1F8
330
1F
100
AcDbEntity
  8
0
  6
Continuous
 62
     7
370
    15
100
AcDbCircle
 10
8.6080867577
 20
1.1121332428
 30
0.0
 40
0.124999999999997
  0
LINE
  5
1F9
330
1F
100
AcDbEntity
  8
0
  6
Continuous
 62
     7
370
    15
100
AcDbLine
 10
9.2316574133
 20
1.9009224239
 30
0.0
 11
8.9674780118
 21
2.787702993
 31
0.0
  0
CIRCLE
  5
1FA
330
1F
100
AcDbEntity
  8
0
  6
Continuous
 62
     7
370
    15
100
AcDbCircle
 10
8.6080867577
 20
2.6806371798
 30
0.0
 40
0.124999999999997
  0
ARC
  5
1FB
330
1F
100
AcDbEntity
  8
0
  6
Continuous
 62
     7
370
    15
100
AcDbCircle
 10
8.6080867577
 20
2.6806371798
 30
0.0
 40
0.3750000000000014
100
AcDbArc
 50
16.5892569806
 51
141.9037767672
  0
LINE
  5
1FC
330
1F
100
AcDbEntity
  8
0
  6
Continuous
 62
     7
370
    15
100
AcDbLine
 10
7.4744966455
 20
1.8425154453
 30
0.0
 11
9.2316574133
 21
1.9009224239
 31
0.0
  0
LINE
  5
1FD
330
1F
100
AcDbEntity
  8
0
  6
Continuous
 62
     7
370
    15
100
AcDbLine
 10
7.4744966455
 20
1.8425154453
 30
0.0
 11
8.3129709061
 21
2.9120062504
 31
0.0
  0
LINE
  5
1FE
330
1F
100
AcDbEntity
  8
0
  6
Continuous
 62
     7
370
    15
100
AcDbLine
 10
8.1854351527
 20
1.6088381047
 30
0.0
 11
6.2403977286
 21
1.5579352394
 31
0.0
  0
CIRCLE
  5
1FF
330
1F
100
AcDbEntity
  8
0
  6
Continuous
 62
     7
370
    15
100
AcDbCircle
 10
6.9321830166
 20
0.6357179199
 30
0.0
 40
0.1250000000000006
  0
ARC
  5
200
330
1F
100
AcDbEntity
  8
0
  6
Continuous
 62
     7
370
    15
100
AcDbCircle
 10
6.9321830166
 20
0.6357179199
 30
0.0
 40
0.3749999999999997
100
AcDbArc
 50
197.8920712898
 51
321.4991251445
  0
LINE
  5
201
330
1F
100
AcDbEntity
  8
0
  6
Continuous
 62
     7
370
    15
100
AcDbLine
 10
6.2403977286
 20
1.5579352394
 30
0.0
 11
6.5753189262
 21
0.5205085689
 31
0.0
  0
LINE
  5
202
330
1F
100
AcDbEntity
  8
0
  6
Continuous
 62
     7
370
    15
100
AcDbLine
 10
7.2256572268
 20
0.4022704489
 30
0.0
 11
8.1854351527
 21
1.6088381047
 31
0.0
  0
LINE
  5
203
330
1F
100
AcDbEntity
  8
0
  6
Continuous
 62
     7
370
    15
100
AcDbLine
 10
6.2403977286
 20
4.6949430938
 30
0.0
 11
6.5753189262
 21
3.6575163315
 31
0.0
  0
ARC
  5
204
330
1F
100
AcDbEntity
  8
0
  6
Continuous
 62
     7
370
    15
100
AcDbCircle
 10
6.9321830166
 20
3.7727257939
 30
0.0
 40
0.3749999999999995
100
AcDbArc
 50
197.8920712898
 51
321.4991251445
  0
LINE
  5
205
330
1F
100
AcDbEntity
  8
0
  6
Continuous
 62
     7
370
    15
100
AcDbLine
 10
8.1854351527
 20
4.7458461057
 30
0.0
 11
6.2403977286
 21
4.6949430938
 31
0.0
  0
CIRCLE
  5
206
330
1F
100
AcDbEntity
  8
0
  6
Continuous
 62
     7
370
    15
100
AcDbCircle
 10
6.9321830166
 20
3.7727257939
 30
0.0
 40
0.1250000000000008
  0
LINE
  5
207
330
1F
100
AcDbEntity
  8
0
  6
Continuous
 62
     7
370
    15
100
AcDbLine
 10
7.2256572268
 20
3.5392782574
 30
0.0
 11
8.1854351527
 21
4.7458461057
 31
0.0
  0
CIRCLE
  5
208
330
1F
100
AcDbEntity
  8
0
  6
Continuous
 62
     7
370
    15
100
AcDbCircle
 10
6.9321830166
 20
2.2042218569
 30
0.0
 40
0.1250000000000004
  0
LINE
  5
209
330
1F
100
AcDbEntity
  8
0
  6
Continuous
 62
     7
370
    15
100
AcDbLine
 10
7.2256572268
 20
1.9707744036
 30
0.0
 11
8.1854351527
 21
3.1773422519
 31
0.0
  0
ARC
  5
20A
330
1F
100
AcDbEntity
  8
0
  6
Continuous
 62
     7
370
    15
100
AcDbCircle
 10
6.9321830166
 20
2.2042218569
 30
0.0
 40
0.3749999999999998
100
AcDbArc
 50
197.8920712898
 51
321.4991251445
  0
LINE
  5
20B
330
1F
100
AcDbEntity
  8
0
  6
Continuous
 62
     7
370
    15
100
AcDbLine
 10
6.2403977286
 20
3.1264392399
 30
0.0
 11
6.5753189262
 21
2.0890124777
 31
0.0
  0
LINE
  5
20C
330
1F
100
AcDbEntity
  8
0
  6
Continuous
 62
     7
370
    15
100
AcDbLine
 10
8.1854351527
 20
3.1773422519
 30
0.0
 11
6.2403977286
 21
3.1264392399
 31
0.0
  0
LINE
  5
20D
330
1F
100
AcDbEntity
  8
0
  6
Continuous
 62
     7
370
    15
100
AcDbLine
 10
7.2256572268
 20
5.1077824046
 30
0.0
 11
8.1854351527
 21
6.3143499596
 31
0.0
  0
ARC
  5
20E
330
1F
100
AcDbEntity
  8
0
  6
Continuous
 62
     7
370
    15
100
AcDbCircle
 10
6.9321830166
 20
5.341229731
 30
0.0
 40
0.3749999999999998
100
AcDbArc
 50
197.8920712898
 51
321.4991251445
  0
LINE
  5
20F
330
1F
100
AcDbEntity
  8
0
  6
Continuous
 62
     7
370
    15
100
AcDbLine
 10
6.2403977286
 20
6.2634472409
 30
0.0
 11
6.5753189262
 21
5.2260201854
 31
0.0
  0
LINE
  5
210
330
1F
100
AcDbEntity
  8
0
  6
Continuous
 62
     7
370
    15
100
AcDbLine
 10
8.1854351527
 20
6.3143499596
 30
0.0
 11
6.2403977286
 21
6.2634472409
 31
0.0
  0
CIRCLE
  5
211
330
1F
100
AcDbEntity
  8
0
  6
Continuous
 62
     7
370
    15
100
AcDbCircle
 10
6.9321830166
 20
5.341229731
 30
0.0
 40
0.1250000000000004
  0
LINE
  5
212
330
1F
100
AcDbEntity
  8
0
  6
Continuous
 62
     7
370
    15
100
AcDbLine
 10
4.2826837576
 20
6.3038229345
 30
0.0
 11
5.0542386046
 21
6.3038229345
 31
0.0
  0
LINE
  5
213
330
1F
100
AcDbEntity
  8
0
  6
Continuous
 62
     7
370
    15
100
AcDbLine
 10
5.0542386046
 20
6.3038229345
 30
0.0
 11
4.0473598094
 21
5.1038717298
 31
0.0
  0
LINE
  5
214
330
1F
100
AcDbEntity
  8
0
  6
Continuous
 62
     7
370
    15
100
AcDbLine
 10
4.0473598094
 20
5.1038717298
 30
0.0
 11
3.9133807705
 21
5.8637048188
 31
0.0
  0
ARC
  5
215
330
1F
100
AcDbEntity
  8
0
  6
Continuous
 62
     7
370
    15
100
AcDbCircle
 10
4.282683628
 20
5.9288229619
 30
0.0
 40
0.3750000000000016
100
AcDbArc
 50
90.0
 51
190.0
  0
CIRCLE
  5
216
330
1F
100
AcDbEntity
  8
0
  6
Continuous
 62
     7
370
    15
100
AcDbCircle
 10
4.282683628
 20
5.9288229619
 30
0.0
 40
0.124999999999998
  0
LINE
  5
217
330
1F
100
AcDbEntity
  8
0
  6
Continuous
 62
     7
370
    15
100
AcDbLine
 10
4.2826837576
 20
1.5983110797
 30
0.0
 11
5.0542386046
 21
1.5983110797
 31
0.0
  0
LINE
  5
218
330
1F
100
AcDbEntity
  8
0
  6
Continuous
 62
     7
370
    15
100
AcDbLine
 10
5.0542386046
 20
1.5983110797
 30
0.0
 11
4.0473598094
 21
0.3983598199
 31
0.0
  0
LINE
  5
219
330
1F
100
AcDbEntity
  8
0
  6
Continuous
 62
     7
370
    15
100
AcDbLine
 10
4.0473598094
 20
0.3983598199
 30
0.0
 11
3.9133807705
 21
1.1581931106
 31
0.0
  0
ARC
  5
21A
330
1F
100
AcDbEntity
  8
0
  6
Continuous
 62
     7
370
    15
100
AcDbCircle
 10
4.282683628
 20
1.2233111509
 30
0.0
 40
0.3750000000000016
100
AcDbArc
 50
90.0
 51
190.0
  0
CIRCLE
  5
21B
330
1F
100
AcDbEntity
  8
0
  6
Continuous
 62
     7
370
    15
100
AcDbCircle
 10
4.282683628
 20
1.2233111509
 30
0.0
 40
0.1249999999999981
  0
LINE
  5
21C
330
1F
100
AcDbEntity
  8
0
  6
Continuous
 62
     7
370
    15
100
AcDbLine
 10
4.2826837576
 20
4.7353190807
 30
0.0
 11
5.0542386046
 21
4.7353190807
 31
0.0
  0
LINE
  5
21D
330
1F
100
AcDbEntity
  8
0
  6
Continuous
 62
     7
370
    15
100
AcDbLine
 10
5.0542386046
 20
4.7353190807
 30
0.0
 11
4.0473598094
 21
3.5353675826
 31
0.0
  0
LINE
  5
21E
330
1F
100
AcDbEntity
  8
0
  6
Continuous
 62
     7
370
    15
100
AcDbLine
 10
4.0473598094
 20
3.5353675826
 30
0.0
 11
3.9133807705
 21
4.295200965
 31
0.0
  0
ARC
  5
21F
330
1F
100
AcDbEntity
  8
0
  6
Continuous
 62
     7
370
    15
100
AcDbCircle
 10
4.282683628
 20
4.3603190249
 30
0.0
 40
0.3750000000000017
100
AcDbArc
 50
90.0
 51
190.0
  0
CIRCLE
  5
220
330
1F
100
AcDbEntity
  8
0
  6
Continuous
 62
     7
370
    15
100
AcDbCircle
 10
4.282683628
 20
4.3603190249
 30
0.0
 40
0.124999999999998
  0
LINE
  5
221
330
1F
100
AcDbEntity
  8
0
  6
Continuous
 62
     7
370
    15
100
AcDbLine
 10
4.2826837576
 20
3.1668152268
 30
0.0
 11
5.0542386046
 21
3.1668152268
 31
0.0
  0
LINE
  5
222
330
1F
100
AcDbEntity
  8
0
  6
Continuous
 62
     7
370
    15
100
AcDbLine
 10
5.0542386046
 20
3.1668152268
 30
0.0
 11
4.0473598094
 21
1.9668637288
 31
0.0
  0
LINE
  5
223
330
1F
100
AcDbEntity
  8
0
  6
Continuous
 62
     7
370
    15
100
AcDbLine
 10
4.0473598094
 20
1.9668637288
 30
0.0
 11
3.9133807705
 21
2.7266969644
 31
0.0
  0
ARC
  5
224
330
1F
100
AcDbEntity
  8
0
  6
Continuous
 62
     7
370
    15
100
AcDbCircle
 10
4.282683628
 20
2.7918150879
 30
0.0
 40
0.3750000000000017
100
AcDbArc
 50
90.0
 51
190.0
  0
CIRCLE
  5
225
330
1F
100
AcDbEntity
  8
0
  6
Continuous
 62
     7
370
    15
100
AcDbCircle
 10
4.282683628
 20
2.7918150879
 30
0.0
 40
0.1249999999999983
  0
LINE
  5
226
330
1F
100
AcDbEntity
  8
0
  6
Continuous
 62
     7
370
    15
100
AcDbLine
 10
5.3671955492
 20
7.9384762109
 30
0.0
 11
5.4445842019
 21
8.0626333899
 31
0.0
  0
LINE
  5
227
330
1F
100
AcDbEntity
  8
0
  6
Continuous
 62
     7
370
    15
100
AcDbLine
 10
4.6783902531
 20
7.7786401373
 30
0.0
 11
4.4461741356
 21
7.9233837985
 31
0.0
  0
ARC
  5
228
330
1F
100
AcDbEntity
  8
0
  6
Continuous
 62
     7
370
    15
100
AcDbCircle
 10
4.9428749932
 20
8.2029607299
 30
0.0
 40
0.4999999999999998
100
AcDbArc
 50
238.0641580438
 51
328.0641580438
  0
LINE
  5
229
330
1F
100
AcDbEntity
  8
0
  6
Continuous
 62
     7
370
    15
100
AcDbLine
 10
4.4606115422
 20
6.7130205541
 30
0.0
 11
4.4461741356
 21
7.9233837985
 31
0.0
  0
ARC
  5
22A
330
1F
100
AcDbEntity
  8
0
  6
Continuous
 62
     7
370
    15
100
AcDbCircle
 10
4.9605761118
 20
6.7189840891
 30
0.0
 40
0.5000000000000143
100
AcDbArc
 50
0.683401115
 51
180.683401115
  0
LINE
  5
22B
330
1F
100
AcDbEntity
  8
0
  6
Continuous
 62
     7
370
    15
100
AcDbLine
 10
5.4605407642
 20
6.7249479363
 30
0.0
 11
5.4445842019
 21
8.0626333899
 31
0.0
  0
LINE
  5
22C
330
1F
100
AcDbEntity
  8
0
  6
Continuous
 62
     7
370
    15
100
AcDbLine
 10
4.1920365915
 20
6.7249479363
 30
0.0
 11
4.1760806158
 21
8.0626333899
 31
0.0
  0
ARC
  5
22D
330
1F
100
AcDbEntity
  8
0
  6
Continuous
 62
     7
370
    15
100
AcDbCircle
 10
3.6920721748
 20
6.7189840891
 30
0.0
 40
0.5000000000000139
100
AcDbArc
 50
0.683401115
 51
180.683401115
  0
LINE
  5
22E
330
1F
100
AcDbEntity
  8
0
  6
Continuous
 62
     7
370
    15
100
AcDbLine
 10
3.4098863736
 20
7.7786401373
 30
0.0
 11
3.1776702562
 21
7.9233837985
 31
0.0
  0
ARC
  5
22F
330
1F
100
AcDbEntity
  8
0
  6
Continuous
 62
     7
370
    15
100
AcDbCircle
 10
3.6743710562
 20
8.2029607299
 30
0.0
 40
0.4999999999999998
100
AcDbArc
 50
238.0641580438
 51
328.0641580438
  0
LINE
  5
230
330
1F
100
AcDbEntity
  8
0
  6
Continuous
 62
     7
370
    15
100
AcDbLine
 10
4.0986916698
 20
7.9384762109
 30
0.0
 11
4.1760806158
 21
8.0626333899
 31
0.0
  0
LINE
  5
231
330
1F
100
AcDbEntity
  8
0
  6
Continuous
 62
     7
370
    15
100
AcDbLine
 10
3.1921076627
 20
6.7130205541
 30
0.0
 11
3.1776702562
 21
7.9233837985
 31
0.0
  0
LINE
  5
232
330
1F
100
AcDbEntity
  8
0
  6
Continuous
 62
     7
370
    15
100
AcDbLine
 10
3.557439549
 20
3.1405363837
 30
0.0
 11
2.8732339597
 21
2.8047346096
 31
0.0
  0
LINE
  5
233
330
1F
100
AcDbEntity
  8
0
  6
Continuous
 62
     7
370
    15
100
AcDbLine
 10
2.8732339597
 20
2.8047346096
 30
0.0
 11
2.1332339349
 21
2.8047346096
 31
0.0
  0
LINE
  5
234
330
1F
100
AcDbEntity
  8
0
  6
Continuous
 62
     7
370
    15
100
AcDbLine
 10
2.1332339349
 20
2.8047346096
 30
0.0
 11
2.1332339349
 21
3.8047348175
 31
0.0
  0
LINE
  5
235
330
1F
100
AcDbEntity
  8
0
  6
Continuous
 62
     7
370
    15
100
AcDbLine
 10
2.1332339349
 20
3.8047348175
 30
0.0
 11
3.4032339438
 21
3.8047348175
 31
0.0
  0
ARC
  5
236
330
1F
100
AcDbEntity
  8
0
  6
Continuous
 62
     7
370
    15
100
AcDbCircle
 10
3.403233897
 20
3.4547347247
 30
0.0
 40
0.3500000000000085
100
AcDbArc
 50
296.1413653138
 51
90.0
  0
CIRCLE
  5
237
330
1F
100
AcDbEntity
  8
0
  6
Continuous
 62
     7
370
    15
100
AcDbCircle
 10
3.403233897
 20
3.4547347247
 30
0.0
 40
0.1249999999999951
  0
LINE
  5
238
330
1F
100
AcDbEntity
  8
0
  6
Continuous
 62
     7
370
    15
100
AcDbLine
 10
1.0047299848
 20
0.2677268507
 30
0.0
 11
0.26472996
 21
0.2677268507
 31
0.0
  0
LINE
  5
239
330
1F
100
AcDbEntity
  8
0
  6
Continuous
 62
     7
370
    15
100
AcDbLine
 10
0.26472996
 20
1.2677268386
 30
0.0
 11
1.5347299689
 21
1.2677268386
 31
0.0
  0
ARC
  5
23A
330
1F
100
AcDbEntity
  8
0
  6
Continuous
 62
     7
370
    15
100
AcDbCircle
 10
1.53472996
 20
0.9177268507
 30
0.0
 40
0.3500000000000082
100
AcDbArc
 50
296.1413653138
 51
90.0
  0
LINE
  5
23B
330
1F
100
AcDbEntity
  8
0
  6
Continuous
 62
     7
370
    15
100
AcDbLine
 10
0.26472996
 20
0.2677268507
 30
0.0
 11
0.26472996
 21
1.2677268386
 31
0.0
  0
CIRCLE
  5
23C
330
1F
100
AcDbEntity
  8
0
  6
Continuous
 62
     7
370
    15
100
AcDbCircle
 10
1.53472996
 20
0.9177268507
 30
0.0
 40
0.124999999999995
  0
LINE
  5
23D
330
1F
100
AcDbEntity
  8
0
  6
Continuous
 62
     7
370
    15
100
AcDbLine
 10
1.6889355742
 20
0.6035284415
 30
0.0
 11
1.0047299848
 21
0.2677268507
 31
0.0
  0
LINE
  5
23E
330
1F
100
AcDbEntity
  8
0
  6
Continuous
 62
     7
370
    15
100
AcDbLine
 10
3.557439549
 20
1.8720323576
 30
0.0
 11
2.8732339597
 21
1.5362307301
 31
0.0
  0
LINE
  5
23F
330
1F
100
AcDbEntity
  8
0
  6
Continuous
 62
     7
370
    15
100
AcDbLine
 10
2.1332339349
 20
2.5362307914
 30
0.0
 11
3.4032339438
 21
2.5362307914
 31
0.0
  0
ARC
  5
240
330
1F
100
AcDbEntity
  8
0
  6
Continuous
 62
     7
370
    15
100
AcDbCircle
 10
3.403233897
 20
2.1862307877
 30
0.0
 40
0.3500000000000085
100
AcDbArc
 50
296.1413653138
 51
90.0
  0
CIRCLE
  5
241
330
1F
100
AcDbEntity
  8
0
  6
Continuous
 62
     7
370
    15
100
AcDbCircle
 10
3.403233897
 20
2.1862307877
 30
0.0
 40
0.1249999999999951
  0
LINE
  5
242
330
1F
100
AcDbEntity
  8
0
  6
Continuous
 62
     7
370
    15
100
AcDbLine
 10
2.1332339349
 20
1.5362307301
 30
0.0
 11
2.1332339349
 21
2.5362307914
 31
0.0
  0
LINE
  5
243
330
1F
100
AcDbEntity
  8
0
  6
Continuous
 62
     7
370
    15
100
AcDbLine
 10
2.8732339597
 20
1.5362307301
 30
0.0
 11
2.1332339349
 21
1.5362307301
 31
0.0
  0
LINE
  5
244
330
1F
100
AcDbEntity
  8
0
  6
Continuous
 62
     7
370
    15
100
AcDbLine
 10
1.6889355742
 20
4.4090402632
 30
0.0
 11
1.0047299848
 21
4.0732387824
 31
0.0
  0
LINE
  5
245
330
1F
100
AcDbEntity
  8
0
  6
Continuous
 62
     7
370
    15
100
AcDbLine
 10
1.0047299848
 20
4.0732387824
 30
0.0
 11
0.26472996
 21
4.0732387824
 31
0.0
  0
LINE
  5
246
330
1F
100
AcDbEntity
  8
0
  6
Continuous
 62
     7
370
    15
100
AcDbLine
 10
0.26472996
 20
5.073238697
 30
0.0
 11
1.5347299689
 21
5.073238697
 31
0.0
  0
CIRCLE
  5
247
330
1F
100
AcDbEntity
  8
0
  6
Continuous
 62
     7
370
    15
100
AcDbCircle
 10
1.53472996
 20
4.7232386617
 30
0.0
 40
0.1249999999999947
  0
ARC
  5
248
330
1F
100
AcDbEntity
  8
0
  6
Continuous
 62
     7
370
    15
100
AcDbCircle
 10
1.53472996
 20
4.7232386617
 30
0.0
 40
0.350000000000008
100
AcDbArc
 50
296.1413653138
 51
90.0
  0
LINE
  5
249
330
1F
100
AcDbEntity
  8
0
  6
Continuous
 62
     7
370
    15
100
AcDbLine
 10
0.26472996
 20
4.0732387824
 30
0.0
 11
0.26472996
 21
5.073238697
 31
0.0
  0
LINE
  5
24A
330
1F
100
AcDbEntity
  8
0
  6
Continuous
 62
     7
370
    15
100
AcDbLine
 10
2.1332339349
 20
4.0732387824
 30
0.0
 11
2.1332339349
 21
5.073238697
 31
0.0
  0
LINE
  5
24B
330
1F
100
AcDbEntity
  8
0
  6
Continuous
 62
     7
370
    15
100
AcDbLine
 10
2.8732339597
 20
4.0732387824
 30
0.0
 11
2.1332339349
 21
4.0732387824
 31
0.0
  0
LINE
  5
24C
330
1F
100
AcDbEntity
  8
0
  6
Continuous
 62
     7
370
    15
100
AcDbLine
 10
3.557439549
 20
4.4090402632
 30
0.0
 11
2.8732339597
 21
4.0732387824
 31
0.0
  0
CIRCLE
  5
24D
330
1F
100
AcDbEntity
  8
0
  6
Continuous
 62
     7
370
    15
100
AcDbCircle
 10
3.403233897
 20
4.7232386617
 30
0.0
 40
0.1249999999999947
  0
LINE
  5
24E
330
1F
100
AcDbEntity
  8
0
  6
Continuous
 62
     7
370
    15
100
AcDbLine
 10
2.1332339349
 20
5.073238697
 30
0.0
 11
3.4032339438
 21
5.073238697
 31
0.0
  0
ARC
  5
24F
330
1F
100
AcDbEntity
  8
0
  6
Continuous
 62
     7
370
    15
100
AcDbCircle
 10
3.403233897
 20
4.7232386617
 30
0.0
 40
0.350000000000008
100
AcDbArc
 50
296.1413653138
 51
90.0
  0
LINE
  5
250
330
1F
100
AcDbEntity
  8
0
  6
Continuous
 62
     7
370
    15
100
AcDbLine
 10
1.0047299848
 20
2.8047346096
 30
0.0
 11
0.26472996
 21
2.8047346096
 31
0.0
  0
LINE
  5
251
330
1F
100
AcDbEntity
  8
0
  6
Continuous
 62
     7
370
    15
100
AcDbLine
 10
0.26472996
 20
2.8047346096
 30
0.0
 11
0.26472996
 21
3.8047348175
 31
0.0
  0
LINE
  5
252
330
1F
100
AcDbEntity
  8
0
  6
Continuous
 62
     7
370
    15
100
AcDbLine
 10
0.26472996
 20
3.8047348175
 30
0.0
 11
1.5347299689
 21
3.8047348175
 31
0.0
  0
ARC
  5
253
330
1F
100
AcDbEntity
  8
0
  6
Continuous
 62
     7
370
    15
100
AcDbCircle
 10
1.53472996
 20
3.4547347247
 30
0.0
 40
0.3500000000000084
100
AcDbArc
 50
296.1413653138
 51
90.0
  0
CIRCLE
  5
254
330
1F
100
AcDbEntity
  8
0
  6
Continuous
 62
     7
370
    15
100
AcDbCircle
 10
1.53472996
 20
3.4547347247
 30
0.0
 40
0.1249999999999951
  0
LINE
  5
255
330
1F
100
AcDbEntity
  8
0
  6
Continuous
 62
     7
370
    15
100
AcDbLine
 10
1.6889355742
 20
3.1405363837
 30
0.0
 11
1.0047299848
 21
2.8047346096
 31
0.0
  0
LINE
  5
256
330
1F
100
AcDbEntity
  8
0
  6
Continuous
 62
     7
370
    15
100
AcDbLine
 10
1.0047299848
 20
1.5362307301
 30
0.0
 11
0.26472996
 21
1.5362307301
 31
0.0
  0
LINE
  5
257
330
1F
100
AcDbEntity
  8
0
  6
Continuous
 62
     7
370
    15
100
AcDbLine
 10
0.26472996
 20
1.5362307301
 30
0.0
 11
0.26472996
 21
2.5362307914
 31
0.0
  0
ARC
  5
258
330
1F
100
AcDbEntity
  8
0
  6
Continuous
 62
     7
370
    15
100
AcDbCircle
 10
1.53472996
 20
2.1862307877
 30
0.0
 40
0.3500000000000084
100
AcDbArc
 50
296.1413653138
 51
90.0
  0
CIRCLE
  5
259
330
1F
100
AcDbEntity
  8
0
  6
Continuous
 62
     7
370
    15
100
AcDbCircle
 10
1.53472996
 20
2.1862307877
 30
0.0
 40
0.1249999999999951
  0
LINE
  5
25A
330
1F
100
AcDbEntity
  8
0
  6
Continuous
 62
     7
370
    15
100
AcDbLine
 10
1.6889355742
 20
1.8720323576
 30
0.0
 11
1.0047299848
 21
1.5362307301
 31
0.0
  0
LINE
  5
25B
330
1F
100
AcDbEntity
  8
0
  6
Continuous
 62
     7
370
    15
100
AcDbLine
 10
0.26472996
 20
2.5362307914
 30
0.0
 11
1.5347299689
 21
2.5362307914
 31
0.0
  0
CIRCLE
  5
25C
330
1F
100
AcDbEntity
  8
0
  6
Continuous
 62
     7
370
    15
100
AcDbCircle
 10
3.403233897
 20
0.9177268507
 30
0.0
 40
0.124999999999995
  0
ARC
  5
25D
330
1F
100
AcDbEntity
  8
0
  6
Continuous
 62
     7
370
    15
100
AcDbCircle
 10
3.403233897
 20
0.9177268507
 30
0.0
 40
0.3500000000000084
100
AcDbArc
 50
296.1413653138
 51
90.0
  0
LINE
  5
25E
330
1F
100
AcDbEntity
  8
0
  6
Continuous
 62
     7
370
    15
100
AcDbLine
 10
2.8732339597
 20
0.2677268507
 30
0.0
 11
2.1332339349
 21
0.2677268507
 31
0.0
  0
LINE
  5
25F
330
1F
100
AcDbEntity
  8
0
  6
Continuous
 62
     7
370
    15
100
AcDbLine
 10
2.1332339349
 20
0.2677268507
 30
0.0
 11
2.1332339349
 21
1.2677268386
 31
0.0
  0
LINE
  5
260
330
1F
100
AcDbEntity
  8
0
  6
Continuous
 62
     7
370
    15
100
AcDbLine
 10
3.557439549
 20
0.6035284415
 30
0.0
 11
2.8732339597
 21
0.2677268507
 31
0.0
  0
LINE
  5
261
330
1F
100
AcDbEntity
  8
0
  6
Continuous
 62
     7
370
    15
100
AcDbLine
 10
2.1332339349
 20
1.2677268386
 30
0.0
 11
3.4032339438
 21
1.2677268386
 31
0.0
  0
CIRCLE
  5
262
330
1F
100
AcDbEntity
  8
0
  6
Continuous
 62
     7
370
    15
100
AcDbCircle
 10
22.3064160888
 20
7.2916061484
 30
0.0
 40
0.127952755903705
  0
CIRCLE
  5
263
330
1F
100
AcDbEntity
  8
0
  6
Continuous
 62
     7
370
    15
100
AcDbCircle
 10
23.049806798
 20
5.3822141123
 30
0.0
 40
0.1279527559859071
  0
CIRCLE
  5
264
330
1F
100
AcDbEntity
  8
0
  6
Continuous
 62
     7
370
    15
100
AcDbCircle
 10
22.2253108206
 20
3.5063914115
 30
0.0
 40
0.1279527558941661
  0
ARC
  5
265
330
1F
100
AcDbEntity
  8
0
  6
Continuous
 62
     7
370
    15
100
AcDbCircle
 10
22.9229769721
 20
6.2407841011
 30
0.0
 40
0.0699999999999933
100
AcDbArc
 50
204.60905101
 51
345.9486669831
  0
ARC
  5
266
330
1F
100
AcDbEntity
  8
0
  6
Continuous
 62
     7
370
    15
100
AcDbCircle
 10
1.1241653773
 20
11.6965871986
 30
0.0
 40
22.5411809744086
100
AcDbArc
 50
345.9486669831
 51
352.4841619135
  0
ARC
  5
267
330
1F
100
AcDbEntity
  8
0
  6
Continuous
 62
     7
370
    15
100
AcDbCircle
 10
23.4022906511
 20
8.7573511291
 30
0.0
 40
0.0700000000000077
100
AcDbArc
 50
352.4841619135
 51
142.8859992018
  0
ARC
  5
268
330
1F
100
AcDbEntity
  8
0
  6
Continuous
 62
     7
370
    15
100
AcDbCircle
 10
27.0184111528
 20
6.0211113589
 30
0.0
 40
4.604681418046281
100
AcDbArc
 50
142.8859992018
 51
163.3470215841
  0
ARC
  5
269
330
1F
100
AcDbEntity
  8
0
  6
Continuous
 62
     7
370
    15
100
AcDbCircle
 10
22.9900824672
 20
7.2260652285
 30
0.0
 40
0.4000000000000021
100
AcDbArc
 50
163.3470215841
 51
186.1131575733
  0
ARC
  5
26A
330
1F
100
AcDbEntity
  8
0
  6
Continuous
 62
     7
370
    15
100
AcDbCircle
 10
25.7101620294
 20
7.5173896719
 30
0.0
 40
3.13563571330926
100
AcDbArc
 50
186.1131575733
 51
204.60905101
  0
LINE
  5
26B
330
1F
100
AcDbEntity
  8
0
  6
Continuous
 62
     7
370
    15
100
AcDbLine
 10
23.7061784158
 20
1.1055935516
 30
0.0
 11
23.7008233843
 21
0.8556509556
 31
0.0
  0
ARC
  5
26C
330
1F
100
AcDbEntity
  8
0
  6
Continuous
 62
     7
370
    15
100
AcDbCircle
 10
23.6901126548
 20
0.3557656898
 30
0.0
 40
0.5000000000000064
100
AcDbArc
 50
88.7725191505
 51
178.7725191505
  0
LINE
  5
26D
330
1F
100
AcDbEntity
  8
0
  6
Continuous
 62
     7
370
    15
100
AcDbLine
 10
23.1902274694
 20
0.3664766607
 30
0.0
 11
23.1277411512
 21
0.3678155286
 31
0.0
  0
ARC
  5
26E
330
1F
100
AcDbEntity
  8
0
  6
Continuous
 62
     7
370
    15
100
AcDbCircle
 10
18.0736131725
 20
0.1573589315
 30
0.0
 40
5.058508427352532
100
AcDbArc
 50
2.384449211
 51
38.8919313933
  0
ARC
  5
26F
330
1F
100
AcDbEntity
  8
0
  6
Continuous
 62
     7
370
    15
100
AcDbCircle
 10
22.2253108206
 20
3.5063914115
 30
0.0
 40
0.2755905511811006
100
AcDbArc
 50
138.7953166885
 51
218.8919313933
  0
ARC
  5
270
330
1F
100
AcDbEntity
  8
0
  6
Continuous
 62
     7
370
    15
100
AcDbCircle
 10
19.6587792286
 20
5.7535905644
 30
0.0
 40
3.135712491000055
100
AcDbArc
 50
318.7953166885
 51
352.5052236908
  0
ARC
  5
271
330
1F
100
AcDbEntity
  8
0
  6
Continuous
 62
     7
370
    15
100
AcDbCircle
 10
22.3711198641
 20
5.3967557142
 30
0.0
 40
0.3999999999999995
100
AcDbArc
 50
352.5052236908
 51
5.0399212528
  0
ARC
  5
272
330
1F
100
AcDbEntity
  8
0
  6
Continuous
 62
     7
370
    15
100
AcDbCircle
 10
19.6460608573
 20
5.1564305888
 30
0.0
 40
3.135635713345907
100
AcDbArc
 50
5.0399212528
 51
38.7501932227
  0
ARC
  5
273
330
1F
100
AcDbEntity
  8
0
  6
Continuous
 62
     7
370
    15
100
AcDbCircle
 10
22.3064160888
 20
7.2916061484
 30
0.0
 40
0.2755905511811085
100
AcDbArc
 50
135.2271729377
 51
218.7501932227
  0
ARC
  5
274
330
1F
100
AcDbEntity
  8
0
  6
Continuous
 62
     7
370
    15
100
AcDbCircle
 10
19.0634124676
 20
10.5089947247
 30
0.0
 40
4.292632488249476
100
AcDbArc
 50
315.2271729378
 51
354.4887614592
  0
LINE
  5
275
330
1F
100
AcDbEntity
  8
0
  6
Continuous
 62
     7
370
    15
100
AcDbLine
 10
23.3362025297
 20
10.0967257852
 30
0.0
 11
23.3986865013
 21
10.0953870274
 31
0.0
  0
ARC
  5
276
330
1F
100
AcDbEntity
  8
0
  6
Continuous
 62
     7
370
    15
100
AcDbCircle
 10
23.8985726629
 20
10.0846761767
 30
0.0
 40
0.5000000000214916
100
AcDbArc
 50
178.7725191505
 51
268.7725191505
  0
LINE
  5
277
330
1F
100
AcDbEntity
  8
0
  6
Continuous
 62
     7
370
    15
100
AcDbLine
 10
23.8878622903
 20
9.5847911125
 30
0.0
 11
23.8825072588
 21
9.3348481865
 31
0.0
  0
ARC
  5
278
330
1F
100
AcDbEntity
  8
0
  6
Continuous
 62
     7
370
    15
100
AcDbCircle
 10
102.6993903231
 20
-3.7532633772
 30
0.0
 40
79.89618194196913
100
AcDbArc
 50
170.5716568294
 51
173.4125433989
  0
ARC
  5
279
330
1F
100
AcDbEntity
  8
0
  6
Continuous
 62
     7
370
    15
100
AcDbCircle
 10
23.728049786
 20
5.3665127779
 30
0.0
 40
0.3999999999999901
100
AcDbArc
 50
173.4125433989
 51
183.929823528
  0
ARC
  5
27A
330
1F
100
AcDbEntity
  8
0
  6
Continuous
 62
     7
370
    15
100
AcDbCircle
 10
127.9151351951
 20
12.5237610092
 30
0.0
 40
104.832633636704
100
AcDbArc
 50
183.929823528
 51
186.2529504267
  0
ARC
  5
27B
330
1F
100
AcDbEntity
  8
0
  6
Continuous
 62
     7
370
    15
100
AcDbCircle
 10
23.2426169097
 20
1.8577784377
 30
0.0
 40
0.0699999999999966
100
AcDbArc
 50
212.0882060551
 51
4.5246904367
  0
ARC
  5
27C
330
1F
100
AcDbEntity
  8
0
  6
Continuous
 62
     7
370
    15
100
AcDbCircle
 10
-0.4347299722
 20
-0.0159359877
 30
0.0
 40
23.82136966818088
100
AcDbArc
 50
4.5246904367
 51
11.0033655018
  0
ARC
  5
27D
330
1F
100
AcDbEntity
  8
0
  6
Continuous
 62
     7
370
    15
100
AcDbCircle
 10
22.8799938939
 20
4.517408491
 30
0.0
 40
0.0700000000000012
100
AcDbArc
 50
11.0033655018
 51
153.1972230635
  0
ARC
  5
27E
330
1F
100
AcDbEntity
  8
0
  6
Continuous
 62
     7
370
    15
100
AcDbCircle
 10
25.61633839
 20
3.1350149594
 30
0.0
 40
3.135712491000091
100
AcDbArc
 50
153.1972230635
 51
171.6376737505
  0
ARC
  5
27F
330
1F
100
AcDbEntity
  8
0
  6
Continuous
 62
     7
370
    15
100
AcDbCircle
 10
22.9097115203
 20
3.5328765204
 30
0.0
 40
0.4000000000000038
100
AcDbArc
 50
171.6376737505
 51
192.3404184681
  0
ARC
  5
280
330
1F
100
AcDbEntity
  8
0
  6
Continuous
 62
     7
370
    15
100
AcDbCircle
 10
27.5242630886
 20
4.5424220197
 30
0.0
 40
5.123692230844678
100
AcDbArc
 50
192.3404184681
 51
212.0882060551
  0
CIRCLE
  5
281
330
1F
100
AcDbEntity
  8
0
  6
Continuous
 62
     7
370
    15
100
AcDbCircle
 10
8.612897809
 20
6.7622694564
 30
0.0
 40
0.127952755903708
  0
CIRCLE
  5
282
330
1F
100
AcDbEntity
  8
0
  6
Continuous
 62
     7
370
    15
100
AcDbCircle
 10
10.5090396455
 20
7.5388348624
 30
0.0
 40
0.1279527559859167
  0
CIRCLE
  5
283
330
1F
100
AcDbEntity
  8
0
  6
Continuous
 62
     7
370
    15
100
AcDbCircle
 10
12.3989512388
 20
6.7471666294
 30
0.0
 40
0.1279527558941617
  0
ARC
  5
284
330
1F
100
AcDbEntity
  8
0
  6
Continuous
 62
     7
370
    15
100
AcDbCircle
 10
9.6528112472
 20
7.3970563018
 30
0.0
 40
0.0699999999999997
100
AcDbArc
 50
295.6079762747
 51
76.9475922478
  0
ARC
  5
285
330
1F
100
AcDbEntity
  8
0
  6
Continuous
 62
     7
370
    15
100
AcDbCircle
 10
4.577870197
 20
-14.4935569313
 30
0.0
 40
22.54118097440861
100
AcDbArc
 50
76.9475922478
 51
83.4830871782
  0
ARC
  5
286
330
1F
100
AcDbEntity
  8
0
  6
Continuous
 62
     7
370
    15
100
AcDbCircle
 10
7.1282704933
 20
7.8324241829
 30
0.0
 40
0.0700000000000036
100
AcDbArc
 50
83.4830871782
 51
233.8849244666
  0
ARC
  5
287
330
1F
100
AcDbEntity
  8
0
  6
Continuous
 62
     7
370
    15
100
AcDbCircle
 10
9.8010522312
 20
11.495697766
 30
0.0
 40
4.604681418046281
100
AcDbArc
 50
233.8849244666
 51
254.3459468489
  0
ARC
  5
288
330
1F
100
AcDbEntity
  8
0
  6
Continuous
 62
     7
370
    15
100
AcDbCircle
 10
8.6665099666
 20
7.4469745503
 30
0.0
 40
0.3999999999999994
100
AcDbArc
 50
254.3459468489
 51
277.112082838
  0
ARC
  5
289
330
1F
100
AcDbEntity
  8
0
  6
Continuous
 62
     7
370
    15
100
AcDbCircle
 10
8.3278088785
 20
10.1615618724
 30
0.0
 40
3.135635713309271
100
AcDbArc
 50
277.112082838
 51
295.6079762747
  0
LINE
  5
28A
330
1F
100
AcDbEntity
  8
0
  6
Continuous
 62
     7
370
    15
100
AcDbLine
 10
14.773567046
 20
8.2696644916
 30
0.0
 11
15.023565118
 21
8.2686671698
 31
0.0
  0
ARC
  5
28B
330
1F
100
AcDbEntity
  8
0
  6
Continuous
 62
     7
370
    15
100
AcDbCircle
 10
15.5235612909
 20
8.2666727578
 30
0.0
 40
0.5000000000000032
100
AcDbArc
 50
179.7714444152
 51
269.7714444152
  0
LINE
  5
28C
330
1F
100
AcDbEntity
  8
0
  6
Continuous
 62
     7
370
    15
100
AcDbLine
 10
15.5215666184
 20
7.7666769688
 30
0.0
 11
15.5213178746
 21
7.7041771575
 31
0.0
  0
ARC
  5
28D
330
1F
100
AcDbEntity
  8
0
  6
Continuous
 62
     7
370
    15
100
AcDbCircle
 10
15.8198539911
 20
2.6544858121
 30
0.0
 40
5.058508427352535
100
AcDbArc
 50
93.3833744758
 51
129.890856658
  0
ARC
  5
28E
330
1F
100
AcDbEntity
  8
0
  6
Continuous
 62
     7
370
    15
100
AcDbCircle
 10
12.3989512388
 20
6.7471666294
 30
0.0
 40
0.2755905511810974
100
AcDbArc
 50
229.7942419532
 51
309.890856658
  0
ARC
  5
28F
330
1F
100
AcDbEntity
  8
0
  6
Continuous
 62
     7
370
    15
100
AcDbCircle
 10
10.1968376276
 20
4.1418482057
 30
0.0
 40
3.135712491000065
100
AcDbArc
 50
49.7942419532
 51
83.5041489555
  0
ARC
  5
290
330
1F
100
AcDbEntity
  8
0
  6
Continuous
 62
     7
370
    15
100
AcDbCircle
 10
10.5063322452
 20
6.8599975605
 30
0.0
 40
0.4000000000000005
100
AcDbArc
 50
83.5041489555
 51
96.0388465176
  0
ARC
  5
291
330
1F
100
AcDbEntity
  8
0
  6
Continuous
 62
     7
370
    15
100
AcDbCircle
 10
10.7941285759
 20
4.1395424464
 30
0.0
 40
3.135635713345905
100
AcDbArc
 50
96.0388465176
 51
129.7491184874
  0
ARC
  5
292
330
1F
100
AcDbEntity
  8
0
  6
Continuous
 62
     7
370
    15
100
AcDbCircle
 10
8.612897809
 20
6.7622694564
 30
0.0
 40
0.2755905511811019
100
AcDbArc
 50
226.2260982024
 51
309.7491184874
  0
ARC
  5
293
330
1F
100
AcDbEntity
  8
0
  6
Continuous
 62
     7
370
    15
100
AcDbCircle
 10
5.4525355992
 20
3.4636678677
 30
0.0
 40
4.292632488249477
100
AcDbArc
 50
46.2260982026
 51
85.487686724
  0
LINE
  5
294
330
1F
100
AcDbEntity
  8
0
  6
Continuous
 62
     7
370
    15
100
AcDbLine
 10
5.7902512487
 20
7.7429952691
 30
0.0
 11
5.7905005792
 21
7.8054944937
 31
0.0
  0
ARC
  5
295
330
1F
100
AcDbEntity
  8
0
  6
Continuous
 62
     7
370
    15
100
AcDbCircle
 10
5.7924951618
 20
8.3054906485
 30
0.0
 40
0.5000000000214904
100
AcDbArc
 50
269.7714444152
 51
359.7714444152
  0
LINE
  5
296
330
1F
100
AcDbEntity
  8
0
  6
Continuous
 62
     7
370
    15
100
AcDbLine
 10
6.2924913668
 20
8.3034959941
 30
0.0
 11
6.5424894388
 21
8.3024986723
 31
0.0
  0
ARC
  5
297
330
1F
100
AcDbEntity
  8
0
  6
Continuous
 62
     7
370
    15
100
AcDbCircle
 10
18.2545456555
 20
87.3355781627
 30
0.0
 40
79.89618194196917
100
AcDbArc
 50
261.5705820941
 51
264.4114686637
  0
ARC
  5
298
330
1F
100
AcDbEntity
  8
0
  6
Continuous
 62
     7
370
    15
100
AcDbCircle
 10
10.5129143416
 20
8.2172485042
 30
0.0
 40
0.3999999999999898
100
AcDbArc
 50
264.4114686637
 51
274.9287487928
  0
ARC
  5
299
330
1F
100
AcDbEntity
  8
0
  6
Continuous
 62
     7
370
    15
100
AcDbCircle
 10
1.5403925016
 20
112.2637228324
 30
0.0
 40
104.8326336367041
100
AcDbArc
 50
274.9287487928
 51
277.2518756915
  0
ARC
  5
29A
330
1F
100
AcDbEntity
  8
0
  6
Continuous
 62
     7
370
    15
100
AcDbCircle
 10
14.0295783003
 20
7.793059455
 30
0.0
 40
0.0699999999999963
100
AcDbArc
 50
303.0871313199
 51
95.5236157015
  0
ARC
  5
29B
330
1F
100
AcDbEntity
  8
0
  6
Continuous
 62
     7
370
    15
100
AcDbCircle
 10
16.3157905798
 20
-15.8480233148
 30
0.0
 40
23.82136966818089
100
AcDbArc
 50
95.5236157015
 51
102.0022907666
  0
ARC
  5
29C
330
1F
100
AcDbEntity
  8
0
  6
Continuous
 62
     7
370
    15
100
AcDbCircle
 10
11.3766742947
 20
7.384124486
 30
0.0
 40
0.070000000000002
100
AcDbArc
 50
102.0022907666
 51
244.1961483283
  0
ARC
  5
29D
330
1F
100
AcDbEntity
  8
0
  6
Continuous
 62
     7
370
    15
100
AcDbCircle
 10
12.7111532567
 20
10.1441532861
 30
0.0
 40
3.135712491000088
100
AcDbArc
 50
244.1961483283
 51
262.6365990153
  0
ARC
  5
29E
330
1F
100
AcDbEntity
  8
0
  6
Continuous
 62
     7
370
    15
100
AcDbCircle
 10
12.3605385516
 20
7.4310015834
 30
0.0
 40
0.4000000000000013
100
AcDbArc
 50
262.6365990153
 51
283.3393437328
  0
ARC
  5
29F
330
1F
100
AcDbEntity
  8
0
  6
Continuous
 62
     7
370
    15
100
AcDbCircle
 10
11.2706979963
 20
12.0272517784
 30
0.0
 40
5.123692230844683
100
AcDbArc
 50
283.3393437328
 51
303.0871313198
  0
CIRCLE
  5
2A0
330
1F
100
AcDbEntity
  8
0
  6
Continuous
 62
     7
370
    15
100
AcDbCircle
 10
17.2359546108
 20
9.7155261206
 30
0.0
 40
0.1279527559037086
  0
CIRCLE
  5
2A1
330
1F
100
AcDbEntity
  8
0
  6
Continuous
 62
     7
370
    15
100
AcDbCircle
 10
15.3412023407
 20
8.9355764242
 30
0.0
 40
0.1279527559859097
  0
CIRCLE
  5
2A2
330
1F
100
AcDbEntity
  8
0
  6
Continuous
 62
     7
370
    15
100
AcDbCircle
 10
13.44988025
 20
9.7238689909
 30
0.0
 40
0.1279527558941642
  0
ARC
  5
2A3
330
1F
100
AcDbEntity
  8
0
  6
Continuous
 62
     7
370
    15
100
AcDbCircle
 10
16.197176231
 20
9.0788835397
 30
0.0
 40
0.0699999999999917
100
AcDbArc
 50
115.7102769479
 51
257.049892921
  0
ARC
  5
2A4
330
1F
100
AcDbEntity
  8
0
  6
Continuous
 62
     7
370
    15
100
AcDbCircle
 10
21.2330238824
 20
30.9785230988
 30
0.0
 40
22.5411809744086
100
AcDbArc
 50
257.049892921
 51
263.5853878514
  0
ARC
  5
2A5
330
1F
100
AcDbEntity
  8
0
  6
Continuous
 62
     7
370
    15
100
AcDbCircle
 10
18.7224903026
 20
8.6480238762
 30
0.0
 40
0.0699999999999987
100
AcDbArc
 50
263.5853878514
 51
53.9872251398
  0
ARC
  5
2A6
330
1F
100
AcDbEntity
  8
0
  6
Continuous
 62
     7
370
    15
100
AcDbCircle
 10
16.0562535364
 20
4.9799839269
 30
0.0
 40
4.604681418046273
100
AcDbArc
 50
53.9872251398
 51
74.4482475221
  0
ARC
  5
2A7
330
1F
100
AcDbEntity
  8
0
  6
Continuous
 62
     7
370
    15
100
AcDbCircle
 10
17.1835650676
 20
9.0307263945
 30
0.0
 40
0.399999999999999
100
AcDbArc
 50
74.4482475221
 51
97.2143835112
  0
ARC
  5
2A8
330
1F
100
AcDbEntity
  8
0
  6
Continuous
 62
     7
370
    15
100
AcDbCircle
 10
17.5271124643
 20
6.3167481444
 30
0.0
 40
3.135635713309265
100
AcDbArc
 50
97.2143835112
 51
115.7102769479
  0
LINE
  5
2A9
330
1F
100
AcDbEntity
  8
0
  6
Continuous
 62
     7
370
    15
100
AcDbLine
 10
11.0779863777
 20
8.1971333828
 30
0.0
 11
10.8279871324
 21
8.1976848431
 31
0.0
  0
ARC
  5
2AA
330
1F
100
AcDbEntity
  8
0
  6
Continuous
 62
     7
370
    15
100
AcDbCircle
 10
10.3279882303
 20
8.1987863477
 30
0.0
 40
0.500000000000004
100
AcDbArc
 50
359.8737450884
 51
89.8737450884
  0
LINE
  5
2AB
330
1F
100
AcDbEntity
  8
0
  6
Continuous
 62
     7
370
    15
100
AcDbLine
 10
10.329090389
 20
8.698785081
 30
0.0
 11
10.3292276674
 21
8.7612848924
 31
0.0
  0
ARC
  5
2AC
330
1F
100
AcDbEntity
  8
0
  6
Continuous
 62
     7
370
    15
100
AcDbCircle
 10
10.02167554
 20
13.8104353222
 30
0.0
 40
5.058508427352534
100
AcDbArc
 50
273.485675149
 51
309.9931573312
  0
ARC
  5
2AD
330
1F
100
AcDbEntity
  8
0
  6
Continuous
 62
     7
370
    15
100
AcDbCircle
 10
13.44988025
 20
9.7238689909
 30
0.0
 40
0.275590551181097
100
AcDbArc
 50
49.8965426264
 51
129.9931573312
  0
ARC
  5
2AE
330
1F
100
AcDbEntity
  8
0
  6
Continuous
 62
     7
370
    15
100
AcDbCircle
 10
15.6473386003
 20
12.3331150974
 30
0.0
 40
3.135712491000059
100
AcDbArc
 50
229.8965426264
 51
263.6064496287
  0
ARC
  5
2AF
330
1F
100
AcDbEntity
  8
0
  6
Continuous
 62
     7
370
    15
100
AcDbCircle
 10
15.3426976845
 20
9.614417478
 30
0.0
 40
0.4000000000000016
100
AcDbArc
 50
263.6064496287
 51
276.1411471908
  0
ARC
  5
2B0
330
1F
100
AcDbEntity
  8
0
  6
Continuous
 62
     7
370
    15
100
AcDbCircle
 10
15.0500444871
 20
12.3343544005
 30
0.0
 40
3.135635713345904
100
AcDbArc
 50
276.1411471908
 51
309.8514191606
  0
ARC
  5
2B1
330
1F
100
AcDbEntity
  8
0
  6
Continuous
 62
     7
370
    15
100
AcDbCircle
 10
17.2359546108
 20
9.7155261206
 30
0.0
 40
0.275590551181106
100
AcDbArc
 50
46.3283988756
 51
129.8514191606
  0
ARC
  5
2B2
330
1F
100
AcDbEntity
  8
0
  6
Continuous
 62
     7
370
    15
100
AcDbCircle
 10
20.3904221872
 20
13.0197652233
 30
0.0
 40
4.292632488249474
100
AcDbArc
 50
226.3283988758
 51
265.5899873972
  0
LINE
  5
2B3
330
1F
100
AcDbEntity
  8
0
  6
Continuous
 62
     7
370
    15
100
AcDbLine
 10
20.0603476794
 20
8.7398418868
 30
0.0
 11
20.0602092276
 21
8.6773420754
 31
0.0
  0
ARC
  5
2B4
330
1F
100
AcDbEntity
  8
0
  6
Continuous
 62
     7
370
    15
100
AcDbCircle
 10
20.0591081569
 20
8.1773431683
 30
0.0
 40
0.5000000000214874
100
AcDbArc
 50
89.8737450884
 51
179.8737450884
  0
LINE
  5
2B5
330
1F
100
AcDbEntity
  8
0
  6
Continuous
 62
     7
370
    15
100
AcDbLine
 10
19.5591089897
 20
8.1784447454
 30
0.0
 11
19.3091097444
 21
8.178995619
 31
0.0
  0
ARC
  5
2B6
330
1F
100
AcDbEntity
  8
0
  6
Continuous
 62
     7
370
    15
100
AcDbCircle
 10
7.7381843756
 20
-70.8748691485
 30
0.0
 40
79.89618194196916
100
AcDbArc
 50
81.6728827673
 51
84.5137693369
  0
ARC
  5
2B7
330
1F
100
AcDbEntity
  8
0
  6
Continuous
 62
     7
370
    15
100
AcDbCircle
 10
15.3385389465
 20
8.2571569455
 30
0.0
 40
0.3999999999999913
100
AcDbArc
 50
84.5137693369
 51
95.031049466
  0
ARC
  5
2B8
330
1F
100
AcDbEntity
  8
0
  6
Continuous
 62
     7
370
    15
100
AcDbCircle
 10
24.4968196568
 20
-95.7731312533
 30
0.0
 40
104.832633636704
100
AcDbArc
 50
95.031049466
 51
97.3541763647
  0
ARC
  5
2B9
330
1F
100
AcDbEntity
  8
0
  6
Continuous
 62
     7
370
    15
100
AcDbCircle
 10
11.8211232111
 20
8.6750663762
 30
0.0
 40
0.0699999999999965
100
AcDbArc
 50
123.189431993
 51
275.6259163747
  0
ARC
  5
2BA
330
1F
100
AcDbEntity
  8
0
  6
Continuous
 62
     7
370
    15
100
AcDbCircle
 10
9.4927038332
 20
32.3120294704
 30
0.0
 40
23.82136966818088
100
AcDbArc
 50
275.6259163747
 51
282.1045914398
  0
ARC
  5
2BB
330
1F
100
AcDbEntity
  8
0
  6
Continuous
 62
     7
370
    15
100
AcDbCircle
 10
14.4732928418
 20
9.0887374074
 30
0.0
 40
0.0700000000000003
100
AcDbArc
 50
282.1045914398
 51
64.2984490014
  0
ARC
  5
2BC
330
1F
100
AcDbEntity
  8
0
  6
Continuous
 62
     7
370
    15
100
AcDbCircle
 10
13.1437439904
 20
6.3263303177
 30
0.0
 40
3.135712491000091
100
AcDbArc
 50
64.2984490014
 51
82.7388996885
  0
ARC
  5
2BD
330
1F
100
AcDbEntity
  8
0
  6
Continuous
 62
     7
370
    15
100
AcDbCircle
 10
13.4895138514
 20
9.0401037122
 30
0.0
 40
0.4000000000000024
100
AcDbArc
 50
82.7388996885
 51
103.441644406
  0
ARC
  5
2BE
330
1F
100
AcDbEntity
  8
0
  6
Continuous
 62
     7
370
    15
100
AcDbCircle
 10
14.5875591944
 20
4.4458067348
 30
0.0
 40
5.123692230844681
100
AcDbArc
 50
103.441644406
 51
123.189431993
  0
CIRCLE
  5
2BF
330
1F
100
AcDbEntity
  8
0
  6
Continuous
 62
     7
370
    15
100
AcDbCircle
 10
7.182326626
 20
9.7549068371
 30
0.0
 40
0.1279527559037094
  0
CIRCLE
  5
2C0
330
1F
100
AcDbEntity
  8
0
  6
Continuous
 62
     7
370
    15
100
AcDbCircle
 10
5.287574356
 20
8.9749571407
 30
0.0
 40
0.1279527559859105
  0
CIRCLE
  5
2C1
330
1F
100
AcDbEntity
  8
0
  6
Continuous
 62
     7
370
    15
100
AcDbCircle
 10
3.3962522652
 20
9.7632497074
 30
0.0
 40
0.1279527558941637
  0
ARC
  5
2C2
330
1F
100
AcDbEntity
  8
0
  6
Continuous
 62
     7
370
    15
100
AcDbCircle
 10
6.1435482463
 20
9.1182642562
 30
0.0
 40
0.0699999999999921
100
AcDbArc
 50
115.7102769479
 51
257.049892921
  0
ARC
  5
2C3
330
1F
100
AcDbEntity
  8
0
  6
Continuous
 62
     7
370
    15
100
AcDbCircle
 10
11.1793958976
 20
31.0179038153
 30
0.0
 40
22.5411809744086
100
AcDbArc
 50
257.049892921
 51
263.5853878514
  0
ARC
  5
2C4
330
1F
100
AcDbEntity
  8
0
  6
Continuous
 62
     7
370
    15
100
AcDbCircle
 10
8.6688623179
 20
8.6874045927
 30
0.0
 40
0.0699999999999987
100
AcDbArc
 50
263.5853878514
 51
53.9872251398
  0
ARC
  5
2C5
330
1F
100
AcDbEntity
  8
0
  6
Continuous
 62
     7
370
    15
100
AcDbCircle
 10
6.0026255517
 20
5.0193646434
 30
0.0
 40
4.604681418046275
100
AcDbArc
 50
53.9872251398
 51
74.4482475221
  0
ARC
  5
2C6
330
1F
100
AcDbEntity
  8
0
  6
Continuous
 62
     7
370
    15
100
AcDbCircle
 10
7.1299370829
 20
9.070107111
 30
0.0
 40
0.399999999999999
100
AcDbArc
 50
74.4482475221
 51
97.2143835112
  0
ARC
  5
2C7
330
1F
100
AcDbEntity
  8
0
  6
Continuous
 62
     7
370
    15
100
AcDbCircle
 10
7.4734844796
 20
6.3561288609
 30
0.0
 40
3.135635713309265
100
AcDbArc
 50
97.2143835112
 51
115.7102769479
  0
LINE
  5
2C8
330
1F
100
AcDbEntity
  8
0
  6
Continuous
 62
     7
370
    15
100
AcDbLine
 10
1.0243584514
 20
8.2365141012
 30
0.0
 11
0.7743590228
 21
8.2370655615
 31
0.0
  0
ARC
  5
2C9
330
1F
100
AcDbEntity
  8
0
  6
Continuous
 62
     7
370
    15
100
AcDbCircle
 10
0.2743602455
 20
8.2381670642
 30
0.0
 40
0.5000000000000022
100
AcDbArc
 50
359.8737450884
 51
89.8737450884
  0
LINE
  5
2CA
330
1F
100
AcDbEntity
  8
0
  6
Continuous
 62
     7
370
    15
100
AcDbLine
 10
0.2754620262
 20
8.7381657994
 30
0.0
 11
0.2755997492
 21
8.8006656108
 31
0.0
  0
ARC
  5
2CB
330
1F
100
AcDbEntity
  8
0
  6
Continuous
 62
     7
370
    15
100
AcDbCircle
 10
-0.0319524447
 20
13.8498160387
 30
0.0
 40
5.058508427352536
100
AcDbArc
 50
273.485675149
 51
309.9931573312
  0
ARC
  5
2CC
330
1F
100
AcDbEntity
  8
0
  6
Continuous
 62
     7
370
    15
100
AcDbCircle
 10
3.3962522652
 20
9.7632497074
 30
0.0
 40
0.275590551181097
100
AcDbArc
 50
49.8965426264
 51
129.9931573312
  0
ARC
  5
2CD
330
1F
100
AcDbEntity
  8
0
  6
Continuous
 62
     7
370
    15
100
AcDbCircle
 10
5.5937106156
 20
12.3724958139
 30
0.0
 40
3.135712491000058
100
AcDbArc
 50
229.8965426264
 51
263.6064496287
  0
ARC
  5
2CE
330
1F
100
AcDbEntity
  8
0
  6
Continuous
 62
     7
370
    15
100
AcDbCircle
 10
5.2890696998
 20
9.6537981945
 30
0.0
 40
0.3999999999999997
100
AcDbArc
 50
263.6064496287
 51
276.1411471908
  0
ARC
  5
2CF
330
1F
100
AcDbEntity
  8
0
  6
Continuous
 62
     7
370
    15
100
AcDbCircle
 10
4.9964165024
 20
12.373735117
 30
0.0
 40
3.135635713345903
100
AcDbArc
 50
276.1411471908
 51
309.8514191606
  0
ARC
  5
2D0
330
1F
100
AcDbEntity
  8
0
  6
Continuous
 62
     7
370
    15
100
AcDbCircle
 10
7.182326626
 20
9.7549068371
 30
0.0
 40
0.2755905511811041
100
AcDbArc
 50
46.3283988756
 51
129.8514191606
  0
ARC
  5
2D1
330
1F
100
AcDbEntity
  8
0
  6
Continuous
 62
     7
370
    15
100
AcDbCircle
 10
10.3367942025
 20
13.0591459398
 30
0.0
 40
4.292632488249472
100
AcDbArc
 50
226.3283988758
 51
265.5899873972
  0
LINE
  5
2D2
330
1F
100
AcDbEntity
  8
0
  6
Continuous
 62
     7
370
    15
100
AcDbLine
 10
10.0067196064
 20
8.7792226052
 30
0.0
 11
10.0065817413
 21
8.7167227938
 31
0.0
  0
ARC
  5
2D3
330
1F
100
AcDbEntity
  8
0
  6
Continuous
 62
     7
370
    15
100
AcDbCircle
 10
10.0054801721
 20
8.2167238848
 30
0.0
 40
0.5000000000214891
100
AcDbArc
 50
89.8737450884
 51
179.8737450884
  0
LINE
  5
2D4
330
1F
100
AcDbEntity
  8
0
  6
Continuous
 62
     7
370
    15
100
AcDbLine
 10
9.5054815034
 20
8.2178254638
 30
0.0
 11
9.2554822581
 21
8.2183763374
 31
0.0
  0
ARC
  5
2D5
330
1F
100
AcDbEntity
  8
0
  6
Continuous
 62
     7
370
    15
100
AcDbCircle
 10
-2.3154436092
 20
-70.835488432
 30
0.0
 40
79.89618194196916
100
AcDbArc
 50
81.6728827673
 51
84.5137693369
  0
ARC
  5
2D6
330
1F
100
AcDbEntity
  8
0
  6
Continuous
 62
     7
370
    15
100
AcDbCircle
 10
5.2849109618
 20
8.296537662
 30
0.0
 40
0.3999999999999914
100
AcDbArc
 50
84.5137693369
 51
95.031049466
  0
ARC
  5
2D7
330
1F
100
AcDbEntity
  8
0
  6
Continuous
 62
     7
370
    15
100
AcDbCircle
 10
14.443191672
 20
-95.7337505368
 30
0.0
 40
104.832633636704
100
AcDbArc
 50
95.031049466
 51
97.3541763647
  0
ARC
  5
2D8
330
1F
100
AcDbEntity
  8
0
  6
Continuous
 62
     7
370
    15
100
AcDbCircle
 10
1.7674952264
 20
8.7144470927
 30
0.0
 40
0.0699999999999985
100
AcDbArc
 50
123.189431993
 51
275.6259163747
  0
ARC
  5
2D9
330
1F
100
AcDbEntity
  8
0
  6
Continuous
 62
     7
370
    15
100
AcDbCircle
 10
-0.5609241515
 20
32.3514101869
 30
0.0
 40
23.82136966818089
100
AcDbArc
 50
275.6259163747
 51
282.1045914398
  0
ARC
  5
2DA
330
1F
100
AcDbEntity
  8
0
  6
Continuous
 62
     7
370
    15
100
AcDbCircle
 10
4.419664857
 20
9.1281181239
 30
0.0
 40
0.0700000000000003
100
AcDbArc
 50
282.1045914398
 51
64.2984490014
  0
ARC
  5
2DB
330
1F
100
AcDbEntity
  8
0
  6
Continuous
 62
     7
370
    15
100
AcDbCircle
 10
3.0901160057
 20
6.3657110342
 30
0.0
 40
3.13571249100009
100
AcDbArc
 50
64.2984490014
 51
82.7388996885
  0
ARC
  5
2DC
330
1F
100
AcDbEntity
  8
0
  6
Continuous
 62
     7
370
    15
100
AcDbCircle
 10
3.4358858666
 20
9.0794844287
 30
0.0
 40
0.4000000000000007
100
AcDbArc
 50
82.7388996885
 51
103.441644406
  0
ARC
  5
2DD
330
1F
100
AcDbEntity
  8
0
  6
Continuous
 62
     7
370
    15
100
AcDbCircle
 10
4.5339312097
 20
4.4851874513
 30
0.0
 40
5.12369223084468
100
AcDbArc
 50
103.441644406
 51
123.189431993
  0
MTEXT
  5
2DF
330
1F
100
AcDbEntity
  8
0
  6
Continuous
 62
     7
100
AcDbMText
 10
0.0
 20
1.1580209256
 30
0.0
 40
0.4152
 41
0.0
 71
     1
 72
     1
  1
SolidWorks Student Edition.
  7
SLDTEXTSTYLE0
 73
     1
 44
1.0
  0
MTEXT
  5
2E0
330
1F
100
AcDbEntity
  8
0
  6
Continuous
 62
     7
100
AcDbMText
 10
0.0
 20
0.5352209256
 30
0.0
 40
0.4152
 41
0.0
 71
     1
 72
     1
  1
For Academic Use Only.
  7
SLDTEXTSTYLE0
 73
     1
 44
1.0
  0
ENDSEC
  0
SECTION
  2
OBJECTS
  0
DICTIONARY
  5
C
330
0
100
AcDbDictionary
281
     1
  3
ACAD_GROUP
350
D
  3
ACAD_LAYOUT
350
1A
  3
ACAD_MLINESTYLE
350
17
  3
ACAD_PLOTSETTINGS
350
19
  3
ACAD_PLOTSTYLENAME
350
E
  3
ACAD_SCALELIST
350
47
  0
DICTIONARY
  5
D
102
{ACAD_REACTORS
330
C
102
}
330
C
100
AcDbDictionary
281
     1
  0
DICTIONARY
  5
1A
102
{ACAD_REACTORS
330
C
102
}
330
C
100
AcDbDictionary
281
     1
  3
Layout1
350
1E
  3
Layout2
350
26
  3
Model
350
22
  0
DICTIONARY
  5
17
102
{ACAD_REACTORS
330
C
102
}
330
C
100
AcDbDictionary
281
     1
  3
Standard
350
18
  0
DICTIONARY
  5
19
102
{ACAD_REACTORS
330
C
102
}
330
C
100
AcDbDictionary
281
     1
  0
ACDBDICTIONARYWDFLT
  5
E
102
{ACAD_REACTORS
330
C
102
}
330
C
100
AcDbDictionary
281
     1
  3
Normal
350
F
100
AcDbDictionaryWithDefault
340
F
  0
DICTIONARY
  5
47
102
{ACAD_REACTORS
330
C
102
}
330
C
100
AcDbDictionary
281
     1
  3
A0
350
48
  3
A1
350
49
  3
A2
350
4A
  3
A3
350
4B
  3
A4
350
4C
  3
A5
350
4D
  3
A6
350
4E
  3
A7
350
4F
  3
A8
350
50
  3
A9
350
51
  3
B0
350
52
  3
B1
350
53
  3
B2
350
54
  3
B3
350
55
  3
B4
350
56
  3
B5
350
57
  3
B6
350
58
  3
B7
350
59
  3
B8
350
5A
  3
B9
350
5B
  3
C0
350
5C
  3
C1
350
5D
  3
C2
350
5E
  3
C3
350
5F
  3
C4
350
60
  3
C5
350
61
  3
C6
350
62
  3
C7
350
63
  3
C8
350
64
  3
C9
350
65
  3
D0
350
66
  3
D1
350
67
  3
D2
350
68
  0
LAYOUT
  5
1E
102
{ACAD_REACTORS
330
1A
102
}
330
1A
100
AcDbPlotSettings
  1

  2
none_device
  4

  6

 40
0.0
 41
0.0
 42
0.0
 43
0.0
 44
0.0
 45
0.0
 46
0.0
 47
0.0
 48
0.0
 49
0.0
140
0.0
141
0.0
142
1.0
143
1.0
 70
   688
 72
     0
 73
     0
 74
     5
  7

 75
    16
147
1.0
148
0.0
149
0.0
100
AcDbLayout
  1
Layout1
 70
     1
 71
     1
 10
0.0
 20
0.0
 11
12.0
 21
9.0
 12
0.0
 22
0.0
 32
0.0
 14
1.0000000000E+20
 24
1.0000000000E+20
 34
1.0000000000E+20
 15
-1.0000000000E+20
 25
-1.0000000000E+20
 35
-1.0000000000E+20
146
0.0
 13
0.0
 23
0.0
 33
0.0
 16
1.0
 26
0.0
 36
0.0
 17
0.0
 27
1.0
 37
0.0
 76
     0
330
1B
  0
LAYOUT
  5
26
102
{ACAD_REACTORS
330
1A
102
}
330
1A
100
AcDbPlotSettings
  1

  2
none_device
  4

  6

 40
0.0
 41
0.0
 42
0.0
 43
0.0
 44
0.0
 45
0.0
 46
0.0
 47
0.0
 48
0.0
 49
0.0
140
0.0
141
0.0
142
1.0
143
1.0
 70
   688
 72
     0
 73
     0
 74
     5
  7

 75
    16
147
1.0
148
0.0
149
0.0
100
AcDbLayout
  1
Layout2
 70
     1
 71
     2
 10
0.0
 20
0.0
 11
0.0
 21
0.0
 12
0.0
 22
0.0
 32
0.0
 14
0.0
 24
0.0
 34
0.0
 15
0.0
 25
0.0
 35
0.0
146
0.0
 13
0.0
 23
0.0
 33
0.0
 16
1.0
 26
0.0
 36
0.0
 17
0.0
 27
1.0
 37
0.0
 76
     0
330
23
  0
LAYOUT
  5
22
102
{ACAD_REACTORS
330
1A
102
}
330
1A
100
AcDbPlotSettings
  1

  2
none_device
  4
Letter_(8.50_x_11.00_Inches)
  6

 40
6.35
 41
6.35
 42
6.35000508
 43
6.35000508
 44
215.9
 45
279.4
 46
0.0
 47
0.0
 48
0.0
 49
0.0
140
0.0
141
0.0
142
1.0
143
1.0
 70
  1712
 72
     0
 73
     0
 74
     0
  7

 75
     0
147
1.0
148
0.0
149
0.0
100
AcDbLayout
  1
Model
 70
     1
 71
     0
 10
0.0
 20
0.0
 11
24.0
 21
24.0
 12
0.0
 22
0.0
 32
0.0
 14
0.0
 24
0.0
 34
0.0
 15
24.0
 25
24.0
 35
0.0
146
0.0
 13
0.0
 23
0.0
 33
0.0
 16
1.0
 26
0.0
 36
0.0
 17
0.0
 27
1.0
 37
0.0
 76
     0
330
1F
331
29
  0
MLINESTYLE
  5
18
102
{ACAD_REACTORS
330
17
102
}
330
17
100
AcDbMlineStyle
  2
Standard
 70
     0
  3

 62
   256
 51
90.0
 52
90.0
 71
     2
 49
0.5
 62
   256
  6
BYLAYER
 49
-0.5
 62
   256
  6
BYLAYER
  0
ACDBPLACEHOLDER
  5
F
102
{ACAD_REACTORS
330
E
102
}
330
E
  0
SCALE
  5
48
102
{ACAD_REACTORS
330
47
102
}
330
47
100
AcDbScale
 70
     0
300
1:1
140
1.0
141
1.0
290
     1
  0
SCALE
  5
49
102
{ACAD_REACTORS
330
47
102
}
330
47
100
AcDbScale
 70
     0
300
1:2
140
1.0
141
2.0
290
     0
  0
SCALE
  5
4A
102
{ACAD_REACTORS
330
47
102
}
330
47
100
AcDbScale
 70
     0
300
1:4
140
1.0
141
4.0
290
     0
  0
SCALE
  5
4B
102
{ACAD_REACTORS
330
47
102
}
330
47
100
AcDbScale
 70
     0
300
1:5
140
1.0
141
5.0
290
     0
  0
SCALE
  5
4C
102
{ACAD_REACTORS
330
47
102
}
330
47
100
AcDbScale
 70
     0
300
1:8
140
1.0
141
8.0
290
     0
  0
SCALE
  5
4D
102
{ACAD_REACTORS
330
47
102
}
330
47
100
AcDbScale
 70
     0
300
1:10
140
1.0
141
10.0
290
     0
  0
SCALE
  5
4E
102
{ACAD_REACTORS
330
47
102
}
330
47
100
AcDbScale
 70
     0
300
1:16
140
1.0
141
16.0
290
     0
  0
SCALE
  5
4F
102
{ACAD_REACTORS
330
47
102
}
330
47
100
AcDbScale
 70
     0
300
1:20
140
1.0
141
20.0
290
     0
  0
SCALE
  5
50
102
{ACAD_REACTORS
330
47
102
}
330
47
100
AcDbScale
 70
     0
300
1:30
140
1.0
141
30.0
290
     0
  0
SCALE
  5
51
102
{ACAD_REACTORS
330
47
102
}
330
47
100
AcDbScale
 70
     0
300
1:40
140
1.0
141
40.0
290
     0
  0
SCALE
  5
52
102
{ACAD_REACTORS
330
47
102
}
330
47
100
AcDbScale
 70
     0
300
1:50
140
1.0
141
50.0
290
     0
  0
SCALE
  5
53
102
{ACAD_REACTORS
330
47
102
}
330
47
100
AcDbScale
 70
     0
300
1:100
140
1.0
141
100.0
290
     0
  0
SCALE
  5
54
102
{ACAD_REACTORS
330
47
102
}
330
47
100
AcDbScale
 70
     0
300
2:1
140
2.0
141
1.0
290
     0
  0
SCALE
  5
55
102
{ACAD_REACTORS
330
47
102
}
330
47
100
AcDbScale
 70
     0
300
4:1
140
4.0
141
1.0
290
     0
  0
SCALE
  5
56
102
{ACAD_REACTORS
330
47
102
}
330
47
100
AcDbScale
 70
     0
300
8:1
140
8.0
141
1.0
290
     0
  0
SCALE
  5
57
102
{ACAD_REACTORS
330
47
102
}
330
47
100
AcDbScale
 70
     0
300
10:1
140
10.0
141
1.0
290
     0
  0
SCALE
  5
58
102
{ACAD_REACTORS
330
47
102
}
330
47
100
AcDbScale
 70
     0
300
100:1
140
100.0
141
1.0
290
     0
  0
SCALE
  5
59
102
{ACAD_REACTORS
330
47
102
}
330
47
100
AcDbScale
 70
     0
300
1/128" = 1'-0"
140
0.0078125
141
12.0
290
     0
  0
SCALE
  5
5A
102
{ACAD_REACTORS
330
47
102
}
330
47
100
AcDbScale
 70
     0
300
1/64" = 1'-0"
140
0.015625
141
12.0
290
     0
  0
SCALE
  5
5B
102
{ACAD_REACTORS
330
47
102
}
330
47
100
AcDbScale
 70
     0
300
1/32" = 1'-0"
140
0.03125
141
12.0
290
     0
  0
SCALE
  5
5C
102
{ACAD_REACTORS
330
47
102
}
330
47
100
AcDbScale
 70
     0
300
1/16" = 1'-0"
140
0.0625
141
12.0
290
     0
  0
SCALE
  5
5D
102
{ACAD_REACTORS
330
47
102
}
330
47
100
AcDbScale
 70
     0
300
3/32" = 1'-0"
140
0.09375
141
12.0
290
     0
  0
SCALE
  5
5E
102
{ACAD_REACTORS
330
47
102
}
330
47
100
AcDbScale
 70
     0
300
1/8" = 1'-0"
140
0.125
141
12.0
290
     0
  0
SCALE
  5
5F
102
{ACAD_REACTORS
330
47
102
}
330
47
100
AcDbScale
 70
     0
300
3/16" = 1'-0"
140
0.1875
141
12.0
290
     0
  0
SCALE
  5
60
102
{ACAD_REACTORS
330
47
102
}
330
47
100
AcDbScale
 70
     0
300
1/4" = 1'-0"
140
0.25
141
12.0
290
     0
  0
SCALE
  5
61
102
{ACAD_REACTORS
330
47
102
}
330
47
100
AcDbScale
 70
     0
300
3/8" = 1'-0"
140
0.375
141
12.0
290
     0
  0
SCALE
  5
62
102
{ACAD_REACTORS
330
47
102
}
330
47
100
AcDbScale
 70
     0
300
1/2" = 1'-0"
140
0.5
141
12.0
290
     0
  0
SCALE
  5
63
102
{ACAD_REACTORS
330
47
102
}
330
47
100
AcDbScale
 70
     0
300
3/4" = 1'-0"
140
0.75
141
12.0
290
     0
  0
SCALE
  5
64
102
{ACAD_REACTORS
330
47
102
}
330
47
100
AcDbScale
 70
     0
300
1" = 1'-0"
140
1.0
141
12.0
290
     0
  0
SCALE
  5
65
102
{ACAD_REACTORS
330
47
102
}
330
47
100
AcDbScale
 70
     0
300
1-1/2" = 1'-0"
140
1.5
141
12.0
290
     0
  0
SCALE
  5
66
102
{ACAD_REACTORS
330
47
102
}
330
47
100
AcDbScale
 70
     0
300
3" = 1'-0"
140
3.0
141
12.0
290
     0
  0
SCALE
  5
67
102
{ACAD_REACTORS
330
47
102
}
330
47
100
AcDbScale
 70
     0
300
6" = 1'-0"
140
6.0
141
12.0
290
     0
  0
SCALE
  5
68
102
{ACAD_REACTORS
330
47
102
}
330
47
100
AcDbScale
 70
     0
300
1'-0" = 1'-0"
140
12.0
141
12.0
290
     0
  0
ENDSEC
  0
EOF
